<svg xmlns="http://www.w3.org/2000/svg" width="1280" height="720" viewBox="0 0 1280 720">
  <defs>
    <linearGradient id="bg" x1="0" y1="0" x2="0" y2="1">
      <stop offset="0%" stop-color="#eef4ff"/>
      <stop offset="100%" stop-color="#f8fbff"/>
    </linearGradient>
    <filter id="shadow" x="-20%" y="-20%" width="140%" height="140%">
      <feDropShadow dx="0" dy="8" stdDeviation="8" flood-color="#2f4b8a22"/>
    </filter>
  </defs>
  <rect width="1280" height="720" fill="url(#bg)"/>

  <rect x="90" y="520" width="1100" height="90" rx="20" fill="#c9d7ef"/>

  <g filter="url(#shadow)">
    <circle cx="250" cy="250" r="100" fill="#ffd2d2" stroke="#d45c5c" stroke-width="8"/>
    <polygon points="250,182 315,217 315,283 250,318 185,283 185,217" fill="#ff5c5c"/>

    <rect x="500" y="170" width="320" height="180" rx="30" fill="#ffcf7d" stroke="#cb8c26" stroke-width="8"/>
    <rect x="530" y="205" width="80" height="55" rx="12" fill="#a7d7ff"/>
    <rect x="620" y="205" width="80" height="55" rx="12" fill="#a7d7ff"/>
    <rect x="710" y="205" width="80" height="55" rx="12" fill="#a7d7ff"/>
    <circle cx="575" cy="355" r="22" fill="#3b4a63"/>
    <circle cx="745" cy="355" r="22" fill="#3b4a63"/>

    <rect x="915" y="180" width="220" height="300" rx="24" fill="#d9e8ff" stroke="#5f8ed0" stroke-width="8"/>
    <path d="M985 260 Q1025 220 1065 260" fill="none" stroke="#4f6f98" stroke-width="10"/>
    <line x1="1025" y1="260" x2="1025" y2="390" stroke="#4f6f98" stroke-width="10"/>
    <line x1="970" y1="330" x2="1080" y2="330" stroke="#4f6f98" stroke-width="10"/>
  </g>

  <g stroke="#5a78b5" stroke-width="8" stroke-linecap="round">
    <line x1="355" y1="250" x2="455" y2="250"/>
    <line x1="840" y1="250" x2="890" y2="250"/>
  </g>
  <polygon points="455,250 432,238 432,262" fill="#5a78b5"/>
  <polygon points="890,250 867,238 867,262" fill="#5a78b5"/>
</svg>
