<?xml version="1.0" encoding="UTF-8" standalone="no"?>
<!-- Created with Inkscape (http://www.inkscape.org/) -->

<svg
   version="1.1"
   id="svg1"
   width="2416.72"
   height="3678.0801"
   viewBox="0 0 2416.72 3678.0801"
   sodipodi:docname="wjyy_p36v_231107.eps"
   xmlns:inkscape="http://www.inkscape.org/namespaces/inkscape"
   xmlns:sodipodi="http://sodipodi.sourceforge.net/DTD/sodipodi-0.dtd"
   xmlns="http://www.w3.org/2000/svg"
   xmlns:svg="http://www.w3.org/2000/svg">
  <defs
     id="defs1" />
  <sodipodi:namedview
     id="namedview1"
     pagecolor="#ffffff"
     bordercolor="#000000"
     borderopacity="0.25"
     inkscape:showpageshadow="2"
     inkscape:pageopacity="0.0"
     inkscape:pagecheckerboard="0"
     inkscape:deskcolor="#d1d1d1">
    <inkscape:page
       x="0"
       y="0"
       inkscape:label="1"
       id="page1"
       width="2416.72"
       height="3678.0801"
       margin="0"
       bleed="0" />
  </sodipodi:namedview>
  <g
     id="g1"
     inkscape:groupmode="layer"
     inkscape:label="1">
    <g
       id="group-R5">
      <path
         id="path2"
         d="m 16114.6,1947 c -30.9,208.8 -148.5,405.6 -311.3,538.6 -88.2,72.1 -193.4,131.1 -309.1,138.5 -56.6,3.6 -111.9,-3.5 -165.7,-20.7 -38.8,-12.4 -78.7,-31.4 -119.2,-40 -70.9,49 -147.9,88.7 -228.4,116 -14.3,4.8 -28.8,9.1 -43.4,13.1 1.2,10.2 -3.6,20.1 -17.9,26.7 -103.4,47.8 -218.1,76.8 -327.9,106 -113,30.1 -227.6,54.1 -343.6,69.6 -182.8,24.6 -369.7,24.4 -553.5,11 -23.1,-1.7 -46.2,-3.6 -69.4,-5.8 -144,214.1 -234.4,463.4 -307.3,709.6 -114.4,386.4 -204,782.6 -262.1,1181.4 -63.9,438.7 -91.8,884.4 -114.9,1326.9 -23.1,442.4 -37.2,886.8 -31.3,1329.9 2.9,217.3 15.2,434.7 41.2,650.5 23.8,197.3 70.8,390.9 92.2,588.4 10.2,94.1 14.6,189.5 3.9,283.7 -4.4,39.1 -14.1,77.4 -33.6,111.8 -34,60.3 -96.1,90.1 -163,96.7 -82.8,8.3 -167.4,-14.6 -245,-41 -98,-33.3 -191.6,-79.3 -282.2,-128.9 -182.5,-99.9 -355.7,-216.5 -523,-339.9 -159.1,-117.3 -315.4,-240.7 -462.3,-372.8 -216.1,-194.2 -505.2,-494.7 -400.7,-813.5 13.2,-40.6 30.4,-79.2 49.1,-117.1 81.2,-201.9 143.5,-412.4 208.2,-619.8 71.4,-229 136.2,-460 208.8,-688.6 74.9,-235.4 147.3,-470.1 205.9,-710.3 59.7,-244.7 111.7,-491.1 166.7,-736.9 55.1,-246.3 109.1,-493.4 141.6,-743.9 32.5,-250.4 27.8,-501.2 0.5,-751.8 -53.2,-488.3 -189.7,-974.6 -118.5,-1468.7 28.1,-194.7 97.9,-372 232.8,-517.8 122.1,-131.998 277.2,-228.298 443.5,-294.998 201.4,-80.699 422.6,-119.601 637.7,-139.898 238.6,-22.602 478.2,-13.801 715.2,20.801 163.3,23.797 334.6,46.699 490.7,102.297 49.8,17.703 97.1,41.101 139.8,70.203 100.4,-60.301 240.9,-43.903 350.6,-28.903 126.4,17.399 252.2,45 365.7,105.301 15.1,8 29.7,16.5 44.1,25.399 55.8,-37.301 137.5,-34.7 200.2,-29.2 79.7,6.899 159.6,23.598 233.4,54.998 172,73.1 307.3,211.8 386.5,379.8 80.6,170.6 102.5,367.4 75,553.3"
         style="fill:#231f20;fill-opacity:1;fill-rule:nonzero;stroke:none"
         transform="matrix(0.13333333,0,0,-0.13333333,0,3678.08)" />
      <path
         id="path3"
         d="m 14876.7,933.102 c -66.6,-11.5 -133.7,-21.5 -201.4,-22.598 -51.9,-0.703 -107.6,2.297 -155.1,24.797 49.5,46.902 88.5,104.199 110.6,173.099 66.2,205.7 -11.1,422.2 -89.1,612.5 -80.7,196.9 -152.2,395.8 -284.5,565.4 -107.5,137.9 -239.5,253.6 -404.9,315.1 -135.4,50.4 -282.5,61.9 -424.9,39.8 -276.3,-42.7 -517.1,-229.1 -627.3,-485.1 -22.2,-76.2 -32,-156.9 -12.2,-229.8 9.9,70.1 33.1,142.7 59.2,207.3 26.7,66.1 63,128.9 107.6,184.4 85.1,105.9 198.4,185.6 326,231.8 273,98.7 569.2,15.4 777.6,-179.5 148.6,-138.9 254.7,-316.1 327.8,-504.6 77,-198.4 188.8,-403.1 185,-621.5 -1.3,-78.2 -16.7,-157 -61,-222.7 -35.4,-52.598 -88,-90.898 -144.6,-118.098 -130.3,-62.601 -277.9,-81.101 -418.5,-107.199 -445.2,-82.601 -918.6,-82.101 -1352.1,62 -337.9,112.399 -640.2,354.197 -714.8,716.797 -97.4,473.5 23.5,949.8 86.1,1418.9 31.7,237.5 48.4,476.5 33.7,715.9 -14.7,241.5 -56.8,479.3 -106.8,715.6 -50.1,236.3 -102.7,472.2 -155.7,707.9 -52.6,234.3 -108.9,468 -180.1,697.5 -68.2,219.8 -140.3,438.5 -209.9,657.9 -68.9,217.3 -134.8,438.8 -228.2,647.1 -21.3,47.5 -43.3,94.7 -65.7,141.7 -26.2,78.1 -58.4,154.7 -77.7,234.8 -20.1,83.1 -12.5,160.4 14.8,240.9 50.7,149.6 153.4,278.6 262.1,390.5 155.7,160.3 334.6,299.2 512.6,434 151.5,114.8 308.1,223.6 471.3,321.2 90.2,53.8 182.8,104.1 279.2,145.9 78.2,33.9 161.2,65.1 246.6,73.5 58.7,5.8 125.2,-0.6 167.9,-45.9 22.1,-23.4 35,-53.4 42.7,-84.3 18.2,-73.7 14.6,-154.6 10,-229.7 -11.9,-193.9 -58,-383.4 -86.8,-575 -31.2,-207.6 -45.8,-418.3 -52.2,-628.1 -13.1,-427.8 1.7,-858.1 21,-1285.5 19.5,-432.1 49,-864.8 97.3,-1294.8 46.3,-412.9 133.5,-820.6 241.5,-1221.5 79.5,-295.3 171.1,-603.5 340.5,-862 -296.4,-34.5 -591,-109.9 -850.4,-259.5 -131.2,-75.6 -247.9,-171.9 -338.3,-291.6 47.7,34 98.2,64.5 149.5,92.6 181.3,147.7 400.4,245.3 627.9,306.4 148.9,40 303.9,67.2 460.3,82.3 0.2,-0.3 0.5,-0.6 0.7,-0.9 28.2,2.3 56.4,3.8 84.7,4.7 -0.8,1 -1.6,2 -2.4,3.1 154.1,10.5 308.9,9.5 460,-4.6 125.1,-11.7 248.5,-35.5 370.2,-66.4 49.2,-12.5 97.9,-27.4 146.5,-42.7 -146.2,-17 -284.6,-80.1 -389,-193.9 31.5,17.8 64.3,32.6 98.1,44.9 63.7,39.3 132.5,69.5 207.1,83.8 102.6,19.8 210.2,12.5 310.5,-15.6 207.4,-58.1 391.4,-194.9 513.4,-371.5 243.8,-352.8 205.5,-932.7 -158.5,-1193.2 -107.2,-76.697 -229.4,-114.099 -357.9,-136.298"
         style="fill:#ffffff;fill-opacity:1;fill-rule:nonzero;stroke:none"
         transform="matrix(0.13333333,0,0,-0.13333333,0,3678.08)" />
      <path
         id="path4"
         d="m 15719,1105.1 c -72.1,-44.3 -151.2,-70.1 -234.3,-83.6 -60.2,-9.9 -145.5,-21.898 -205.9,7 159.1,118.7 269.4,292.5 315.4,488.5 55.2,235 35.3,499.1 -81.9,712.6 -63.9,116.4 -154.6,221.1 -261.7,303.7 48.2,8 96.9,24.8 144.2,27.3 98.4,5.3 188.4,-25.3 270.2,-78.7 163.3,-106.8 289.3,-271.7 346,-458.7 96.3,-317.3 3.2,-736.2 -292,-918.1"
         style="fill:#ffffff;fill-opacity:1;fill-rule:nonzero;stroke:none"
         transform="matrix(0.13333333,0,0,-0.13333333,0,3678.08)" />
      <path
         id="path5"
         d="m 4232.32,10149.3 c -5.93,33.7 -19.25,64.2 -42.84,89.3 -10.88,11.5 -22.65,20.3 -34.95,28 -272.6,196.2 -494.41,461.8 -645.65,761.2 -158.61,314.1 -262.18,685 -212.98,1037.9 14.08,101 35.68,208.7 76.75,302.5 29.43,67.2 78.19,141.9 67,218.5 -2.93,20 -29.24,17.3 -42.23,12.9 -72.93,-24.4 -133.93,-73.5 -181.89,-132.8 -9.45,-11.7 -18.74,-23.9 -27.84,-36.3 21,124.5 36.06,249.7 62.22,373.4 51.73,244.6 118.78,485.7 171.52,730.1 96.13,445.4 163.54,933.4 -32.26,1362.6 -53.22,116.7 -125.11,221.7 -214.14,314 -86.94,90.2 -185.74,163.4 -287.41,235.8 -17.11,12.2 -52.2,-9.6 -52.18,-29.7 -1.12,0.9 -2.1,2 -3.23,2.8 -56.3,43 -123.81,70.7 -191.88,88.8 -167.45,44.3 -364.45,62 -511.76,-45.7 -12.89,-9.4 -30.24,-43.8 -2.72,-48.5 67.64,-11.7 121.46,-40.5 171.09,-80.6 -19.77,4.6 -39.71,8.3 -59.55,10.9 -144.52,19.3 -299.62,-12.8 -421.02,-94.6 -15.12,-10.2 -31.79,-46.8 -2.94,-52.5 133.97,-26.7 247.23,-99.9 326.27,-211.5 77.21,-108.9 118.34,-239.7 138.14,-370.6 39.57,-261.8 -17.19,-516.1 -104.86,-760.4 -115,-183.4 -197.72,-389.3 -264.05,-592.3 -52.57,-160.9 -99.92,-326.2 -119.59,-494.7 -10.93,-93.8 -12.82,-188.3 -4.72,-282.3 6.39,-74.3 21.37,-147 33.37,-220.4 9.54,-58.3 19.17,-116.6 32.02,-174.3 -4.42,8.5 -8.75,17.1 -12.92,25.6 -40.26,82.2 -69.77,170.9 -88.33,260.6 -7.32,35.3 -68.19,6.6 -66.94,-21.7 20.61,-468.6 105.7,-940.3 321.6,-1360.7 111.75,-217.6 258.09,-419.1 432.34,-590.9 180.72,-178.2 392.6,-320.4 614.26,-442.5 117.66,-64.7 235.22,-131.9 356.04,-190.6 116.59,-56.6 241.7,-108.5 373.4,-108.3 102.14,-12.4 212.2,47.7 285.81,113.3 97.97,87.4 191.12,236.6 167.05,373.7"
         style="fill:#231f20;fill-opacity:1;fill-rule:nonzero;stroke:none"
         transform="matrix(0.13333333,0,0,-0.13333333,0,3678.08)" />
      <path
         id="path6"
         d="m 3903.66,9729.8 c -58.48,-23.4 -117.84,-21.1 -174.86,5.2 -13.31,6.1 -33.33,-7.8 -39.28,-22.4 -82.43,18 -161.54,53 -235.79,91.7 -102.61,53.6 -201.84,113.6 -303.59,168.8 -216.67,117.5 -425.28,252.4 -606.86,420 -344.73,318.2 -571.47,745.7 -685.07,1197.6 -41.31,164.4 -68.57,331.7 -86.61,500.1 2.4,-5.1 4.53,-10.3 6.98,-15.4 41.06,-85.1 93.89,-170.6 171.6,-226.9 5.53,-4 12.65,-4.9 20.02,-3.6 -35.55,105.5 -60.79,214.2 -74.91,325.5 -6.75,53.2 -11.32,107.1 -14.17,161.2 -19.69,127.9 -34.99,254.6 -24.55,385.7 12.48,156.6 52.49,309.1 98.2,458.9 43.44,100.8 86.28,201.8 129.23,302.7 26.72,88.9 54.57,177.5 85.5,264.9 44.18,124.9 93.89,247.8 147.33,369 0.19,0.8 0.42,1.6 0.61,2.5 67.22,287.9 65.48,625.1 -96.65,883.6 -72.58,115.7 -179.64,200.7 -307.57,241.9 91.42,42 197.62,56.5 298.91,42.7 102.51,24.6 200.77,-8.1 287.28,-63.7 -17.28,20.3 -37.64,38.5 -61.71,54.8 -11.17,7.6 -22.9,14.3 -34.88,20.5 8.84,11 11.35,25.3 -0.62,37.1 -56.03,55.1 -113.85,98.6 -185.05,122.7 124.63,54.5 278.59,28.8 404.57,-10.5 69.59,-21.7 128.8,-56.2 180.17,-100.6 40.55,-22.6 78.7,-49.1 111.41,-83.9 18.65,-19.9 35.53,-41.1 50.96,-63.1 14.38,9.4 25.76,26.2 23.39,40.3 -3.84,22.7 -9.58,45.6 -16.91,68.1 130.99,-110 243,-242.9 319.8,-395.9 103.78,-206.6 141.02,-440 137.97,-669.5 -6.4,-481.9 -165.93,-943.7 -261.58,-1411.5 -28.17,-137.8 -42.19,-275.7 -60.28,-414.8 -15.35,-118 -25.87,-249.9 33.08,-358 5.11,-9.4 20.85,2.6 19.26,10.9 -13.73,70.8 -8.52,141.3 2.08,211.4 64.57,89.9 108.85,193.2 207.08,246.3 -4.51,-23.5 -15.31,-46.9 -24.05,-67.2 -14.88,-34.6 -32.64,-68 -46.85,-102.9 -34.13,-84 -52.72,-177.5 -66.89,-266.7 -30.45,-191.6 -15.62,-384.7 28.86,-572.8 77.72,-328.9 230.38,-641.5 446.33,-901.8 122.07,-147.1 264.62,-274.5 422.32,-382.4 1.43,-0.9 3.07,-1.2 4.68,-1.7 104.83,-172.9 -56.78,-430.1 -228.89,-498.8"
         style="fill:#ffffff;fill-opacity:1;fill-rule:nonzero;stroke:none"
         transform="matrix(0.13333333,0,0,-0.13333333,0,3678.08)" />
      <path
         id="path7"
         d="m 10900.5,9051.6 c -39.6,308.8 -150,630.7 -391.9,839.7 -139.8,120.8 -314.1,183.4 -494.7,212.5 -238.75,38.3 -481.9,14.6 -713.27,-52.8 -149.52,-43.6 -293.56,-104 -432.19,-174.8 27.5,21.9 54.25,44.7 79.93,69.1 8.14,7.8 -2.1,16 -10.27,10.1 -117.35,-85.2 -244.14,-155.2 -366.31,-232.9 -124.45,-79.1 -234.24,-174.6 -335.33,-281.8 -205.84,-218.4 -362.73,-479.6 -501.23,-744.3 -139.34,-266.3 -255.86,-543.7 -358.65,-826 -71.08,-195.1 -109.84,-400 -178.92,-595.9 -62.43,-177 -156.14,-369.8 -342.35,-441.7 -198.62,-76.6 -426.22,-39 -633.83,-53.8 -104.36,-7.5 -210.64,-24.4 -304.97,-72 -105.68,-53.4 -179.93,-137.1 -239.14,-238.2 -76.02,-129.7 -127.49,-270.8 -164.18,-416.1 -41.16,-116.8 -72.65,-237 -96.49,-360.1 -49.23,-254.1 -78.85,-512.2 -106.92,-769.4 -30.38,-278.4 -56.45,-557.2 -87.31,-835.6 -30.79,-277.8 -60.46,-556.5 -48.59,-836.5 4.08,-96.3 11.33,-194 24.65,-290.3 0.88,-10.4 1.36,-20.8 2.37,-31.2 9.94,-103.1 25.55,-207.2 61.44,-304.8 34.38,-93.5 87.25,-179 166.01,-241.4 96.06,-76.2 217.93,-102.6 336.48,-120.4 147.96,-22.3 297.49,-26.2 446.89,-26.5 145.51,-0.2 291.2,-1.3 436.69,1.3 147.89,2.6 296.58,11.1 442.21,38.2 107.02,20 213.12,49.7 307.35,104.9 119.76,-12.8 255.6,-0.1 370.99,33.9 36.65,10.8 72.51,24.2 107.13,40.2 42.98,-12.4 89.59,-9 133.8,-6.5 49.01,2.8 98.17,7.7 146.35,17.3 86.86,17.2 170.79,48.6 244.9,97.5 126.32,83.2 217.59,213.3 263.91,356.4 48.66,150.3 44.45,305.5 6.28,457.5 -40.79,162.5 -121.19,309.1 -263.32,403.4 -73.11,48.5 -155.92,85.9 -242.12,103.4 -30.7,6.3 -64.63,9.3 -97.98,7 -10.15,2.6 -20.14,5.2 -30.71,6.4 3.63,-0.4 3.36,-0.5 -0.11,0 -2.72,0.5 -5.43,1 -8.13,1.5 -5.37,1 -10.7,2.2 -16,3.5 -9.99,2.5 -19.83,5.5 -29.42,9.3 -4.61,1.8 -9.22,3.6 -13.84,5.3 -2.61,1 -5.17,2.1 -7.76,3.2 -5.08,2 0.05,-0.1 -2.97,1.3 -11.59,5.4 -23.96,9.9 -35.99,14.3 -4.16,1.6 -8.38,2.7 -12.58,3.9 -6.31,6.4 -12.74,12.7 -19.13,18.5 -41.21,37.5 -89.09,65.6 -136.32,94.7 -124.7,76.7 -255.16,133.4 -396.74,171.4 -217.31,58.3 -441.85,77.2 -665.39,65.2 -0.01,2.5 -0.26,4.9 -1.14,7.3 -58.22,160.6 -96.68,330.7 -111.02,501 -14.44,171.5 -7.69,350.6 52.15,513.6 62.14,169.2 183.11,295.5 340.89,380.2 184.34,99 390.46,147.9 592.96,194.2 345.08,79 683.92,178.6 1016.48,300.3 322.29,118 637.52,256.9 934.85,428.9 290.88,168.2 565.41,370.5 794.51,617.5 224.6,242.3 401.8,528.1 502.7,843.6 100.1,313 127.1,649.9 85.3,975.5"
         style="fill:#231f20;fill-opacity:1;fill-rule:nonzero;stroke:none"
         transform="matrix(0.13333333,0,0,-0.13333333,0,3678.08)" />
      <path
         id="path8"
         d="m 8039.16,3821.5 c 14.46,1.1 29.5,2.1 44.28,4.4 87.16,-15 171.51,-55.7 244.03,-102.9 124.35,-81 202.4,-202.9 243.91,-343.8 38.63,-131.1 54.7,-268.2 23.11,-402.6 -29.42,-125.3 -94.33,-246.1 -195.43,-328 -62.55,-50.7 -135.2,-83.9 -213.39,-102.4 -49.06,-11.6 -99.13,-17.8 -149.4,-20.7 -14.3,-0.8 -28.64,-1.3 -42.98,-1.9 13.21,9.6 26.19,19.5 38.68,30.1 136.79,116 214.62,281.4 236.6,457.8 36.05,289.4 -51.94,612.4 -265.36,811 11.85,-1.4 23.81,-1.9 35.95,-1"
         style="fill:#ffffff;fill-opacity:1;fill-rule:nonzero;stroke:none"
         transform="matrix(0.13333333,0,0,-0.13333333,0,3678.08)" />
      <path
         id="path9"
         d="m 8051.01,3608.8 c 92.8,-148 132.6,-334.6 131.75,-508.1 -0.77,-156.7 -39.57,-321.5 -143.91,-442.7 -61.4,-71.4 -139.81,-123.6 -227.16,-158 -106.15,-41.8 -215.91,-47.3 -326.69,-56.4 113.63,101.3 174.81,245.8 181.58,400.4 8.21,187 -47.25,374.4 -122.99,543.5 -83.91,187.4 -200.47,375.9 -369.05,498.4 36.21,10.6 72.16,28.3 100.16,38.1 106.91,37.5 232.78,11.5 340.17,-10.3 183.6,-37.2 336.71,-146.3 436.14,-304.9"
         style="fill:#ffffff;fill-opacity:1;fill-rule:nonzero;stroke:none"
         transform="matrix(0.13333333,0,0,-0.13333333,0,3678.08)" />
      <path
         id="path10"
         d="m 10777.1,8187.5 c -82.6,-317.1 -241.9,-608.3 -456,-855.7 -215.2,-248.7 -477.77,-452.1 -758.3,-622.2 -288.68,-175 -597.95,-315.2 -913.7,-433.7 -317.44,-119.1 -643.55,-222.1 -974.37,-296.9 -366.34,-82.8 -811.02,-161.6 -1035.08,-498.7 -190.63,-286.8 -167.39,-663.8 -82.21,-982.1 19.33,-72.2 42.22,-142.9 67.34,-213.2 -63.89,-5.2 -127.64,-12.7 -191.05,-22.6 -54.06,-8.5 -107.73,-19.6 -160.93,-32.6 -48.41,-23.2 -94.18,-52.1 -136.39,-84.8 0.35,0 0.71,0.1 1.06,0.2 71.32,15.1 143.21,28.6 215.22,39.8 146.15,22.6 292.26,38.2 440.37,37 289.15,-2.4 596.83,-51.6 849.77,-199.2 21.17,-12.4 42.34,-25.1 63.41,-37.9 -31.46,7.6 -63.38,13.5 -95.43,19.1 -71.92,12.4 -144.92,22 -218,16.3 -57.57,-4.5 -110.33,-19.9 -161.88,-45.2 -32.53,-16 -89,-54.3 -127.12,-43.7 -5.67,3.2 -11.18,6.7 -16.96,9.7 -184.55,98 -403.94,97.4 -602.49,46 -200.57,-51.9 -398.16,-156.1 -531.5,-317.9 -29.84,-36.2 -56.27,-74.8 -78.06,-116.3 -5.26,-10.1 -4.09,-17.1 -0.08,-21.7 29.52,39.4 65.64,74.2 103.25,105.2 11.97,9.8 24.44,19.1 36.88,28.4 95.84,96.9 219.63,167.6 345.61,215.4 175.17,66.5 378.99,93.4 560.46,36.4 218.95,-68.7 372.86,-265.2 478.22,-459.4 86.38,-159.3 152.85,-336.8 171.88,-517.9 15.93,-151.7 -9.05,-316.1 -120.8,-428.1 -62.88,-62.9 -146.29,-102.4 -231.18,-126.1 -132.14,-36.9 -269.39,-52.7 -406.1,-59.6 -137.05,-7 -274.32,-5.3 -411.49,-5.3 -138.68,-0.1 -277.5,-2.3 -415.99,6.2 -128.91,7.9 -267.55,19.8 -388.31,68.9 -79.58,32.4 -144.24,89.3 -190.84,160.4 -17.86,30.7 -33.97,61.6 -48.08,92.9 -24.56,60.9 -39.89,125.7 -50.89,190.1 -18.5,108.1 -26.49,218.4 -26.75,328.1 -12.57,135.5 -12.71,272 -6.91,409.2 10.47,248 20.97,496.1 37.97,743.8 16.43,239.3 41.17,477.5 72.03,715.3 28.17,217.2 61.54,434.1 112.95,647.1 23.1,95.7 50.16,190.8 82.09,284.1 23.87,113.3 55.72,224.8 100.37,332.1 43.88,105.5 100.52,224.5 192.23,296.9 79.07,62.4 177.93,87.2 276.23,98.7 212.66,25 430.84,-10.9 640.74,41.1 205.38,50.9 343.13,198.6 432.14,384.8 89.22,186.5 131.88,390 188.96,587.6 34,117.7 78.16,232.2 122.58,346.3 53.63,137.7 110.76,274.1 173.14,408.1 124.44,267.3 268.25,532.2 444.03,769.5 87.9,118.7 187.18,230.4 296.71,329.6 13.29,12 26.82,23.7 40.55,35.2 20.53,14.7 41.26,29 62.21,42.9 158.86,105.5 328.64,194.4 505.15,266.5 218.74,89.3 448.09,149.1 685.48,151.7 204.12,2.3 424.26,-33 601.46,-139.7 272.6,-164 409.8,-471.1 468,-772.4 60.7,-314.1 49,-648.3 -31.6,-957.7"
         style="fill:#ffffff;fill-opacity:1;fill-rule:nonzero;stroke:none"
         transform="matrix(0.13333333,0,0,-0.13333333,0,3678.08)" />
      <path
         id="path11"
         d="m 13173.1,9732.1 c -34.1,244.7 -97.3,486.3 -167.7,722.8 -144.4,484.6 -335.3,953.3 -499.9,1431.1 -83.5,242.5 -115.6,493 -119.2,748.8 -3.4,248.7 2.7,502.3 33.4,749.2 16.3,131.3 50.5,259.3 80.4,387.9 21.5,92.5 96.5,283.6 17.5,364.7 -38.6,39.7 -136.5,52.7 -191.5,63 -170.7,32 -343.2,53.3 -516.3,67.4 -192,15.6 -384.6,22.8 -577.2,28.8 -184.5,5.7 -369.1,13.7 -553.8,15.2 -372.2,3 -745.59,-19.1 -1113.24,-78.9 -185.31,-30.1 -369.12,-70.1 -549.56,-122.1 -111.79,-32.2 -225.07,-63 -332.66,-107.7 -118.36,-49.1 -248.6,-122.7 -302.54,-245.5 -33.69,-76.7 -29.95,-171.4 -28.28,-253.3 1.28,-63.2 4.97,-126.3 8.67,-189.4 -26.06,-273.1 -45.99,-546.9 -192.8,-789.3 -152.71,-252.1 -406.61,-417.9 -661.38,-553.7 -129.37,-68.9 -261.77,-131.9 -392.27,-198.7 -126.25,-64.5 -252.4,-128.6 -381.6,-187.2 -263.72,-119.5 -533.54,-225.4 -803.92,-328.8 -543.41,-207.8 -1093.12,-408.2 -1599.27,-698.8 -288.3,-165.5 -565.38,-364.8 -800.94,-602.5 -25.34,-15.6 -48.68,-34.6 -70.62,-55.5 -31.01,-47.5 -63.87,-93.8 -96.77,-140 -56.31,-79.1 -112.48,-158.7 -157.83,-244.7 -49.76,-94.4 -83.81,-196.9 -111.63,-299.6 -2.4,-8.9 -4.43,-17.9 -6.73,-26.8 4.45,9.8 8.56,19.8 13.09,29.6 -8.52,-24.4 -16.5,-48.9 -24.12,-73.6 -34.08,-144.1 -54.55,-291.1 -69.61,-438.5 -4.04,-293.3 70.7,-587.4 193.61,-853.3 326.66,-706.7 985.39,-1230.3 1688.65,-1532.8 443.27,-190.6 901.29,-349.4 1374.42,-447.3 492.49,-101.9 996.13,-133.9 1498.25,-130.8 510.53,3.1 1026.88,22 1531.77,101.5 479.13,75.4 948.41,200.8 1413.41,337 214.5,62.8 428.7,132.3 630.1,230.4 203.3,99.1 390.5,232.2 569.2,370.1 177.3,136.6 337.5,288.2 492.4,449.3 136.4,142 284.7,279.8 387.8,449.4 26.8,44.2 49.5,90.4 67.1,138.5 81.9,164.3 144.7,339.3 197.5,514.1 68.4,226.7 115.4,460.7 137.6,696.5 22.1,234 19,470.6 -13.5,703.5"
         style="fill:#231f20;fill-opacity:1;fill-rule:nonzero;stroke:none"
         transform="matrix(0.13333333,0,0,-0.13333333,0,3678.08)" />
      <path
         id="path12"
         d="m 13122.1,9227.8 c -11.6,-438.8 -116.9,-867.9 -278.3,-1274.4 -16.8,-4.5 -33.3,-15.9 -36.3,-30.3 -39.6,-190.9 -175.5,-347.6 -305.4,-485.8 -138.3,-147 -277.4,-295.7 -428.3,-429.8 -165.9,-147.6 -345.9,-279.1 -531.1,-401.4 -181.8,-120 -382.5,-205.1 -588.1,-275.1 -206.1,-70.1 -417.1,-126.7 -626.9,-184.6 -231.6,-64 -465,-121.8 -700.51,-169.5 -481.66,-97.6 -966.08,-133.8 -1456.42,-150.9 -500.35,-17.5 -1003.24,-11.9 -1499.95,56.6 -457.36,63 -904.53,186.4 -1336.43,348.1 -377.91,141.5 -743.97,304.8 -1074.75,538.3 -310.02,219 -588.24,487.4 -799.71,803.6 -209.2,312.9 -348.94,675.3 -371.01,1053 -13.08,224 31,443.3 109.06,652.6 33,88.5 72.36,174.4 109.11,261.3 15.94,37.8 31.88,75.7 48.73,113.1 65.9,86 138.02,167.3 213.79,244.7 202.53,206.8 434.14,382.6 680.53,533.8 496.72,305 1047.11,508.7 1589.05,716.8 271.12,104.1 542.62,208.1 807.23,328.1 263.58,119.5 519.39,256.8 777.11,388.3 256.8,131.1 517.94,279.1 704.42,504.4 214.91,259.6 286.25,590.4 281.36,921.1 -0.21,14.8 -0.53,29.5 -0.84,44.3 3.44,45.2 5.97,90.6 8.77,135.9 4.95,80.2 3.37,170.4 27.65,247.6 31.14,98.9 127.95,157.1 216.81,198.1 96.19,44.3 198.06,72.9 299.39,102.8 163.27,48 328.42,88.1 495.84,118.8 350.72,64.4 707.37,91.7 1063.77,94.6 175,1.5 349.7,-5 524.6,-10.3 178.8,-5.4 357.7,-10.2 536.3,-20.1 203.4,-11.3 407,-28.6 608,-62.4 69.9,-11.7 143.5,-20.6 209.7,-46.9 31.1,-12.3 53,-29.3 59.9,-63.6 1.3,-6.5 2.3,-13.1 3.3,-19.6 -31.5,-132.5 -60.3,-265.6 -84.5,-399 -45.5,-250.3 -61.4,-500.7 -68.4,-754.6 -6.9,-249.9 -2.9,-502.5 47.5,-748.3 25.6,-124.7 67,-244 109.3,-363.8 42.2,-119.3 85.6,-238.2 129.2,-357 87,-237.1 174.7,-474 254,-713.8 154.2,-466.8 285.6,-949.2 272.5,-1444.7"
         style="fill:#ffffff;fill-opacity:1;fill-rule:nonzero;stroke:none"
         transform="matrix(0.13333333,0,0,-0.13333333,0,3678.08)" />
      <path
         id="path13"
         d="m 9456.57,2371.3 c -6.85,-0.5 -13.72,-0.9 -20.55,-1.3 -16.39,15 -33.24,29.6 -51.07,43.2 -24.39,18.5 -50.43,34.8 -77.2,49.9 52.73,-26.8 100.58,-59.1 148.82,-91.8"
         style="fill:#231f20;fill-opacity:1;fill-rule:nonzero;stroke:none"
         transform="matrix(0.13333333,0,0,-0.13333333,0,3678.08)" />
      <path
         id="path14"
         d="m 10449.4,1809.4 c -94.9,95 -206.8,176.9 -339.1,209 -89.5,21.7 -182.22,24.6 -274.43,21.1 -52.82,46.2 -114.28,83.3 -171.22,123.9 -62.52,44.5 -129.64,83 -198.83,116.2 -139.32,66.7 -286.32,113.4 -437.41,145 -69.69,14.6 -140.15,25.9 -210.94,34.7 -152.25,306.6 -288.83,620.4 -391.66,947.4 -107.57,342 -181.94,696 -219.7,1052.5 -37.15,351 -36.49,706.9 8.9,1057.1 49.86,384.5 162.12,756 283.91,1123 62.05,187 126.41,373.2 186.04,561 59.1,186.1 115.26,372.8 142.26,566.7 29.08,208.6 29.37,420 5.94,628.9 -2.8,-20.3 -5.82,-40.6 -9.3,-60.7 -21.08,-122 -54.64,-242 -99.97,-357.1 -4.37,-11.1 -24.93,-15.4 -27.09,0 -25.13,178.7 -48.64,358.4 -94.13,533.3 -40.63,156.3 -100.02,308.3 -190.76,442.6 -91.87,136 -215.88,257.6 -371.95,315.9 -292.28,109.1 -601.96,-31.7 -851.75,-181.3 -10.08,-6 -24.74,4.1 -20.65,15.9 28.42,81.6 67.62,159.1 115.39,231.1 100.57,151.5 236.32,282.1 391.21,382.1 -19.05,-6.1 -37.94,-13.2 -56.81,-21.6 -58.05,-26.1 -113.45,-57.2 -166.74,-91.9 -107.43,-69.9 -207.39,-149.8 -303.7,-234.2 -198.66,-174 -339.37,-404.6 -441.87,-645.8 -111.11,-261.5 -182.38,-539.2 -220.77,-820.4 -38.38,-281 -29.88,-560.3 -14.23,-842.6 8.24,-148.4 17.33,-296.9 35.74,-444.5 9.55,-76.6 25.13,-151.2 40.31,-226.8 1.31,-6.4 2.75,-13 4.1,-19.5 48.55,-454.2 129.61,-903 226.18,-1350 112.51,-520.8 237.98,-1038.6 337.64,-1562.2 38.74,-203.4 73.82,-407.8 104.08,-612.8 0.36,-4.5 0.71,-8.9 1.08,-13.3 7.24,-86.7 15.6,-172.6 18.05,-259.6 4.85,-172.2 -11.54,-343.7 -34.6,-514.2 -34.75,-257 -82.26,-512.5 -101.69,-771.3 -30.13,-401.199 9.51,-886.496 379.01,-1128.797 123.42,-80.9999 271.7,-131.4999 417.78,-149.19909 72.97,-8.902347 148.25,-11.30079 222.2,-6.70313 2.32,0 4.65,-0.09765 6.97,0 192.61,2.00391 394.63,36.70312 566.08,128.60122 114.45,-55.6012 247.49,-62.6012 372.81,-56.1989 134.61,6.6992 273.53,27.7969 399.97,75.8989 18.43,7 36.37,14.902 54.08,23.203 96.19,-29.305 206.12,-19.703 303.84,-8.504 107.55,12.402 214.63,34.402 317.03,69.902 192.7,66.797 360.8,198.098 462.7,375.801 212.5,370.5 147.9,896.096 -154,1198.396"
         style="fill:#231f20;fill-opacity:1;fill-rule:nonzero;stroke:none"
         transform="matrix(0.13333333,0,0,-0.13333333,0,3678.08)" />
      <path
         id="path15"
         d="M 9138.64,147.402 C 9015.68,134.703 8881.52,133.805 8761.5,172 c 1.69,1.102 3.45,2.102 5.14,3.301 187.4,126.801 317.61,324.402 373.71,542.5 114.18,443.899 -79.54,946.299 -415.03,1246.199 -82.55,73.8 -176.25,135 -278.6,177.5 -134.38,56 -284.11,66.2 -426.31,37.9 -127.27,-25.2 -245.3,-77.2 -343.71,-162 -85.15,-73.4 -164.25,-168.9 -197.13,-278.1 -14.07,-46.7 -18.97,-94.4 -9.69,-142.6 3.23,-16.7 31.13,-2.8 31.15,10.1 0.18,108.6 66.57,209.4 138.08,286.3 72.11,77.6 155.7,136.1 254.86,173.4 129.19,48.5 272.46,61.6 406.82,27.5 105.63,-26.8 203.43,-81.2 289.93,-146.6 329.6,-249.3 532.27,-702.8 491.64,-1115.099 C 9061.73,623.004 8967.88,424.801 8810.8,283.602 8681,167 8514.77,109.801 8344.58,84.7031 8140.82,20.1016 7907.91,42.9023 7712.88,121.504 c -116.08,46.699 -220.4,115.398 -305.63,207.301 -86.62,93.398 -149.4,205.898 -188.59,326.898 -81.01,250 -66.54,522.097 -32.96,779.097 14.99,114.7 34.67,228.7 54.45,342.7 10.77,74.8 21.73,149.6 32.27,224.5 3.93,27.9 7.69,55.8 11.31,83.7 8.62,85 14.46,170.3 16.88,256.1 6.34,225 -6.81,449.7 -30.24,673.3 -11.92,78.6 -24.32,157.2 -37.59,235.6 -88.77,524.4 -210.42,1042 -326.02,1561 -114.47,513.9 -221.3,1030.7 -276.12,1554.9 -21.81,208.5 -39.05,418.8 -45.35,629.3 -2.65,28.1 -5.31,56.3 -7.54,84.5 -11.69,147.3 -20.62,295.6 -19.44,443.4 1.12,142 11.47,283.9 30.9,424.6 3.85,27.9 8.39,55.8 13,83.6 -12.55,-51.8 -23.83,-103.7 -33.71,-155.8 29.9,239.5 84.11,475.9 166.8,703 58.06,159.4 130.19,316.7 223.4,459.6 67.75,106.7 145.94,206.9 232.97,297 133.54,138.2 298.17,261.5 486.13,311.4 110.74,50.8 235.15,84.9 357.16,61.3 109.2,-21.2 205.09,-82.7 281.4,-162.2 165.11,-172.2 258.8,-406.2 328.24,-630.6 105.44,-340.8 154.67,-699.4 121.89,-1055.6 -18.13,-196.8 -66.59,-385.1 -124.64,-573.5 -57.31,-186 -120.28,-370.1 -182.08,-554.6 -120.69,-360.4 -237.17,-723.9 -298.43,-1099.8 -55.39,-339.9 -66.72,-686.4 -42.02,-1029.6 25.04,-348.2 86.18,-692.5 182.71,-1027.9 94.37,-327.9 218.18,-651.6 382.8,-950.9 29.85,-54.3 61.41,-107.4 94.01,-159.9 -195.52,21.2 -393.69,20.2 -588.76,-3.3 -15.86,-4.3 -31.77,-8.5 -47.63,-12.9 -108.52,-30.1 -216.22,-62.3 -322.54,-99.4 -20.57,-7.2 -41.18,-14.5 -61.58,-22.4 88.41,17.3 176.69,35.6 266.07,48.3 151.83,21.6 305.03,31.7 458.39,30.5 304.46,-2.5 600.03,-60.9 884.66,-168 52.98,-20 105.13,-42.1 156.67,-65.6 -86.33,34.2 -179.05,53.3 -270.62,56.5 -159.1,5.5 -307.93,-43.9 -426.15,-151.1 -13.63,-12.3 3.46,-26 16.76,-16.4 214.02,154.4 524.54,125.9 740.59,-8.6 220.27,-137 329.28,-392.4 385.48,-635.6 97.12,-420.697 -30.33,-957.095 -441.87,-1167.998 -120.37,-61.8 -256.14,-86.597 -389.67,-100.5"
         style="fill:#ffffff;fill-opacity:1;fill-rule:nonzero;stroke:none"
         transform="matrix(0.13333333,0,0,-0.13333333,0,3678.08)" />
      <path
         id="path16"
         d="M 10575.3,707.203 C 10504.1,539.602 10372,406.004 10206.8,330 c -101.2,-46.496 -211.62,-71.496 -320.85,-91.195 -91.78,-16.504 -187.51,-28.004 -281.05,-19.004 163.7,101.203 289.8,256.504 369.96,432.699 100.44,220.801 130.54,475.1 89.54,713.8 -37.2,216.1 -117.29,446 -266.43,613.1 69.23,-6.4 138.93,-7.4 208.33,-17.1 117.4,-16.4 217.1,-69.4 307.5,-144.4 168.7,-139.7 278.5,-333 315.4,-548.5 32.2,-187.7 21.2,-385.697 -53.9,-562.197"
         style="fill:#ffffff;fill-opacity:1;fill-rule:nonzero;stroke:none"
         transform="matrix(0.13333333,0,0,-0.13333333,0,3678.08)" />
      <path
         id="path17"
         d="m 5729.29,8441.8 c -19.71,153.7 -57,310.6 -119.24,455.2 0.21,-1.6 0.5,-3.3 0.7,-4.9 15.74,-130.4 9.8,-266.7 -32.34,-391.9 -3.5,-10.4 -20.23,-15.1 -25.68,-3.3 -8.37,18.1 -17.11,36.1 -26.32,53.9 -70.95,136.7 -167.91,258.6 -284.62,359 -113.96,98.1 -245.98,175.1 -386.04,229.4 -141.56,54.9 -291.53,87.7 -442.9,98.8 -152.89,11.2 -307.39,0.9 -457.3,-31.2 -150.07,-32.2 -295.12,-86.1 -428.78,-161.7 -10.86,-6.1 -23.5,4 -20.64,15.9 19.22,79.8 74.47,146.3 135.28,200.6 -79.7,-50.5 -161.15,-98.2 -240.82,-148.8 -124.46,-79.1 -234.24,-174.6 -335.33,-281.9 -205.84,-218.3 -362.74,-479.5 -501.25,-744.2 -139.33,-266.3 -255.84,-543.7 -358.63,-826 -71.08,-195.2 -109.84,-400.1 -178.92,-595.9 -62.44,-177 -156.15,-369.8 -342.35,-441.7 -198.63,-76.6 -426.22,-39 -633.83,-53.8 -104.362,-7.5 -210.639,-24.5 -304.975,-72.1 C 639.625,6043.9 565.379,5960.1 506.172,5859.1 430.152,5729.4 378.668,5588.3 341.984,5443 300.832,5326.2 269.336,5205.9 245.492,5082.8 196.262,4828.7 166.648,4570.7 138.586,4313.5 108.199,4035.1 82.125,3756.2 51.2695,3477.8 20.4766,3200 -9.19141,2921.3 2.67578,2641.4 6.76563,2545 14.0039,2447.4 27.3164,2351.1 c 0.8867,-10.4 1.375,-20.9 2.3789,-31.3 9.9453,-103.1 25.5508,-207.2 61.4453,-304.8 34.3794,-93.5 87.2464,-179 166.0074,-241.4 96.055,-76.1 217.926,-102.5 336.477,-120.3 147.965,-22.3 297.484,-26.3 446.885,-26.5 145.52,-0.2 291.21,-1.3 436.7,1.3 147.88,2.6 296.58,11 442.21,38.2 107.02,20 213.12,49.7 307.34,104.9 119.77,-12.8 255.6,-0.1 370.99,33.9 36.66,10.8 72.52,24.2 107.14,40.2 42.98,-12.5 89.59,-9 133.8,-6.5 49.01,2.7 98.17,7.7 146.35,17.2 86.86,17.3 170.79,48.7 244.9,97.5 126.32,83.3 217.59,213.4 263.91,356.5 48.65,150.3 44.45,305.5 6.28,457.5 -40.79,162.5 -121.19,309.1 -263.32,403.3 -73.11,48.5 -155.93,85.9 -242.13,103.5 -30.7,6.3 -64.63,9.3 -97.98,7 -10.14,2.6 -20.13,5.1 -30.7,6.4 3.63,-0.4 3.36,-0.6 -0.11,0 -2.72,0.5 -5.43,0.9 -8.13,1.4 -5.37,1.1 -10.7,2.2 -16,3.5 -9.99,2.5 -19.83,5.6 -29.43,9.4 -4.6,1.8 -9.22,3.5 -13.83,5.3 -2.61,1 -5.17,2.1 -7.76,3.1 -5.08,2.1 0.05,-0.1 -2.98,1.4 -11.58,5.4 -23.96,9.8 -35.97,14.3 -4.17,1.5 -8.39,2.7 -12.59,3.9 -6.31,6.4 -12.73,12.6 -19.14,18.5 -41.2,37.5 -89.08,65.6 -136.31,94.7 -124.71,76.7 -255.16,133.4 -396.74,171.4 -217.31,58.2 -441.85,77.1 -665.39,65.2 -0.01,2.4 -0.26,4.8 -1.14,7.3 -58.22,160.5 -96.68,330.7 -111.02,500.9 -14.44,171.6 -7.69,350.6 52.15,513.6 62.14,169.3 183.11,295.6 340.89,380.3 184.34,99 390.46,147.8 592.96,194.2 345.08,79 683.93,178.6 1016.48,300.3 322.29,117.9 637.52,256.9 934.85,428.9 290.88,168.2 565.46,370.5 794.5,617.5 224.65,242.3 401.78,528.1 502.7,843.6 100.1,313 127.08,649.8 85.3,975.4"
         style="fill:#231f20;fill-opacity:1;fill-rule:nonzero;stroke:none"
         transform="matrix(0.13333333,0,0,-0.13333333,0,3678.08)" />
      <path
         id="path18"
         d="m 2867.96,3211.8 c 14.46,1.1 29.5,2.1 44.27,4.4 87.17,-15 171.51,-55.7 244.04,-103 124.35,-81 202.4,-202.9 243.91,-343.7 38.63,-131.2 54.69,-268.2 23.11,-402.7 -29.42,-125.3 -94.33,-246.1 -195.43,-327.9 -62.56,-50.7 -135.2,-83.9 -213.4,-102.4 -49.05,-11.6 -99.12,-17.8 -149.39,-20.7 -14.31,-0.9 -28.65,-1.4 -42.98,-1.9 13.21,9.6 26.19,19.5 38.68,30.1 136.79,115.9 214.62,281.4 236.59,457.8 36.05,289.4 -51.93,612.4 -265.36,811 11.87,-1.5 23.82,-2 35.96,-1"
         style="fill:#ffffff;fill-opacity:1;fill-rule:nonzero;stroke:none"
         transform="matrix(0.13333333,0,0,-0.13333333,0,3678.08)" />
      <path
         id="path19"
         d="m 2879.81,2999.1 c 92.8,-148 132.6,-334.6 131.75,-508.1 -0.77,-156.7 -39.57,-321.5 -143.91,-442.8 -61.41,-71.3 -139.81,-123.5 -227.16,-157.9 -106.15,-41.8 -215.91,-47.3 -326.69,-56.4 113.63,101.3 174.8,245.8 181.58,400.3 8.21,187.1 -47.25,374.4 -122.99,543.5 -83.91,187.4 -200.47,375.9 -369.05,498.5 36.21,10.6 72.16,28.3 100.16,38.1 106.91,37.4 232.78,11.5 340.17,-10.3 183.6,-37.3 336.71,-146.3 436.14,-304.9"
         style="fill:#ffffff;fill-opacity:1;fill-rule:nonzero;stroke:none"
         transform="matrix(0.13333333,0,0,-0.13333333,0,3678.08)" />
      <path
         id="path20"
         d="m 5605.9,7577.7 c -82.58,-317 -241.89,-608.3 -455.96,-855.6 -215.29,-248.8 -477.82,-452.1 -758.34,-622.2 -288.68,-175 -597.95,-315.2 -913.69,-433.7 -317.46,-119.1 -643.56,-222.2 -974.38,-296.9 -366.34,-82.8 -811.02,-161.6 -1035.09,-498.7 -190.63,-286.8 -167.38,-663.8 -82.2,-982.1 19.32,-72.2 42.22,-142.9 67.33,-213.2 -63.9,-5.2 -127.64,-12.7 -191.04,-22.7 -54.06,-8.4 -107.73,-19.5 -160.93,-32.5 -48.42,-23.2 -94.17,-52.1 -136.393,-84.8 0.356,0 0.711,0.1 1.059,0.2 71.314,15 143.204,28.5 215.224,39.7 146.15,22.7 292.26,38.3 440.36,37 289.16,-2.3 596.84,-51.5 849.78,-199.1 21.16,-12.4 42.34,-25.1 63.41,-38 -31.47,7.7 -63.38,13.6 -95.43,19.1 -71.92,12.5 -144.92,22.1 -218.01,16.4 -57.56,-4.5 -110.32,-19.9 -161.88,-45.2 -32.52,-16 -89,-54.4 -127.11,-43.7 -5.68,3.2 -11.18,6.6 -16.96,9.7 -184.55,97.9 -403.94,97.4 -602.49,46 -200.58,-52 -398.164,-156.1 -531.504,-317.9 -29.84,-36.2 -56.269,-74.8 -78.054,-116.4 -5.262,-10 -4.09,-17 -0.086,-21.6 29.531,39.4 65.644,74.2 103.257,105.2 11.965,9.8 24.426,19.1 36.879,28.4 95.836,96.9 219.628,167.6 345.608,215.4 175.17,66.5 378.99,93.3 560.46,36.4 218.95,-68.8 372.86,-265.2 478.22,-459.5 86.38,-159.2 152.85,-336.8 171.87,-517.8 15.94,-151.7 -9.04,-316.2 -120.79,-428.1 -62.88,-63 -146.29,-102.4 -231.18,-126.1 -132.16,-36.9 -269.39,-52.7 -406.1,-59.6 -137.05,-7 -274.32,-5.3 -411.49,-5.4 -138.68,-0.1 -277.5,-2.2 -416.008,6.3 -128.894,7.8 -267.531,19.8 -388.293,68.9 -79.578,32.4 -144.238,89.2 -190.836,160.3 -17.867,30.8 -33.98,61.6 -48.082,93 -24.558,60.8 -39.886,125.7 -50.898,190 -18.496,108.1 -26.492,218.5 -26.742,328.2 -12.5785,135.5 -12.7113,272 -6.922,409.1 10.48,248.1 20.976,496.2 37.98,743.9 16.434,239.2 41.168,477.5 72.028,715.3 28.168,217.1 61.539,434.1 112.949,647.1 23.105,95.7 50.16,190.7 82.09,284 23.871,113.4 55.718,224.9 100.375,332.2 43.879,105.4 100.507,224.5 192.23,296.9 79.067,62.3 177.922,87.2 276.227,98.7 212.662,25 430.842,-10.9 640.742,41.1 205.38,50.9 343.12,198.6 432.14,384.7 89.22,186.6 131.88,390.1 188.95,587.7 34,117.7 78.16,232.2 122.59,346.3 53.63,137.7 110.76,274.1 173.14,408.1 124.44,267.3 268.24,532.2 444.02,769.5 87.91,118.7 187.19,230.4 296.71,329.5 13.29,12.1 26.83,23.8 40.56,35.3 20.52,14.7 41.26,29 62.21,42.9 158.85,105.5 328.64,194.3 505.15,266.4 218.73,89.3 448.09,149.2 685.48,151.8 204.12,2.3 424.21,-33 601.5,-139.7 272.56,-164 409.74,-471.1 467.99,-772.5 60.7,-314.1 48.96,-648.2 -31.63,-957.7"
         style="fill:#ffffff;fill-opacity:1;fill-rule:nonzero;stroke:none"
         transform="matrix(0.13333333,0,0,-0.13333333,0,3678.08)" />
      <path
         id="path21"
         d="m 12630,13634.2 c -4.4,124.6 -14.9,249 -29.5,372.8 -30.3,256.5 -78.2,510.4 -120.5,765.1 -7,41.8 -10.2,84.3 -17.7,126 -5.3,30.3 -13.5,66.1 -38.3,86.9 -62.9,53 -159.8,-20.9 -207.7,-60.8 -42.4,-35.1 -80.4,-75.6 -125.1,-108 -51.3,-37.1 -104.6,-71.9 -157.8,-106.3 -99.3,-64.2 -201,-125.8 -307.9,-176.8 -183.4,-87.5 -378.7,-148.6 -577,-191.9 -411.5,-89.7 -839.6,-108.4 -1258.71,-72.9 -215,18.2 -429.52,50.1 -635.71,115.2 -111.02,35.1 -219.51,78.9 -323.06,132.2 -99.98,51.4 -203.38,108.4 -287.02,184.3 -77.89,70.7 -140.26,156.4 -219.05,226.2 -11.09,9.9 -27.74,4.2 -39.64,-4.5 -1.93,10.9 -3.47,21.9 -5.64,32.7 -1.49,7.5 -13.73,1.1 -13.02,-5.2 1.64,-14.7 2.44,-29.5 3.67,-44.3 -37.23,-56.3 -42.34,-121.9 -40.7,-188.2 -12.65,-106.6 0.29,-219.9 4.37,-322 3.19,-80.1 0.31,-161.2 -1.15,-242.2 -22.55,-231.1 -36.61,-461.8 9.04,-691 81.52,-409.2 351.2,-753.6 696.39,-978.5 325.05,-211.8 707.65,-323.3 1091.53,-361.2 386.6,-38.2 783.4,-4.2 1157.5,100.5 407.3,113.9 815.7,299.2 1124.8,593.4 146.6,139.5 260.2,301.1 299.9,502.4 20.6,104.1 21.8,210.5 18,316.1"
         style="fill:#231f20;fill-opacity:1;fill-rule:nonzero;stroke:none"
         transform="matrix(0.13333333,0,0,-0.13333333,0,3678.08)" />
      <path
         id="path22"
         d="m 12479.2,13102.9 c -98.8,-185.6 -273.4,-332.5 -444.7,-449.1 -179.2,-122.1 -376.2,-215.4 -578.8,-291.5 -359.5,-134.9 -739.3,-204.2 -1123.5,-201.7 -384.03,2.4 -772.32,74 -1120.42,239.8 -358.32,170.8 -667.92,449.7 -827.47,818 -76.83,177.3 -108.7,363 -114.08,553.4 11.94,-8.1 35.97,8.3 34.66,24.2 -15.7,188.9 0.57,378.1 -4.13,567.1 5.89,83.5 10.52,167 11.11,250.8 0.5,70.9 -3.93,141.5 -12.29,211.8 1.66,8.2 3.8,16.3 6.34,24.2 63.72,-62.6 119.78,-132.6 185.88,-192.9 83.59,-76.2 186.9,-132.9 287.09,-184.2 199.05,-101.9 411.86,-169.7 631.62,-209.6 390.62,-70.9 795.99,-79.7 1190.59,-41.1 394.7,38.7 795.7,129.3 1145.4,321.9 109.8,60.5 215.4,128.4 318.8,198.9 44.8,30.6 86.6,62.4 127.1,98.6 39,35 78.7,74.7 127.1,96.5 33.2,14.9 57.9,13 72.1,-22.7 13.9,-34.7 15.2,-75.6 19.8,-112.3 14.5,-116.4 38.5,-232.1 58.1,-347.8 42,-247.3 80.6,-495.7 95.5,-746.2 12.2,-205.5 13.6,-419.6 -85.8,-606.1"
         style="fill:#ffffff;fill-opacity:1;fill-rule:nonzero;stroke:none"
         transform="matrix(0.13333333,0,0,-0.13333333,0,3678.08)" />
      <path
         id="path23"
         d="m 10595.2,11865 c 23.1,-157.2 113.5,-301 237.1,-399.1 67.6,-53.6 146.6,-97.2 227.3,-127.5 60.8,-22.9 132.4,-42 199.4,-35.3 87.2,-8.5 177,1.5 263.2,32.9 120,43.8 227.3,126.5 291.7,237.7 67,115.5 79.9,250.8 46.5,379.1 -17.2,66 -45.9,126.6 -83.7,181 2.2,2.7 2.8,6.6 -0.2,11.7 -2.4,4.1 -4.9,8.2 -7.4,12.3 4,-2.8 7.6,1.2 4.5,4.9 -8.9,10.5 -18,20.8 -27.4,31 -30.1,44.2 -65.3,83.2 -114.4,109.9 -5.1,2.8 -10.6,5.2 -15.8,7.8 -17.6,13.1 -35.8,25.2 -54.3,36.8 1,45.4 -3.1,90.5 -12.8,132.5 -19.5,83.4 -56.3,168.3 -127,220.8 -55.9,41.3 -145.1,61.5 -213.6,35.2 -74.3,9.6 -180.1,-75.1 -148.3,-154.2 14.6,-36.1 57.4,-40.6 90.7,-47.2 18.1,-3.5 32.1,-11.3 43.4,-21.9 4.7,-7.2 9.1,-14.7 12.6,-23.3 4.6,-11.5 8.9,-23.1 12.7,-34.9 -167.1,5.3 -346,-35.1 -470.2,-152.1 -118.4,-111.6 -177.7,-276.7 -154,-438.1"
         style="fill:#231f20;fill-opacity:1;fill-rule:nonzero;stroke:none"
         transform="matrix(0.13333333,0,0,-0.13333333,0,3678.08)" />
      <path
         id="path24"
         d="m 11500.7,12278.9 c -1,-3.5 -2.7,-5.9 -4.8,-7.6 -9.5,-57.8 -27.7,-114 -58.5,-160.6 -24.1,-36.5 -59.3,-66.5 -104.7,-68.7 -56.9,-2.8 -130.7,28.2 -118.9,94.6 3.5,19.7 10.2,38.3 17.9,56.6 19.9,7.2 27.4,26 35.4,44.2 8,18.3 13.5,37.7 17.9,57.2 8.1,36.3 13.1,76 6.9,113 -3.7,21.8 -11.1,43.3 -21,63.5 0,0.3 0,0.6 0,0.9 -1,2.8 -1.8,5.8 -2.9,8.4 -23.7,58.3 -71.7,98.3 -135.6,99.7 -25.1,0.6 -39.6,0.9 -33.3,31.7 3.2,15.7 11.7,29.9 21.9,42.1 12.8,15.4 28.5,27.1 45.9,35.1 2.8,-1.2 5.9,-1.6 8.5,-0.8 102.1,32.8 207.3,22.5 267.7,-74.3 35.8,-57.5 55.8,-126.3 60,-193.7 0.2,-3.1 0.2,-6.4 0.3,-9.6 13,-43 8.6,-88.8 -2.7,-131.7"
         style="fill:#ffffff;fill-opacity:1;fill-rule:nonzero;stroke:none"
         transform="matrix(0.13333333,0,0,-0.13333333,0,3678.08)" />
      <path
         id="path25"
         d="m 10808.2,11663.2 c -49.4,112.4 -57.8,239.8 -23.4,357.8 34,116.8 136.2,201.5 241,254.9 63.9,32.5 130.4,53.8 198.6,62.8 -9.2,-35.7 -24.9,-70.1 -41.1,-106.8 -28.1,-63.5 -45.9,-133.4 12.9,-185.7 49.5,-44 131.4,-67.3 195.8,-47 55.6,17.5 94,65.9 117.8,116.9 24.6,52.6 40.8,112.8 48,174.1 33.2,-19.2 64.8,-41.1 93.4,-65.7 111.8,-96.2 180.5,-238.2 184.6,-386 6.8,-244.4 -186.7,-439.3 -416.9,-488.3 -33.7,-7.2 -67.4,-10.8 -100.7,-11.7 -4.9,5.5 -12,9.5 -18.2,8.4 -17.5,-3.2 -34.7,-4.6 -51.8,-5.3 -189.6,20.1 -359.7,139 -440,321.6"
         style="fill:#ffffff;fill-opacity:1;fill-rule:nonzero;stroke:none"
         transform="matrix(0.13333333,0,0,-0.13333333,0,3678.08)" />
      <path
         id="path26"
         d="m 10646.3,11928 c 1,152.4 81,298 207.3,382.6 107,71.6 245.3,101.1 376.7,95.9 0.6,-6.2 0.9,-12.5 1,-18.7 -113.9,-10 -225.3,-52.8 -318.9,-117.5 -113.4,-78.4 -185.7,-188.1 -196.2,-327 -10,-132.2 28.2,-266.1 101.4,-376.2 29.6,-44.5 64.5,-83.9 103.3,-117.9 -42.4,26.8 -82.5,57 -117.5,93 -99.9,102.3 -158,242.7 -157.1,385.8"
         style="fill:#ffffff;fill-opacity:1;fill-rule:nonzero;stroke:none"
         transform="matrix(0.13333333,0,0,-0.13333333,0,3678.08)" />
      <path
         id="path27"
         d="m 18105.1,23151.9 c -347.5,33.2 -636,272.6 -873.3,510.3 -119.8,119.9 -237.7,245 -345.1,376.1 -128.4,156.8 -237.6,328.3 -339.2,503.2 -45.7,78.7 -90.5,158 -139.9,234.5 77.4,2.6 154.3,4.3 231.2,17.4 87.4,14.9 182.9,42.5 242.9,112 10.4,12.1 13.4,33.9 -8.2,35 -269.5,13.3 -477.7,188.7 -636.2,393.3 -171.7,221.6 -298.1,473.6 -451,707.7 -82.1,125.7 -171.8,246.6 -275.3,355.6 -104.8,110.3 -223.4,207.5 -349.2,292.9 -249,169 -530.6,290.6 -824.7,354.3 -174,37.7 -349.2,47.7 -521.7,-3.7 -78.6,-23.4 -149.5,-59.7 -216.9,-106.2 -51.7,-35.7 -101.2,-75.6 -154.7,-108.8 85.1,213 266.8,363.2 395,550.6 10.7,15.6 -0.2,37.2 -20.5,31.4 -505.9,-144.1 -925.1,-534.3 -1108.2,-1027.4 -34.3,-92.4 -59.8,-187.8 -76.4,-284.8 -5.2,64.3 3.4,130.8 14.3,193.3 18.6,105.6 52.4,209.5 64.7,316.1 4.2,35.9 -45.5,18.6 -57.1,2.9 -270.2,-366.4 -327.3,-828.1 -322.4,-1271.2 5.5,-492.7 75,-983.4 43.4,-1476.6 -10,-156.3 -30.8,-311.4 -55,-466 -11.8,-75.9 -26.3,-151.4 -45.2,-225.8 -2.8,-10.8 -5.5,-21.5 -8.2,-32.2 -0.4,-1.2 -0.7,-2.4 -1.1,-3.6 -21.3,-59.8 -46,-118.4 -62.1,-179.9 -15.4,-58.7 -25.1,-118 -20.3,-178.9 5.3,-66.5 26.4,-132.8 47.7,-195.8 89.5,-264.4 243.8,-500.9 399.1,-730.5 43.1,-63.8 84,-129.5 128.7,-192.2 45.6,-64 106.2,-106.7 161.5,-161 7.8,-7.6 20.3,-6.7 31.7,-1.3 -1.9,-9.1 -3.9,-18.2 -5.5,-27.4 -3.1,-18 26.6,-9.9 30.4,2.1 60.3,188.5 172.3,360.6 291,517.2 116,153 246,295.7 386.6,426.4 139.7,129.8 290.7,247.3 452.3,348.7 164.6,103.3 341.8,189.1 518.7,269.1 205.9,93.1 417.7,163.5 645.8,164.3 2.3,0 4.6,0.4 6.8,0.9 41.6,-59.2 85.4,-116.7 132.4,-171.8 193.9,-227.2 458.1,-377.1 747.1,-447.6 288,-70.3 592.4,-68.7 882.6,-12.2 322.8,62.8 630.6,211.3 895.7,404 61.6,44.7 121,92.5 177.8,143.2 16.1,14.3 13.8,40.2 -10,42.4"
         style="fill:#231f20;fill-opacity:1;fill-rule:nonzero;stroke:none"
         transform="matrix(0.13333333,0,0,-0.13333333,0,3678.08)" />
      <path
         id="path28"
         d="m 12832.3,21679.7 c -40.4,53.8 -75.1,112.1 -112.8,167.8 -76.5,113 -152.8,226.4 -222.7,343.7 -69.9,117.4 -134.1,239.1 -182,367.3 -12.7,33.8 -24.2,67.5 -34,101.4 2.1,4.6 4,9.4 6.1,14 7.1,15.3 14.4,30.6 21.8,45.8 2.1,4.3 4.2,8.5 6.3,12.8 0.9,1.7 1.8,3.3 2.6,5 0.3,0.5 0.2,0.4 0.3,0.6 0.4,0.7 0.8,1.5 1.2,2.2 2.2,4.2 4.4,8.5 6.5,12.8 -0.3,-0.7 1.1,2.1 1.6,3 1.1,2 2.1,4 3.2,5.9 2.4,4.7 4.6,9.5 7.2,14.1 -3.9,-7 1.4,2.6 2.5,5.1 0.5,1.2 1,2.5 1.4,3.7 1,2.5 2.1,5 3.2,7.5 0.5,1.2 1.2,2.3 1.7,3.6 0.1,0.5 0,0.3 0,0.4 2.5,4.9 3.5,10.4 1.6,14.9 162.8,276.4 237.4,588.7 314.4,898.5 45.3,182.6 93.6,364.3 136.8,547.5 45.3,192.1 88.9,384.6 138.6,575.7 71.9,276.6 146.5,583.5 333.5,808.5 84.2,101.3 195.6,179.6 326,206.9 136,28.5 264.4,-15.4 368.6,-103.7 101.9,-86.3 176.7,-201.7 241.2,-317.2 84.9,-151.8 157.8,-310.9 229.9,-469.1 158.5,-347.1 299.5,-701.7 455.5,-1049.8 21.7,-48.4 44,-96.8 66.7,-145 -151.4,36.2 -325.3,-51.9 -449.2,-128.9 -176.3,-109.6 -342.4,-239.4 -496.3,-378.6 -159.7,-144.5 -307.6,-301.7 -447.9,-465 -145.1,-169 -286.8,-342.7 -409.7,-528.8 -125.4,-190 -228.3,-399.9 -290.6,-620 -11.8,11.6 -23,23.9 -33.2,37.4"
         style="fill:#ffffff;fill-opacity:1;fill-rule:nonzero;stroke:none"
         transform="matrix(0.13333333,0,0,-0.13333333,0,3678.08)" />
      <path
         id="path29"
         d="m 14699.1,23125.7 c -186.5,-76.6 -372.2,-167.7 -546.4,-269.2 -347.8,-202.6 -652.4,-478.5 -900.2,-794.8 -120.9,-154.3 -233.4,-323.6 -285.9,-513.5 -17.5,19.5 -36.9,36.8 -56.5,53.8 36.5,90.6 66.5,183.9 104.3,274 42.4,100.9 93.3,197.5 150.6,290.6 113.3,184.3 247.9,354.9 386.6,520.5 260.3,310.7 545.8,596.2 877.6,830.4 88.2,62.3 179.7,123.1 280.4,163.3 89.2,35.5 179.6,45.1 272.9,33.9 76.4,-159 160,-315.4 257.2,-462.3 -186,-0.8 -369.8,-56.6 -540.6,-126.7"
         style="fill:#ffffff;fill-opacity:1;fill-rule:nonzero;stroke:none"
         transform="matrix(0.13333333,0,0,-0.13333333,0,3678.08)" />
      <path
         id="path30"
         d="m 17661.3,22852.8 c -146.6,-80.2 -301.5,-148.9 -462.3,-195 -284.9,-81.6 -596.4,-98.4 -888.3,-47.7 -295.2,51.2 -579.4,181.6 -787.7,400.5 -234.5,246.3 -394.8,563.9 -535.6,870.2 -77.1,167.8 -149.7,337.7 -221.7,507.7 -50.5,165 -122,323.1 -189.6,481.5 -72.8,170.6 -138,344.3 -216.1,512.7 -140.4,302.7 -327.1,617 -649.8,748.1 -95.3,38.7 -194.9,67 -298.7,59.7 -101.8,-7.2 -183,-65.5 -277.4,-96.3 -15.6,-5.1 -13.3,-26.9 4.7,-21.2 80,25 159.6,63.6 244,70.5 92.2,7.6 184.6,-20 269.2,-54.1 148.1,-59.8 270.2,-153.2 370.6,-276.9 18.8,-23.2 36.7,-47 54.2,-71 -2.9,3.1 -5.6,6.2 -8.6,9.2 -89.4,91.1 -202.7,158.8 -332.3,167.9 -135.4,9.5 -274.4,-42 -382,-122.3 -217.8,-162.6 -326.6,-430.4 -403.6,-682.2 -113.2,-370.1 -186.8,-751 -281.2,-1126.1 -42.3,-168.1 -84.3,-336.3 -127.4,-504.2 -43.2,-168.2 -91.1,-336 -160.6,-495.6 -32.7,-75.2 -69.6,-150.3 -114.2,-219.2 -9.4,-14.5 -4.7,-24 4.8,-28 -2.3,-5.5 -4.6,-11 -6.8,-16.5 -14.1,68.5 -18.3,138.1 -4.1,210.5 13.4,67.5 34.6,133.2 50.1,200.2 0.1,0.5 0.3,1.2 0.4,1.8 4.2,11.5 8.5,23.1 12.6,34.8 21.5,60.4 35.4,123.5 48.6,186.2 27.9,133 48.7,268.5 63,403.6 28.9,272.8 21.1,548.8 6.7,822.2 -23.1,438.3 -74.6,882.1 -3.7,1318.6 32.1,198.4 92.5,390.9 191,564.9 -36.7,-177 -94.5,-366.7 -11.5,-530 11.7,-22.9 50.1,2.5 51.5,20.9 37,501 328.2,963.3 753.3,1227.9 104.9,65.3 217.7,118.1 335.2,156.4 -138.2,-184.2 -315.6,-339.1 -385.6,-566.2 -6.2,-19.9 13.5,-32.4 31.3,-23.6 126,62.7 228.9,167.4 361.6,216.7 155.8,57.9 325.8,59.7 487.5,28.1 294.8,-57.7 577.5,-172.8 828.5,-337.8 124.8,-82 243.4,-175.6 348.6,-281.7 107,-107.9 198.7,-230.1 282.5,-356.7 154.8,-234.1 281.6,-487.5 452.9,-710.5 162,-210.9 377.2,-387.8 647.6,-412.8 -53.3,-39 -124.2,-53.5 -188.1,-62.7 -80.6,-11.7 -162.9,-15.1 -244.2,-18.8 -5,7.3 -9.7,14.9 -14.9,22.2 -67.3,95.7 -135.8,190.9 -200.6,288.3 -7.9,11.8 -30,-3.3 -23.9,-15.6 93.7,-190.3 214.4,-367.2 317.5,-552.7 100.1,-180.3 209.2,-357.6 336.9,-519.8 109.3,-138.7 232.7,-268.7 356.2,-394.6 124.6,-127.1 257,-248.3 405.3,-347.4 144.2,-96.2 304,-169.1 475.9,-193.7 -113.9,-96.9 -240.8,-178.8 -371.7,-250.4"
         style="fill:#ffffff;fill-opacity:1;fill-rule:nonzero;stroke:none"
         transform="matrix(0.13333333,0,0,-0.13333333,0,3678.08)" />
      <path
         id="path31"
         d="m 3746.37,23570.4 c 53.41,-54.2 109.69,-105.8 168.24,-154.4 252.22,-209.2 549.88,-377.1 867.95,-460.5 286.03,-75 589.71,-96.1 881.65,-44.4 292.92,51.9 566.11,184.5 774.23,398.9 50.42,51.9 97.86,106.5 143.1,162.9 2.24,-0.6 4.49,-1.1 6.76,-1.3 227.6,-15.5 434.45,-99.3 633.92,-205.4 171.41,-91.2 342.76,-188.1 500.38,-301.7 154.75,-111.6 298,-238.5 429.08,-377.1 131.92,-139.4 252.46,-290.1 358.4,-450.2 108.49,-163.9 209.21,-342.8 257.3,-534.9 3.06,-12.2 32.17,-22.1 30.19,-4 -1.01,9.3 -2.41,18.5 -3.72,27.7 11.07,-6.1 23.45,-7.8 31.71,-0.7 58.72,50.7 121.93,89.4 171.51,150.3 48.61,59.7 93.63,122.6 140.77,183.5 169.66,219.3 338.86,445.3 445.03,703.5 25.3,61.5 50.62,126.2 60.16,192.4 8.71,60.4 2.85,120.1 -8.77,179.7 -12.13,62.4 -33.05,122.6 -50.44,183.6 -0.34,1.2 -0.57,2.4 -0.91,3.6 -1.97,10.9 -4,21.7 -6.05,32.7 -14.1,75.5 -23.74,151.8 -30.72,228.2 -14.21,155.9 -25.04,312 -25,468.6 0.14,494.2 100.94,979.4 137.94,1470.7 33.28,441.9 5.96,906.4 -240.24,1289.3 -10.6,16.5 -59.02,36.8 -57.19,0.8 5.47,-107.2 32.56,-213 44.3,-319.7 6.93,-63 11.19,-129.9 1.89,-193.8 -10.35,97.9 -29.65,194.8 -57.95,289.2 -151.13,503.8 -544.46,920.1 -1040.06,1096.3 -19.9,7.1 -32.2,-13.8 -22.54,-30.1 115.95,-195.2 287.67,-356.7 358.9,-574.8 -51.23,36.7 -98.09,79.6 -147.42,118.6 -64.24,50.7 -132.65,91.5 -209.57,119.9 -168.85,62.3 -344.36,63.5 -520.4,37.1 -297.6,-44.8 -586.42,-148 -845.69,-300.7 -131.07,-77.2 -255.62,-166.6 -367.31,-270 -110.3,-102.1 -207.5,-217 -297.51,-337.1 -167.62,-223.9 -309.9,-467.2 -495.39,-677.4 -171.3,-194.1 -390.29,-355.8 -660.1,-351.8 -21.71,0.3 -20.07,-21.6 -10.45,-34.3 55.43,-73.3 148.96,-106.9 235.19,-127.4 75.89,-17.9 152.56,-24.6 229.59,-32.2 -54.15,-73.1 -103.92,-149.4 -154.58,-225 -112.67,-168.1 -232.62,-332.2 -370.78,-480.4 -115.57,-124 -241.28,-241.3 -368.45,-353.3 -252.06,-221.9 -555.29,-442.4 -904.25,-453.2 -23.83,-0.8 -27.81,-26.4 -12.7,-41.7"
         style="fill:#231f20;fill-opacity:1;fill-rule:nonzero;stroke:none"
         transform="matrix(0.13333333,0,0,-0.13333333,0,3678.08)" />
      <path
         id="path32"
         d="m 8891.17,21769.8 c -48.05,223.6 -137.31,439.7 -250.31,637.3 -110.66,193.6 -240.92,376 -374.94,554 -129.55,171.9 -267.05,338.3 -417.22,492.7 -144.63,148.8 -302.02,289 -471.01,409.7 -118.67,84.8 -286.52,183.8 -440.01,157.4 25.74,46.7 51.12,93.5 75.86,140.4 178.07,337.4 341.5,682.2 521.83,1018.5 82.17,153.2 165.1,307.3 259.5,453.4 71.82,111.1 153.89,221.5 261.05,301 109.7,81.5 240.59,117.1 374.45,79.9 128.38,-35.6 234.55,-120.8 312.16,-227.4 172.2,-236.4 226.93,-547.5 280.97,-828.2 37.32,-193.8 68.51,-388.7 101.41,-583.4 31.36,-185.5 67.93,-370 101.48,-555.1 56.93,-314.1 111.39,-630.5 256.16,-916.8 -2.2,-4.4 -1.55,-9.9 0.57,-15 0,0 -0.1,0.1 0.06,-0.4 0.41,-1.2 0.99,-2.5 1.45,-3.7 0.95,-2.5 1.81,-5.1 2.65,-7.7 0.4,-1.2 0.74,-2.5 1.17,-3.7 0.91,-2.6 5.68,-12.5 2.23,-5.3 2.26,-4.7 4.12,-9.7 6.27,-14.5 0.93,-2 1.87,-4.1 2.79,-6.1 0.43,-1 1.68,-3.8 1.36,-3.1 1.9,-4.4 3.79,-8.8 5.74,-13.2 0.33,-0.7 0.66,-1.5 0.99,-2.2 0.12,-0.3 0.08,-0.2 0.27,-0.7 0.75,-1.7 1.51,-3.4 2.25,-5.2 1.87,-4.3 3.72,-8.7 5.53,-13.1 6.4,-15.7 12.74,-31.4 18.83,-47.1 1.83,-4.8 3.41,-9.6 5.15,-14.4 -11.96,-33.2 -25.62,-66.1 -40.38,-99 -56.07,-124.8 -127.88,-242.2 -205.23,-354.9 -77.26,-112.6 -160.65,-220.8 -244.26,-328.7 -41.19,-53.2 -79.55,-109.1 -123.3,-160.2 -11,-12.9 -23,-24.4 -35.52,-35.2"
         style="fill:#ffffff;fill-opacity:1;fill-rule:nonzero;stroke:none"
         transform="matrix(0.13333333,0,0,-0.13333333,0,3678.08)" />
      <path
         id="path33"
         d="m 6625,23528.7 c 106.45,140.4 199.95,291.1 286.33,444.9 93.83,5.2 183.45,-10.2 270.14,-51.3 97.96,-46.6 185.34,-113.1 269.36,-180.9 316.15,-255.1 582.8,-558.2 822.62,-885 127.83,-174.2 251.16,-353 352.44,-544.2 51.22,-96.6 95.79,-196.2 131.62,-299.6 32.02,-92.4 55.89,-187.4 86.61,-280.2 -20.7,-15.7 -41.18,-31.7 -59.91,-50 -40.2,192.9 -141.65,369 -252.33,530.7 -227,331.5 -513.36,626.4 -847.41,850.9 -167.37,112.5 -346.91,215.2 -528.1,303.6 -165.91,81 -345.74,148.4 -531.37,161.1"
         style="fill:#ffffff;fill-opacity:1;fill-rule:nonzero;stroke:none"
         transform="matrix(0.13333333,0,0,-0.13333333,0,3678.08)" />
      <path
         id="path34"
         d="m 3827.89,23558.8 c 173.11,13.5 337.24,76 487.34,162.9 154.34,89.3 294.22,201.8 426.7,320.6 131.38,117.8 262.88,239.6 380.76,371 137.87,153.7 258.09,323.7 369.6,497.2 114.72,178.5 246.56,347.2 352.26,531.2 6.82,11.8 -14.27,28.3 -22.83,17.1 -70.94,-93.1 -145.39,-183.7 -218.75,-274.9 -5.59,-7 -10.77,-14.2 -16.24,-21.2 -80.93,8.9 -162.85,17.6 -242.52,34.4 -63.19,13.4 -132.99,32.4 -183.72,74.6 271.49,7.7 497.54,170.4 672.71,370.5 185.27,211.6 328.03,456.3 497.58,680 91.68,121 191.08,237 304.8,337.9 111.75,99.2 236.08,184.9 365.85,258.8 261.06,148.5 550.58,245.3 848.44,284 163.38,21.2 332.97,8.5 484.79,-59.3 129.23,-57.7 225.16,-168.8 346.88,-239.4 17.22,-10 37.65,1.2 32.8,21.5 -55.33,231.1 -222.43,397.1 -348.54,589.8 114.83,-45.8 224,-105.7 324.53,-177.6 407.24,-291.3 668.22,-771.3 673.05,-1273.7 0.18,-18.4 36.93,-46.2 50.04,-24.1 93.24,157.6 47.75,350.6 22.45,529.7 87.13,-180 135.08,-376 154.48,-576 42.69,-440.2 -37.11,-879.8 -88.21,-1315.7 -31.88,-271.9 -57.44,-546.8 -46.05,-820.9 5.64,-135.8 17.7,-272.4 37.04,-406.9 9.1,-63.3 18.92,-127.3 36.51,-188.9 3.39,-11.9 6.89,-23.7 10.38,-35.6 0.1,-0.6 0.19,-1.2 0.28,-1.8 11.19,-67.8 28.16,-134.7 37.12,-202.9 9.63,-73.2 0.91,-142.4 -17.51,-209.9 -1.85,5.7 -3.78,11.3 -5.74,17 9.76,3.3 15.01,12.5 6.58,27.6 -40.11,71.6 -72.08,148.9 -99.92,226.1 -59.1,163.7 -96.19,334.2 -128.53,504.9 -32.27,170.3 -63.41,340.8 -94.85,511.3 -70.16,380.3 -119.16,765.1 -208.4,1141.8 -60.71,256.2 -152.15,530.5 -359.1,706.7 -102.19,87 -237.64,147.3 -373.35,146.5 -129.88,-0.8 -247.32,-61.1 -342.41,-146.2 -3.13,-2.9 -6.06,-5.9 -9.15,-8.7 19.02,22.8 38.4,45.4 58.65,67.3 108.16,117.1 236.01,202.4 387.56,252.6 86.63,28.7 180.57,50.2 272.18,36.8 83.76,-12.4 160.67,-55.9 238.93,-86.1 17.65,-6.7 21.31,14.9 6.04,21 -92.18,36.7 -169.54,100.1 -270.6,113.8 -103.17,14 -204.33,-7.9 -301.91,-40.4 -330.51,-110.2 -536.91,-411.9 -696.48,-705 -88.73,-163 -164.86,-332.2 -248.44,-497.7 -77.61,-153.7 -159.17,-307 -220.05,-468.4 -82.85,-165.1 -166.12,-329.9 -253.85,-492.5 -160.1,-296.6 -340.44,-603.2 -590.26,-834.1 -221.93,-205 -513.9,-316.9 -811.75,-349.1 -294.55,-31.9 -604.36,4.8 -883.45,104.5 -157.51,56.3 -307.66,134.8 -448.78,224.2 -126.07,79.8 -247.48,169.8 -354.94,273.7"
         style="fill:#ffffff;fill-opacity:1;fill-rule:nonzero;stroke:none"
         transform="matrix(0.13333333,0,0,-0.13333333,0,3678.08)" />
      <path
         id="path35"
         d="m 14865.2,18776.5 c -9.3,29.3 -20.3,60.1 -33.4,90.7 17.2,-0.4 37.9,17.1 39.9,32.5 14.8,112.1 -21.7,227.4 -68.2,328 -51.5,111.6 -121.6,215.1 -201.7,308.1 -132,153.2 -294.7,267.5 -484.5,325.5 -54.1,167.8 -114.2,333.8 -165.9,502.3 -60.6,197.4 -119.1,395.5 -182.4,592.1 -100.3,311.7 -202,623.6 -329.1,925.7 -127.8,303.7 -282.8,601.3 -494,856 -104.3,125.8 -221.6,241.4 -352,340.2 -149.7,113.4 -313.5,219.1 -490.6,284 -143.6,52.7 -295.6,68.4 -441.3,34.1 -140,139.3 -372.6,165.6 -559.4,174.6 -224,10.8 -456.1,5.3 -674.3,-49.3 -146.4,-36.7 -289.8,-85 -435.47,-124.2 -47.2,-1.8 -94.8,-7.9 -142.45,-20.3 -315.78,-82.1 -538.98,-353.3 -711.79,-613.5 -209.59,-315.6 -375.73,-654.8 -559.69,-985.2 -85.31,-153.2 -181.56,-299.5 -269.63,-451.1 -75.93,-130.6 -148.25,-263.4 -226.27,-392.8 -86.85,-144.1 -180.95,-286.1 -293.76,-411.4 -96.78,-107.5 -207.73,-194.6 -330.31,-268.2 -388.21,-62.7 -761.44,-279.4 -994.66,-587.6 -87.32,-115.4 -152.76,-245.3 -193.44,-384.2 -5.35,-18.3 15.74,-24.2 28.6,-14.7 57.44,42.4 96.11,101 144.83,152.1 21.86,22.9 46.63,42.4 72.91,59.8 -46.58,-52.8 -85.84,-113.5 -117.23,-171.7 -51.53,-95.6 -104.21,-224.2 -52.8,-330.3 6.29,-13 28.3,-4.7 34.97,2.6 60.69,65.8 115.74,137.9 175.68,205 -74.16,-143.4 -102.13,-314 -83.86,-470.6 2.7,-23.1 38.63,-9 45.75,3.2 39.63,67.9 77.01,137.2 118.91,203.5 -72.99,-299.2 -10.37,-616.8 112.8,-897.6 39.94,-144.7 97.5,-285 175.08,-410.9 133.59,-216.7 332.23,-378.3 556.22,-494.9 8.17,-4.3 16.53,-8.1 24.74,-12.3 42.52,-92.9 98.15,-178.3 146.85,-268.1 58.7,-108.3 103.34,-223.6 143.2,-340 82.37,-240.6 138.72,-490.7 204.36,-736.2 135.52,-506.8 249.62,-1018.5 328.86,-1537.5 66.28,-434.1 77.84,-930.8 371.76,-1285.9 213.35,-257.7 537.59,-374.8 861.29,-414.1 336.46,-41 680.45,-7.8 1012.75,51 175.7,31.1 345.1,78 505.6,157.4 158.5,78.6 303,181.2 433.1,300.8 268,246.5 471.4,556.1 638.2,877.5 181.2,349.1 318.6,717.1 451.1,1086.7 156.7,436.8 315.1,881.6 577.8,1268 237.4,349.1 537.4,642 860.3,910.3 -33.6,-85.3 -77.7,-167.2 -124.1,-243.7 -13.4,-22.1 6.5,-37.1 28,-29.6 109.6,37.9 200.6,117.1 274.2,204.9 78.9,94.3 145.6,203.3 197.4,314.7 32.2,69.4 56.3,143.2 75.2,218.3 8.4,24.3 16.2,48.7 23.2,73.4 -0.5,-25.5 -1.7,-51 -4.9,-76.3 -8.1,-66.8 -32.8,-128.1 -45.5,-193.5 -1.5,-7.8 1.4,-11.8 6.1,-13.8 10,-11.8 38.7,-9 50.9,9.5 107.9,163.6 188.9,347.1 242.4,535.4 39.3,138.5 66.4,290.2 52.1,436.1 5.8,-7.5 11.3,-15.3 17.4,-22.6 12,-14.2 32.8,-1.9 39.2,11.5 54.6,113.8 27.4,261.7 -9,376.6"
         style="fill:#231f20;fill-opacity:1;fill-rule:nonzero;stroke:none"
         transform="matrix(0.13333333,0,0,-0.13333333,0,3678.08)" />
      <path
         id="path36"
         d="m 14850.1,18443.6 c -17.5,22.9 -34.3,46.3 -50.1,70.4 -5.5,21.8 -11.9,43.3 -19.8,64.6 -38.6,103.8 -106.5,193.9 -199.9,254.3 -18.4,11.9 -52,-15.1 -33.6,-33.1 72.7,-70.9 123.3,-159 175.6,-245.9 89.8,-261 -8.1,-590.9 -115.1,-834.2 -13.7,-31 -28.1,-61.7 -42.9,-92.3 0.1,0.4 0.1,0.7 0.2,1 9.6,67.7 12,139.2 0.6,206.8 -3.2,19.1 -7.7,38 -12.8,56.8 1.8,15.3 4,30.6 5.2,45.9 4,55.7 4.4,113 -6.4,168 -5.3,26.7 -12.5,52.7 -22.5,78 -10.5,26.6 -26.8,47.8 -38,73.5 -1.6,3.5 -8.9,-0.7 -7.7,-4.1 7.1,-21.1 6.2,-45.3 9.8,-67.4 4,-24.1 5.9,-48.8 7.9,-73.2 3.9,-48.8 5.3,-98.4 3.5,-147.3 -3.7,-99.2 -22.3,-199.3 -51.8,-294 -56.8,-182.5 -150.5,-342.9 -262.2,-496.5 -30,-41.4 -60.4,-82.9 -95.8,-119.9 -20.8,-21.8 -42.4,-38.6 -65.6,-53.5 14.1,27.9 26.2,57.2 38.3,85.1 11.5,26.4 21.3,53.5 30,81 0.5,1.1 1,2.2 1.5,3.3 0.2,1 0.3,2 0.4,3 6.6,21.4 12.6,43 17.7,64.7 2.5,10.4 4.5,20.8 6.5,31.2 -34.4,-15.9 -69.1,-31.2 -104.1,-45.3 -63.2,-50.1 -125.7,-101 -186.6,-154.4 -166.8,-146.5 -325,-303.1 -468.6,-472.6 -146,-172.5 -277.5,-356.6 -386.6,-554.6 -111.4,-201.8 -203,-413.7 -286.1,-628.4 -151.6,-391.5 -277.8,-792.5 -446.4,-1177.3 -145.3,-331.6 -319.3,-655.4 -549.4,-936.6 -223.1,-272.5 -507.8,-501.6 -846.1,-611.3 -159.3,-51.6 -329,-75.8 -494.7,-97.5 -168.7,-22 -338.7,-34.7 -508.94,-32.3 -327.44,4.7 -675.66,64.2 -940.64,269.9 -340.35,264.2 -421.54,710.5 -474.78,1113.5 -67.52,511.1 -159.7,1019.6 -286.71,1519.5 -63.04,248.1 -132.13,494.7 -196.74,742.4 -60.29,231.1 -129.08,466.8 -251.71,673.6 -39.67,66.9 -83.93,131 -125.67,196.6 228.95,-109 473.34,-186.9 721.45,-237.1 306.23,-62 618.57,-83.5 930.49,-68.6 330.62,15.8 660.89,44.1 988.45,92.6 322.6,47.7 645.4,112.6 957.1,209.4 294.7,91.6 576.6,224.3 838,388 258.4,161.8 494.5,356.1 696,585.2 198,225.1 332.9,487.5 449,761.9 28.3,66.9 54.6,134.7 81.7,202 14.2,35.3 -41.7,27.7 -53,2.7 -118.6,-263.4 -225.1,-535.1 -392.9,-772.4 -168.6,-238.6 -391.1,-444.6 -628.2,-613.8 -243.9,-174.1 -509.9,-318.3 -789.3,-426.6 -294,-114 -605.1,-184.8 -914.9,-240.8 -316.7,-57.3 -636.87,-93.9 -957.83,-116.6 -307.35,-21.7 -612.74,-29.4 -919.13,9.5 -253.65,32.3 -502.68,92.1 -741.98,181.3 5.63,-0.5 11.34,-0.5 16.99,-0.9 -80.14,32.4 -158.76,69 -236.38,107.4 -84.91,42 -166.43,88.4 -242.94,144.5 -73.03,53.6 -141.37,113.6 -204.2,178.8 -127.47,132.4 -233.14,286 -312.25,451.8 -79.11,165.8 -132.53,344.4 -152.9,527.1 -9.27,83 -11.36,166.7 -6.6,249.8 -0.15,-0.9 -0.38,-1.8 -0.53,-2.8 -14.19,-86.1 -15.72,-175.5 -10.43,-263.7 -1.75,9.2 -3.72,18.3 -5.31,27.5 -34.22,198.5 -25.9,406.3 47.15,595.5 12.5,32.4 -33.19,22.9 -45.33,8.2 -63.78,-77.7 -113.32,-164.6 -162.65,-251.7 -5.04,183.6 54.52,378.9 178.23,513.8 18.4,20 -3.97,43.3 -25.33,26.4 -1.77,-1.4 -3.38,-2.9 -5.13,-4.3 -0.04,0 -0.08,0.1 -0.13,0.1 -0.29,-0.3 -0.56,-0.6 -0.85,-0.9 -110.71,-89.4 -194.26,-202.5 -287.73,-308.3 -27.57,92.5 23.16,204 67.06,281.9 50.61,89.8 118.43,185 206.63,241.4 23.54,15.1 6.1,39.7 -17.61,27 -68.26,-36.7 -136.21,-72.3 -193.97,-124.8 -39.42,-35.8 -71.33,-80.2 -108.93,-118.1 176.11,446.1 595.21,741 1053.43,852.5 133.22,32.4 270.51,49.7 407.47,54 13,0.4 28.46,22.8 9.25,24.4 -92.81,8 -186.86,5.9 -280.44,-5.2 211.51,111.4 378.22,312.8 508.07,505.6 83.42,123.9 157.93,253.5 231.73,383.3 73.99,130.1 150.72,257.8 229.5,385 204.01,329.4 365.63,682.8 571.19,1011.4 163.02,260.6 340.52,545.1 614.48,701.7 158.22,90.4 340.6,114.5 515.6,61.8 176.9,-53.3 330.4,-172.7 448.6,-312.4 11.6,-13.8 41.9,5 31.6,20.7 -129.2,197.3 -338.1,341.8 -567.6,371.6 81.1,14.9 160.8,37.1 241.2,57.6 123.4,31.4 245.5,56.4 373,61.4 203.7,7.9 412.7,16.5 613.2,-27.6 96.7,-21.3 185.3,-55.5 269.3,-105 -20.5,-7 -40.8,-14.8 -60.8,-23.9 -161.2,-73.1 -304.5,-205.8 -374,-369.9 -6.4,-15.1 15.9,-11.2 21.6,-3.9 98,125.7 208.5,244.8 355.8,312.4 158.9,72.9 331.3,69.6 495,13.9 175.1,-59.6 334.8,-163 482.6,-272.4 127.3,-94.2 242.3,-204.3 344.5,-325.3 416.1,-492.5 628.4,-1116.7 824,-1720.8 65.7,-202.9 127.3,-407 189.8,-610.9 50.4,-164.4 97.7,-334.6 161.7,-496 -13.8,3.1 -27.7,5.8 -41.9,8.3 -143.3,24.6 -285.8,21.2 -430.3,14.9 48.1,-10 96.8,-17.7 145.5,-24.7 145.6,-20.9 293.7,-39.5 428.4,-98.2 -0.4,1.3 -0.9,2.6 -1.3,3.9 34.5,-12.9 68.4,-27.7 101.4,-45.5 200.4,-107.9 360.9,-293.1 468.4,-491.5 45.4,-83.8 81,-173.4 94.8,-267.1 -45.4,45.7 -95.9,85.8 -156.2,110.9 -14.3,5.9 -41.5,-20.2 -24.5,-29.4 108.1,-58 166.9,-190.5 200.9,-302.1 29.1,-95.9 53.4,-216.4 24,-317.3"
         style="fill:#ffffff;fill-opacity:1;fill-rule:nonzero;stroke:none"
         transform="matrix(0.13333333,0,0,-0.13333333,0,3678.08)" />
      <path
         id="path37"
         d="m 13317.6,18995.9 c -31.8,31.4 -73.7,52.1 -125.7,54.7 -10.4,0.5 -20.9,0.2 -31.4,-0.6 -44.1,-8.5 -87.4,-20.9 -129.2,-37 -33.1,-15.1 -64.7,-32.7 -93.5,-49.8 -22,-13.1 -47.7,-30.2 -66.1,-51.6 -2.7,-3.1 -5.5,-6.1 -8,-9.3 21.7,7.1 43.9,12.5 66.4,15.5 45.5,6.1 92.4,5.2 137.4,-4.6 15.8,-0.6 31.6,-2 47.6,-4.9 11.2,-2 22.4,-4.8 33.5,-7.9 -12.5,-39.1 -22.5,-79.3 -35,-118.5 -6.9,-3.1 -12.9,-7.9 -14.6,-13.7 -28.8,-94.1 -77.4,-179.4 -125.7,-264.5 -48.1,-84.5 -96.4,-168.3 -151.2,-248.7 -101.9,-149.2 -218.5,-287.1 -353.6,-407.3 -269.2,-239.6 -597.2,-417.1 -928.3,-555.1 -337,-140.5 -690.1,-239.7 -1047.9,-311 -378.1,-75.3 -763.36,-124.4 -1148.75,-137.9 -233.26,-8.2 -467.72,-1.9 -700.94,6 -114.7,3.9 -227.7,15.9 -341.43,30.7 -1.05,0.1 -2.12,0.2 -3.18,0.3 -1.14,1.5 -2.57,2.7 -4.65,3.1 -16.84,3.9 -32.78,6.8 -50.06,8.1 -19.2,1.4 -38.35,3.5 -57.38,6.3 -17.41,2.6 -34.96,4.7 -52.22,8.2 -14.78,3 -33.36,9.3 -48.37,6.4 -4.84,-0.9 -12.57,-6.5 -10.65,-12.6 1.22,-3.8 3.87,-7 7.09,-9.9 -0.79,-0.4 -1.59,-0.7 -2.35,-1.2 -11.8,-7.3 -3.03,-19.6 8.76,-13.4 1.34,0.8 2.93,1 4.35,1.5 102.07,-150.8 194.6,-309.9 255.63,-482.1 61.92,-174.8 97.81,-358 127.74,-540.5 56.25,-343.2 104.7,-687.8 165.89,-1030.1 54.58,-305.3 130.99,-620.6 312.67,-877.8 188.91,-267.4 482.54,-436.1 806.15,-477 337.5,-42.6 684.1,43.3 990.1,182.9 306.2,139.7 593.4,338.6 819.4,589.1 246,272.4 413.8,604.5 531.9,949.8 121.8,356.1 195.5,726.3 273.9,1093.6 39.2,183.3 79.5,366.4 128.1,547.5 54.7,203.2 122.1,403 184.6,603.9 68.5,220.1 137.7,440 209.9,658.9 36.3,110.5 74.2,220.5 114.3,329.7 38.2,103.9 85.4,204.1 126.3,307 19.9,49.8 30.9,103.8 46.5,155.7 13.8,-5.5 27.3,-11.5 40.1,-18.5 38.5,-21 69.1,-46.5 98.6,-78.2 6.7,-7.1 14.8,-9.9 23,-9.9 2.3,73.7 -4.6,146.9 -29.7,214.7"
         style="fill:#231f20;fill-opacity:1;fill-rule:nonzero;stroke:none"
         transform="matrix(0.13333333,0,0,-0.13333333,0,3678.08)" />
      <path
         id="path38"
         d="m 12740.6,17805.6 c -69.6,-217.5 -136.3,-436 -205,-653.9 -56.6,-179.3 -108.2,-359.2 -151.6,-542.2 -168.1,-709.5 -255.7,-1473.4 -669.9,-2093.9 -188.8,-282.9 -443.1,-510.8 -734.6,-684.4 -292.3,-174.2 -628.9,-300.2 -971.8,-312.2 -325.63,-11.3 -645.66,94 -876.89,329 -219.75,223.3 -323.04,530.2 -387.91,830 -33.64,155.3 -57.86,312.5 -82.68,469.5 -26.95,170.4 -57.52,340.3 -83.22,510.9 -53.78,357.2 -104.74,736.8 -305.05,1046.7 -39.58,61.2 -84.96,114 -136.8,162.9 10.42,-2.9 20.94,-5.5 31.63,-7.4 18.89,-3.3 37.89,-6 56.98,-7.9 3.57,-0.3 6.92,-0.1 10.41,-0.3 33.43,-5.9 67.3,-9.8 100.8,-14.7 104.42,-15.3 208.24,-24 313.75,-27.2 212.7,-6.4 426.23,-12.9 638.99,-6.9 387.04,10.8 773.79,57.4 1153.89,130.3 358.3,68.7 712.5,164.6 1051.4,300.5 332.2,133.3 656.5,305 935,531.6 157.9,128.5 294.5,278.5 412.2,444.4 29,40.9 56.1,82.8 82.3,125.3 -64.4,-175.4 -125,-352.1 -181.9,-530.1"
         style="fill:#ffffff;fill-opacity:1;fill-rule:nonzero;stroke:none"
         transform="matrix(0.13333333,0,0,-0.13333333,0,3678.08)" />
      <path
         id="path39"
         d="m 11686.3,18513.4 c 21.9,80.2 39.9,161.6 67.3,240 21.7,125.5 17.2,256.4 -38,373.2 -128.7,272.2 -444.1,400.2 -715.1,478.7 -138.8,40.2 -280,70.4 -420.3,104.5 -203.8,49.6 -411.3,80.6 -620.43,96.3 -213.15,16 -427.25,17 -640.74,8.1 -195.45,-8.2 -390.57,-24 -582.83,-61.4 -193.22,-37.5 -384.73,-94.7 -560.92,-183.4 -141.02,-71 -276.9,-166.8 -356.63,-306.8 -80.95,-142.1 -82.38,-298.7 -32.84,-451.8 59.55,-184 161.31,-353.4 281.18,-504.2 222.99,-280.5 514.23,-497.4 846.98,-630.4 324.08,-129.5 677.8,-178 1025.26,-153.4 347.07,24.5 682.77,125.9 990.37,287.4 232.3,122 455.2,282.7 619.3,490.1 0.5,0.6 1,1.3 1.5,1.9 6.9,8.8 13.7,17.6 20.4,26.5 7.7,10.2 15.3,20.4 22.6,30.8 25.7,36.5 49.7,74.1 71.6,113.3 7.5,13.4 14.4,27 21.3,40.6"
         style="fill:#231f20;fill-opacity:1;fill-rule:nonzero;stroke:none"
         transform="matrix(0.13333333,0,0,-0.13333333,0,3678.08)" />
      <path
         id="path40"
         d="m 11100.1,17972.9 c -273.3,-179 -585.3,-303.6 -907,-360 -657.23,-115.1 -1365.94,52 -1859.5,512.8 -135.35,126.4 -254.69,271.8 -349.54,431 -85.48,143.5 -172.7,319.4 -164.68,490.9 16.14,344.9 399.73,506.6 682.46,590.4 365.97,108.4 757.39,125.9 1136.84,120.4 202.98,-2.9 406.12,-17.1 606.82,-47.7 165.5,-25.2 327.7,-66 490.4,-104.8 271.3,-64.6 568.7,-139 779.3,-333.3 106.3,-98 177.3,-224.9 188,-370.4 6.2,-85.9 -3.8,-172.6 -25,-256.6 -107.8,-284.4 -325.3,-507.1 -578.1,-672.7"
         style="fill:#ffffff;fill-opacity:1;fill-rule:nonzero;stroke:none"
         transform="matrix(0.13333333,0,0,-0.13333333,0,3678.08)" />
      <path
         id="path41"
         d="m 9004.43,18030.1 c -50.73,70.6 -112.17,136 -179.54,191 -72.95,59.5 -158.16,105.4 -242.84,145.8 -97.8,46.6 -200.62,83.7 -308.13,99.4 -19.11,2.8 -53.27,-25 -38.08,-45.4 97.8,-131.1 235.15,-222.9 375.64,-303 71.29,-40.7 143.23,-80.3 215.2,-119.8 69.91,-38.3 135.83,-88.4 208.98,-120 1.86,-0.8 4.01,-0.9 6.25,-0.7 12.53,-23.4 24.14,-47.1 33.48,-71.4 1.93,-5 9.09,-1.3 9.68,2.8 11.4,79.9 -35.73,158.8 -80.64,221.3"
         style="fill:#231f20;fill-opacity:1;fill-rule:nonzero;stroke:none"
         transform="matrix(0.13333333,0,0,-0.13333333,0,3678.08)" />
      <path
         id="path42"
         d="m 9959.47,17781.7 c 32.36,8.8 65.83,14.9 99.33,19.7 6,1.5 12.2,2.9 18.2,4.5 103,27.1 202.1,66.5 299.8,108.6 88,37.9 174.8,79.3 259.6,124.1 133.5,70.7 267.6,154.1 372.3,265.1 -0.8,0.2 -1.4,0.5 -2.3,0.7 -118.1,18.7 -243.9,-9.6 -357.2,-41.9 -95.4,-27.2 -187.3,-63.2 -277.3,-104.8 -149,-68.8 -305,-140.7 -435,-242.1 -42.07,-32.8 -105.57,-82.2 -110.63,-141.4 44.42,-1.9 89,1.1 133.2,7.5"
         style="fill:#231f20;fill-opacity:1;fill-rule:nonzero;stroke:none"
         transform="matrix(0.13333333,0,0,-0.13333333,0,3678.08)" />
      <path
         id="path43"
         d="m 9933.87,20269.9 c 71.13,78.4 125.63,167.7 170.83,263.1 51.6,108.5 90,223.3 115.2,340.8 38.6,180.1 44.7,364.8 32.4,548.1 -10.3,49.7 -23.8,99 -41.2,147.6 -36.4,101.9 -92.6,193.4 -182.7,253 -10.3,9.1 -21,17.6 -32.34,25.3 -78.31,53.6 -169.44,61.2 -261.01,73.3 -1.27,0.2 -3.08,-2.3 -1.38,-2.6 84.81,-16.8 170.66,-50 234.98,-109.7 77.55,-71.9 130.95,-172.9 169.55,-270.2 33.7,-84.9 57.8,-175 75.7,-265.3 2,-28.3 2.8,-56.7 2.3,-85 -13.3,64.7 -36.1,127.6 -64.6,187.1 -84.2,175.4 -231.38,319.9 -427.79,355.3 -202.4,36.4 -419.43,-19.4 -599.99,-111.3 -182.31,-92.9 -331.04,-236.5 -439.47,-409.3 -174.55,-278.2 -309.29,-666.6 -153.59,-982.7 47.27,-95.9 123.07,-169.2 214.57,-216.4 -63,20.4 -123.54,48.5 -180.47,82.2 -78.55,46.6 -165.31,108.7 -214.41,187.2 -2.06,3.3 -8.42,-0.9 -6.65,-4.3 23.48,-44.8 46.08,-85.3 80.27,-123.1 33.27,-36.7 70.36,-68.2 111.61,-95.7 80.83,-53.8 174.52,-91.3 269.56,-110.8 117.03,-23.8 238.02,-19.6 356.36,-9.4 66.55,5.8 134.4,10.9 199.48,26.5 15.5,3.7 31.93,7.5 48.59,11.6 58.76,11.6 116.77,26.8 172.24,46.9 68.72,24.9 132.72,59.6 192.45,100.9 56.43,45.3 110.82,93.2 159.51,146.9"
         style="fill:#231f20;fill-opacity:1;fill-rule:nonzero;stroke:none"
         transform="matrix(0.13333333,0,0,-0.13333333,0,3678.08)" />
      <path
         id="path44"
         d="m 9397.81,20016.2 c -114.63,-22.3 -231.73,-33.8 -348.55,-28.4 -165.21,7.7 -326.33,53.9 -428.48,192.4 -192.35,260.7 -99.36,619.4 29.74,884.5 85.24,175 205.61,334.9 366.08,447.4 157.39,110.4 354.38,182.1 547.5,185 193.51,3 362.94,-92 472.1,-250.3 51.3,-74.5 88.2,-157.8 114.8,-244 33.7,-109.3 32.4,-222 19.7,-334.3 -0.2,-0.5 -0.3,-1.1 -0.4,-1.6 -31.7,-125.9 -78.2,-248.6 -140.2,-362.8 -35.45,-65.2 -74.54,-128.9 -118.21,-188.9 -25.03,-34.4 -53.37,-65.8 -81.39,-97.5 -42.96,-37.2 -88.25,-70.9 -135.47,-99.1 -91.54,-54.6 -193.36,-82.2 -297.22,-102.4"
         style="fill:#ffffff;fill-opacity:1;fill-rule:nonzero;stroke:none"
         transform="matrix(0.13333333,0,0,-0.13333333,0,3678.08)" />
      <path
         id="path45"
         d="m 12752.3,20046.4 c -18.8,-22 -46.1,-40.5 -68.4,-59.3 -25.1,-21.1 -52.2,-39.7 -80.1,-56.8 -56.8,-34.7 -115.9,-64.4 -176.9,-90.8 -30,-13 -60.1,-26 -90.4,-38.7 1.8,1.3 3.7,2.5 5.5,3.8 188.8,142.8 326.3,355.8 367.2,589.8 22.8,130.6 18.7,264.5 3.3,395.7 -15.1,129.1 -37.1,259.8 -74.8,384.3 -15.5,51.4 -35.2,101.3 -58.4,149.5 3.6,2.4 6.2,6 4.8,9.4 -38.3,92.2 -102.7,167.6 -173.3,236.5 -35.4,37.2 -74.2,71.2 -115.8,101.8 -78.2,59.3 -164.8,106.7 -257.4,140.3 -231.8,83.9 -492.4,56.9 -706.1,-64.1 -214.6,-121.5 -362.1,-322.6 -446.2,-550 26.4,123.6 82.6,238.9 152.4,343.8 120.4,181 289.4,324.9 495.6,397.6 118.7,41.8 250.3,60.1 375.7,63.8 6.1,0.2 13.1,9.8 4.3,11.3 -117.6,20.4 -230.9,15.5 -346,-16.6 -108.2,-30.2 -209.7,-79.4 -300.7,-145.3 -184.1,-133.3 -335.3,-332.3 -408.6,-549.9 -4.9,-28.7 -10,-57.4 -14.1,-86.3 -28.3,-199.9 -40.8,-402.2 -38.7,-604.3 17,-214.6 83.6,-435.5 207,-613.1 141.5,-203.7 373.7,-326 616.1,-362.2 143.1,-21.5 291.9,-12.6 430.9,27.9 22.3,-2.2 44.6,4.9 65.7,12.8 37.1,13.9 74.5,26.1 111.9,39.2 69.1,24.2 137.8,52.7 203.9,84.5 62.1,30 124.5,62.1 180.3,103 27.5,20.2 54,41.8 78.4,65.7 23.9,23.5 36.5,48.4 54.7,75.8 0.9,1.3 -1,1.8 -1.8,0.9"
         style="fill:#231f20;fill-opacity:1;fill-rule:nonzero;stroke:none"
         transform="matrix(0.13333333,0,0,-0.13333333,0,3678.08)" />
      <path
         id="path46"
         d="m 11827.7,19673.2 c -241.5,-8.4 -494.9,73.8 -670.7,243.2 -149.8,144.5 -235.3,353.3 -275.8,554.3 -6.9,34.7 -12.1,69.9 -16.2,105.3 -1.9,2.2 -3.4,4.7 -3.7,8.2 -10.5,115 -12.1,230.9 7,344.3 36,253.8 145.3,496.1 335.4,671.6 170.5,157.5 402.8,234.5 633.7,206.4 58.9,-7.2 115.1,-21.6 169,-41.3 211.1,-96.6 396.8,-240.3 503.8,-451.2 52.8,-103.9 83.2,-217.5 105.3,-331.4 23.9,-123.9 42.3,-249 46.4,-375.2 4,-123.7 -6.6,-249.9 -48.8,-367.1 -37.4,-104.2 -96.3,-201.2 -170,-283.8 -159.4,-178.7 -376.7,-275.1 -615.4,-283.3"
         style="fill:#ffffff;fill-opacity:1;fill-rule:nonzero;stroke:none"
         transform="matrix(0.13333333,0,0,-0.13333333,0,3678.08)" />
      <path
         id="path47"
         d="m 12007.3,17464.8 c -2.1,30.4 -57.3,5.8 -55.4,-22.1 9.5,-140.3 -37,-293.1 -101.7,-416.4 -65.3,-124.2 -162.4,-228.2 -266.9,-320.4 -223.5,-197.2 -477.3,-351.3 -759.3,-448.5 -280.8,-96.8 -578.4,-147.5 -873.02,-180.1 -293.24,-32.5 -601.78,-37.1 -882.53,66 -149.13,54.8 -279.42,140.6 -372.02,271.5 -49.88,70.6 -90.19,150.4 -122.49,230.4 -13.92,34.5 -28.19,69.8 -36.7,106 -6.04,25.8 -11.02,52.5 -31.95,70.5 -6.47,5.5 -21.98,-5.6 -16.21,-13.1 17.88,-23.1 15.3,-58.5 20.42,-86.1 7.36,-39.6 21.01,-78.7 34.84,-116.5 25.63,-70 57.24,-138.1 97.93,-200.7 76.71,-118.1 183.7,-209 311.14,-268.3 280.61,-130.4 600.91,-139.3 904.04,-113.1 307.05,26.5 618.05,78 912.25,170.9 149.1,47.1 294,107.2 430.6,183.3 130.4,72.8 252.5,162.1 367.9,256.7 126,103.2 244.7,222.5 323.4,366.5 75.3,137.6 126.5,305.7 115.7,463.5"
         style="fill:#231f20;fill-opacity:1;fill-rule:nonzero;stroke:none"
         transform="matrix(0.13333333,0,0,-0.13333333,0,3678.08)" />
      <path
         id="path48"
         d="m 11801.9,15580.7 c -86.9,87.3 -209.9,131.7 -328.9,152.7 -259.7,45.8 -536.1,4.3 -786.4,-85.7 -73,55.1 -177.6,67 -265.3,73.3 -148.5,10.6 -297.2,4.4 -443.36,-24.9 -278.26,-55.9 -537.16,-174.6 -760.38,-349.7 -214.28,-168.2 -397.23,-379 -528.01,-618.3 -122.52,-224.2 -210.13,-485.7 -197.15,-744.1 24.29,-483.8 427.6,-903.7 921.35,-897.6 241.57,3 475.32,84.1 673.55,220.7 195.5,134.7 355.2,314.7 494.4,505.6 142.7,195.8 268.1,405.4 388.2,615.8 75.9,133.1 145.6,269.8 224.5,401.2 32.3,53.9 66.8,106.4 103.2,157.6 22.1,-6.7 48.7,-7.3 69.1,-8.1 33.8,-1.2 67.7,-0.7 101.4,2.7 70.3,7.1 141.8,22.6 206,52.8 62,29.1 118,69.5 159.4,124.5 29.7,39.6 47.3,82 53.1,127.7 29.3,103.4 -9.3,218.1 -84.7,293.8"
         style="fill:#231f20;fill-opacity:1;fill-rule:nonzero;stroke:none"
         transform="matrix(0.13333333,0,0,-0.13333333,0,3678.08)" />
      <path
         id="path49"
         d="m 11772.4,15169.9 c -34.3,-41.7 -81.4,-71.2 -130.8,-91.8 -56.4,-23.5 -115,-38.4 -175.5,-46.6 -32.2,-4.3 -64.4,-8.2 -96.9,-10.1 -16.1,-1 -33.2,-1.5 -49.9,-3.2 0.6,0.8 1.1,1.7 1.7,2.4 44.4,59.7 91.9,120.4 152,165.1 61.2,45.5 134.9,75.2 211,52.9 28,-8.2 69.6,39.3 34,50.9 -132.6,43.3 -265.8,-40.6 -353.3,-135.3 -99.5,-107.7 -179.4,-233.3 -252.5,-359.9 -130.8,-226.4 -252.4,-457.2 -390.5,-679.5 -238.2,-383.2 -535.2,-788.4 -986.3,-927.2 -229.33,-70.6 -482.08,-66 -697.13,46.7 -203.73,106.7 -360.99,294.7 -435.75,511.7 -81.51,236.6 -53.96,488.1 27.92,720.7 88.79,252.3 240.05,481.6 426.81,672.1 180.67,184.3 398.22,337 641.11,427 146.76,54.3 301.46,91.2 457.54,104.6 127.3,11 267,9.9 393.3,-12.9 32,-5.7 64.5,-13.3 94.6,-26 -43.2,-16.7 -85.6,-34.6 -126.8,-53.9 -169.7,-79.4 -333,-181.8 -478.5,-299.9 -20.9,-17 3.9,-38.5 23.9,-25 204.4,138.5 416.5,263.8 648.7,343.5 0.9,0.3 1.8,0.5 2.7,1 61.8,21.1 125,39.2 189.9,53.2 153.3,33.1 312.1,45 468.5,30.6 114.5,-10.5 234.6,-43.1 329.4,-110.3 49,-34.6 90.7,-80.3 115.5,-135.5 16.1,-35.9 21.2,-72 23.1,-108.7 -11.9,-55.1 -32.2,-113.2 -67.8,-156.6"
         style="fill:#ffffff;fill-opacity:1;fill-rule:nonzero;stroke:none"
         transform="matrix(0.13333333,0,0,-0.13333333,0,3678.08)" />
      <path
         id="path50"
         d="m 10010.6,20734.6 c -36.28,-306.6 -314.24,-525.8 -620.87,-489.5 -306.61,36.3 -525.78,314.2 -489.52,620.9 36.26,306.6 314.22,525.8 620.85,489.5 306.61,-36.3 525.84,-314.2 489.54,-620.9"
         style="fill:#231f20;fill-opacity:1;fill-rule:nonzero;stroke:none"
         transform="matrix(0.13333333,0,0,-0.13333333,0,3678.08)" />
      <path
         id="path51"
         d="m 9935.8,20743.5 c -31.38,-265.4 -271.91,-455 -537.22,-423.6 -265.32,31.4 -454.98,271.9 -423.59,537.2 31.38,265.3 271.89,455 537.22,423.6 265.33,-31.4 454.96,-271.9 423.59,-537.2"
         style="fill:#919396;fill-opacity:1;fill-rule:nonzero;stroke:none"
         transform="matrix(0.13333333,0,0,-0.13333333,0,3678.08)" />
      <path
         id="path52"
         d="m 9737.99,20766.9 c -18.45,-156.1 -159.94,-267.7 -316.02,-249.2 -156.08,18.5 -267.64,159.9 -249.18,316 18.46,156.1 159.95,267.7 316.02,249.2 156.09,-18.5 267.64,-159.9 249.18,-316"
         style="fill:#231f20;fill-opacity:1;fill-rule:nonzero;stroke:none"
         transform="matrix(0.13333333,0,0,-0.13333333,0,3678.08)" />
      <path
         id="path53"
         d="m 9356.82,21024.6 c -6.4,-54.2 -55.52,-92.9 -109.68,-86.5 -54.17,6.4 -92.89,55.5 -86.47,109.7 6.39,54.1 55.5,92.8 109.67,86.4 54.17,-6.4 92.89,-55.5 86.48,-109.6"
         style="fill:#ffffff;fill-opacity:1;fill-rule:nonzero;stroke:none"
         transform="matrix(0.13333333,0,0,-0.13333333,0,3678.08)" />
      <path
         id="path54"
         d="m 9217.71,20820.9 c -3.8,-32.1 -32.9,-55.1 -65.01,-51.3 -32.11,3.8 -55.06,32.9 -51.25,65 3.79,32.1 32.9,55.1 64.99,51.3 32.11,-3.8 55.05,-32.9 51.27,-65"
         style="fill:#ffffff;fill-opacity:1;fill-rule:nonzero;stroke:none"
         transform="matrix(0.13333333,0,0,-0.13333333,0,3678.08)" />
      <path
         id="path55"
         d="m 9862.52,20799.8 c -3.14,18.1 -66.53,5.9 -69.5,-6.1 -30.58,-123.6 -81.5,-235.3 -199.81,-286.2 -55.21,-23.7 -114.24,-39.9 -176.05,-36.2 -58.26,3.4 -116.01,21.1 -165.55,50.6 -57.05,33.9 -103.62,83 -130.89,140.7 -4.93,10.5 -22.15,3.5 -27.33,-2.3 -45.64,-50.7 10.24,-140.6 45.56,-181.1 175.59,-201.6 538.02,-154.2 669.88,47 43.48,66.4 70.53,176.5 53.69,273.6"
         style="fill:#ffffff;fill-opacity:1;fill-rule:nonzero;stroke:none"
         transform="matrix(0.13333333,0,0,-0.13333333,0,3678.08)" />
      <path
         id="path56"
         d="m 12463.9,20655.2 c -38.9,-329.1 -337.3,-564.4 -666.4,-525.4 -329.1,38.9 -564.4,337.2 -525.5,666.4 39,329.1 337.3,564.4 666.5,525.4 329.1,-38.9 564.3,-337.2 525.4,-666.4"
         style="fill:#231f20;fill-opacity:1;fill-rule:nonzero;stroke:none"
         transform="matrix(0.13333333,0,0,-0.13333333,0,3678.08)" />
      <path
         id="path57"
         d="m 12383.6,20664.7 c -33.6,-284.8 -291.8,-488.4 -576.6,-454.7 -284.8,33.7 -488.4,291.9 -454.7,576.7 33.7,284.8 291.9,488.4 576.7,454.7 284.8,-33.7 488.3,-291.9 454.6,-576.7"
         style="fill:#919396;fill-opacity:1;fill-rule:nonzero;stroke:none"
         transform="matrix(0.13333333,0,0,-0.13333333,0,3678.08)" />
      <path
         id="path58"
         d="m 12171.3,20689.8 c -19.8,-167.5 -171.7,-287.3 -339.2,-267.4 -167.5,19.8 -287.3,171.6 -267.5,339.2 19.8,167.5 171.7,287.3 339.3,267.4 167.5,-19.8 287.2,-171.6 267.4,-339.2"
         style="fill:#231f20;fill-opacity:1;fill-rule:nonzero;stroke:none"
         transform="matrix(0.13333333,0,0,-0.13333333,0,3678.08)" />
      <path
         id="path59"
         d="m 11762.2,20966.4 c -6.9,-58.1 -59.6,-99.7 -117.8,-92.8 -58.1,6.9 -99.7,59.6 -92.8,117.7 6.9,58.2 59.6,99.7 117.7,92.9 58.2,-6.9 99.7,-59.6 92.9,-117.8"
         style="fill:#ffffff;fill-opacity:1;fill-rule:nonzero;stroke:none"
         transform="matrix(0.13333333,0,0,-0.13333333,0,3678.08)" />
      <path
         id="path60"
         d="m 11612.8,20747.8 c -4,-34.5 -35.3,-59.1 -69.7,-55 -34.5,4 -59.1,35.3 -55.1,69.7 4.1,34.5 35.4,59.1 69.8,55.1 34.5,-4.1 59.1,-35.4 55,-69.8"
         style="fill:#ffffff;fill-opacity:1;fill-rule:nonzero;stroke:none"
         transform="matrix(0.13333333,0,0,-0.13333333,0,3678.08)" />
      <path
         id="path61"
         d="m 12305,20725.1 c -3.4,19.5 -71.4,6.4 -74.6,-6.4 -32.8,-132.8 -87.5,-252.6 -214.5,-307.2 -59.3,-25.5 -122.6,-42.9 -189,-39 -62.5,3.7 -124.5,22.7 -177.7,54.3 -61.2,36.5 -111.2,89.2 -140.5,151.1 -5.3,11.2 -23.7,3.7 -29.3,-2.4 -49,-54.5 11,-151 48.9,-194.5 188.5,-216.3 577.5,-165.5 719.1,50.5 46.6,71.2 75.7,189.4 57.6,293.6"
         style="fill:#ffffff;fill-opacity:1;fill-rule:nonzero;stroke:none"
         transform="matrix(0.13333333,0,0,-0.13333333,0,3678.08)" />
    </g>
  </g>
</svg>
