<?xml version="1.0" encoding="UTF-8" standalone="no"?>
<!-- Created with Inkscape (http://www.inkscape.org/) -->

<svg
   version="1.1"
   id="svg1"
   width="666.66669"
   height="666.66669"
   viewBox="0 0 666.66669 666.66669"
   sodipodi:docname="10312221.eps"
   xmlns:inkscape="http://www.inkscape.org/namespaces/inkscape"
   xmlns:sodipodi="http://sodipodi.sourceforge.net/DTD/sodipodi-0.dtd"
   xmlns="http://www.w3.org/2000/svg"
   xmlns:svg="http://www.w3.org/2000/svg">
  <defs
     id="defs1" />
  <sodipodi:namedview
     id="namedview1"
     pagecolor="#ffffff"
     bordercolor="#000000"
     borderopacity="0.25"
     inkscape:showpageshadow="2"
     inkscape:pageopacity="0.0"
     inkscape:pagecheckerboard="0"
     inkscape:deskcolor="#d1d1d1">
    <inkscape:page
       x="0"
       y="0"
       inkscape:label="1"
       id="page1"
       width="666.66669"
       height="666.66669"
       margin="0"
       bleed="0" />
  </sodipodi:namedview>
  <g
     id="g1"
     inkscape:groupmode="layer"
     inkscape:label="1">
    <g
       id="group-R5">
      <path
         id="path2"
         d="M 0,0 V 5000 H 5000 V 0 H 0"
         style="fill:#ffffff;fill-opacity:1;fill-rule:nonzero;stroke:none"
         transform="matrix(0.13333333,0,0,-0.13333333,0,666.66667)" />
      <path
         id="path3"
         d="m 5092.09,4553.66 c -86.08,15.86 -179.92,-29.69 -220.71,-107.14 -40.78,-77.44 -25.26,-180.59 36.52,-242.6 -55.39,11.32 -103.42,-66.88 -68.27,-111.16 -165.66,-11.42 -313.05,-152.16 -332.1,-317.12 -19.06,-164.95 92.36,-335.58 251.06,-384.47 -91.02,-41.73 -150.2,-144.23 -140.84,-243.91 -50.04,44.83 -136.74,39.25 -180.62,-11.62 -152.86,218.81 -460.33,314.52 -710.38,221.12 1.61,132.19 -141.88,244.95 -269.95,212.13 58.56,134.88 -37.18,312.31 -182.07,337.41 100.69,116.84 85.28,315.08 -32.26,414.97 -117.53,99.88 -315.66,83.12 -414.74,-35.09 -27.02,74.28 -149.46,84.55 -188.48,15.8 -88.1,164.38 -308.65,242.72 -480.7,170.75 -172.05,-71.96 -271.14,-284.01 -215.97,-462.16 -107.86,25.11 -229.34,-36.93 -272.25,-139.02 -145.64,53 -309.51,-65.13 -359.16,-211.95 -49.65,-146.82 -15.14,-307.88 28.99,-456.45 -59.63,-5.1 -110.82,-59.85 -111.92,-119.68 -80.73,112.59 -230.693,170.75 -366.228,142.04 121.664,108.69 127.297,321.87 11.547,436.83 -115.754,114.96 -328.891,107.87 -436.743,-14.54 -25.613,75.62 -129.836,111.17 -196.32,66.97 62.145,115.73 50.988,266.97 -27.473,372.33 -78.457,105.35 -220.15972,159.38 -348.843,132.99 l 0.875,-3570.231 5289.455,74.571 -62.42,3829.23"
         style="fill:#ffffff;fill-opacity:1;fill-rule:nonzero;stroke:none"
         transform="matrix(0.13333333,0,0,-0.13333333,0,666.66667)" />
      <path
         id="path4"
         d="m 5092.09,4553.66 c -86.08,15.86 -179.92,-29.69 -220.71,-107.14 -40.78,-77.44 -25.26,-180.59 36.52,-242.6 -55.39,11.32 -103.42,-66.88 -68.27,-111.16 -165.66,-11.42 -313.05,-152.16 -332.1,-317.12 -19.06,-164.95 92.36,-335.58 251.06,-384.47 -91.02,-41.73 -150.2,-144.23 -140.84,-243.91 -50.04,44.83 -136.74,39.25 -180.62,-11.62 -152.86,218.81 -460.33,314.52 -710.38,221.12 1.61,132.19 -141.88,244.95 -269.95,212.13 58.56,134.88 -37.18,312.31 -182.07,337.41 100.69,116.84 85.28,315.08 -32.26,414.97 -117.53,99.88 -315.66,83.12 -414.74,-35.09 -27.02,74.28 -149.46,84.55 -188.48,15.8 -88.1,164.38 -308.65,242.72 -480.7,170.75 -172.05,-71.96 -271.14,-284.01 -215.97,-462.16 -107.86,25.11 -229.34,-36.93 -272.25,-139.02 -145.64,53 -309.51,-65.13 -359.16,-211.95 -49.65,-146.82 -15.14,-307.88 28.99,-456.45 -59.63,-5.1 -110.82,-59.85 -111.92,-119.68 -80.73,112.59 -230.693,170.75 -366.228,142.04 121.664,108.69 127.297,321.87 11.547,436.83 -115.754,114.96 -328.891,107.87 -436.743,-14.54 -25.613,75.62 -129.836,111.17 -196.32,66.97 62.145,115.73 50.988,266.97 -27.473,372.33 -78.457,105.35 -220.15972,159.38 -348.843,132.99 l 0.875,-3570.231 5289.455,74.571 z"
         style="fill:none;stroke:#100f0d;stroke-width:10;stroke-linecap:round;stroke-linejoin:round;stroke-miterlimit:10;stroke-dasharray:none;stroke-opacity:1"
         transform="matrix(0.13333333,0,0,-0.13333333,0,666.66667)" />
      <path
         id="path5"
         d="m -228.266,1264.54 c 10.77,67.42 64.825,124.52 128.4262,135.67 63.6015,11.16 132.1054,-24.47 162.75,-84.62 14.25,43.01 66.6598,66.28 105.5468,46.87 -15.656,66.22 -3.641,141.37 39.082,192.43 42.723,51.07 117.52,72.2 175.316,42.15 57.797,-30.05 87.372,-113.66 55.672,-173.08 44.504,56.53 136.426,59.92 184.528,6.81 33.375,73.32 129.133,105.28 196.082,65.45 66.949,-39.84 91.144,-143.18 49.547,-211.62 67.254,52.69 169.906,11.96 216.746,-61.5 46.83,-73.46 52.56,-167.09 55.13,-255.729 -458.923,-8.101 -916.724,-84.582 -1355.771,-226.5 37.391,128.41 -55.012,260.919 -13.055,523.669"
         style="fill:#ffffff;fill-opacity:1;fill-rule:nonzero;stroke:none"
         transform="matrix(0.13333333,0,0,-0.13333333,0,666.66667)" />
      <path
         id="path6"
         d="m -228.266,1264.54 c 10.77,67.42 64.825,124.52 128.4262,135.67 63.6015,11.16 132.1054,-24.47 162.75,-84.62 14.25,43.01 66.6598,66.28 105.5468,46.87 -15.656,66.22 -3.641,141.37 39.082,192.43 42.723,51.07 117.52,72.2 175.316,42.15 57.797,-30.05 87.372,-113.66 55.672,-173.08 44.504,56.53 136.426,59.92 184.528,6.81 33.375,73.32 129.133,105.28 196.082,65.45 66.949,-39.84 91.144,-143.18 49.547,-211.62 67.254,52.69 169.906,11.96 216.746,-61.5 46.83,-73.46 52.56,-167.09 55.13,-255.729 -458.923,-8.101 -916.724,-84.582 -1355.771,-226.5 37.391,128.41 -55.012,260.919 -13.055,523.669 z"
         style="fill:none;stroke:#100f0d;stroke-width:10;stroke-linecap:round;stroke-linejoin:round;stroke-miterlimit:10;stroke-dasharray:none;stroke-opacity:1"
         transform="matrix(0.13333333,0,0,-0.13333333,0,666.66667)" />
      <path
         id="path7"
         d="m 1144.55,4300.8 c 313.12,90.11 580.39,234.04 844.05,447.2 0,0 9.38,10.54 11.67,4.84 11.08,2.65 45.25,2.98 60.98,0.76 -245.82,-185.55 -450.59,-383.87 -960,-559.46"
         style="fill:#ffffff;fill-opacity:1;fill-rule:nonzero;stroke:#100f0d;stroke-width:10;stroke-linecap:round;stroke-linejoin:round;stroke-miterlimit:10;stroke-dasharray:none;stroke-opacity:1"
         transform="matrix(0.13333333,0,0,-0.13333333,0,666.66667)" />
      <path
         id="path8"
         d="m 744.434,3798.27 c 62.558,266.5 89.707,546.68 61.402,819.79 6.867,3.44 22.062,8.01 39.195,10.29 29.883,-288.31 18.024,-586.27 -12.371,-742.88"
         style="fill:#ffffff;fill-opacity:1;fill-rule:nonzero;stroke:#100f0d;stroke-width:10;stroke-linecap:round;stroke-linejoin:round;stroke-miterlimit:10;stroke-dasharray:none;stroke-opacity:1"
         transform="matrix(0.13333333,0,0,-0.13333333,0,666.66667)" />
      <path
         id="path9"
         d="m 317.633,3440.95 c 159.879,139.81 319.758,279.63 493.039,424.77 39.027,32.69 72.027,72.06 97.379,116.21 133.149,231.87 266.939,465.18 407.989,714.86 20.77,1.89 41.53,3.78 56.39,2.41 -136.55,-253.61 -273.1,-507.22 -410.543,-767.3 -25.813,-48.83 -60.879,-92.13 -102.836,-128.06 C 675.105,3646.34 509.102,3467.89 365.355,3273"
         style="fill:#ffffff;fill-opacity:1;fill-rule:nonzero;stroke:#100f0d;stroke-width:10;stroke-linecap:round;stroke-linejoin:round;stroke-miterlimit:10;stroke-dasharray:none;stroke-opacity:1"
         transform="matrix(0.13333333,0,0,-0.13333333,0,666.66667)" />
      <path
         id="path10"
         d="m 21.1758,879.52 c 69.5625,31.07 135.7732,69.601 199.3752,116.609 79.199,58.541 125.617,151.551 124.472,250.031 -7.671,659 -60.175,1316.55 -148.835,1953.55 -20.176,144.97 -23.04,293.14 7.484,436.29 48.168,225.88 138.644,443.79 242.105,692.14 14.703,35.29 32.102,69.43 41.676,106.44 41.707,161.26 66.34,328.79 75.899,512.83 26.753,9.36 53.503,18.73 89.761,16.06 0.797,-198.12 -19.976,-396.31 -68.355,-597.12 -3.949,-16.39 -8.973,-32.51 -14.629,-48.4 -88.621,-248.81 -153.652,-513.97 -194.684,-799.3 -8.793,-61.17 -8.601,-123.4 -0.031,-184.59 95.121,-679.14 190.016,-1350.44 279.641,-2043.84 11.16,-86.35 67.523,-160.18 147.875,-193.73 116.3,-48.55 237.69,-84.91 361.55,-108.189"
         style="fill:#ffffff;fill-opacity:1;fill-rule:nonzero;stroke:#100f0d;stroke-width:10;stroke-linecap:round;stroke-linejoin:round;stroke-miterlimit:10;stroke-dasharray:none;stroke-opacity:1"
         transform="matrix(0.13333333,0,0,-0.13333333,0,666.66667)" />
      <path
         id="path11"
         d="m 239.785,3743.39 c 0,104.78 -23.765,222.73 -70.164,348.56 -14.039,38.09 -20.871,78.41 -21.601,118.99 -3.129,173.66 -24.141,347.96 -61.688,527.06 17.492,4.77 12.4883,2.64 42.356,17.07 39.335,-153.97 58.707,-301.39 87.71,-472.04 7.227,-42.54 17.297,-85.03 37.09,-123.37 l 79.45,-136.89"
         style="fill:#ffffff;fill-opacity:1;fill-rule:nonzero;stroke:#100f0d;stroke-width:10;stroke-linecap:round;stroke-linejoin:round;stroke-miterlimit:10;stroke-dasharray:none;stroke-opacity:1"
         transform="matrix(0.13333333,0,0,-0.13333333,0,666.66667)" />
      <path
         id="path12"
         d="m 1286.24,5125.82 c 25.33,-172.2 215.5,-300.57 384.68,-259.65 36.48,-42.46 106.65,-50.44 151.73,-17.25 -15.54,-79.65 23.52,-167.05 93.22,-208.6 69.71,-41.56 165.17,-34.35 227.84,17.2 25.56,-61.21 130.32,-61.91 156.69,-1.05 48.22,-54.02 130.28,-74.84 198.42,-50.34 68.14,24.5 118.15,92.8 120.93,165.16 35.42,-36.16 110.29,4.15 99.6,53.63 39.27,-21.61 95.85,2.51 107.45,45.8 -3.54,-68.89 51.46,-135.84 119.73,-145.75 68.27,-9.91 140.04,38.66 156.22,105.71 51.3,-19.9 113.34,37.68 97.32,90.32 44.04,-89.96 157.04,-139.59 253.07,-111.15 96.04,28.45 163.79,131.61 151.73,231.04 32.94,20.26 39.46,72.64 12.5,100.36 57.8,-31.13 134.79,-21.73 183.41,22.4 48.62,44.13 65.4,119.85 40,180.39 l -2529.36,12.75 -25.18,-230.97"
         style="fill:#ffffff;fill-opacity:1;fill-rule:nonzero;stroke:none"
         transform="matrix(0.13333333,0,0,-0.13333333,0,666.66667)" />
      <path
         id="path13"
         d="m 1286.24,5125.82 c 25.33,-172.2 215.5,-300.57 384.68,-259.65 36.48,-42.46 106.65,-50.44 151.73,-17.25 -15.54,-79.65 23.52,-167.05 93.22,-208.6 69.71,-41.56 165.17,-34.35 227.84,17.2 25.56,-61.21 130.32,-61.91 156.69,-1.05 48.22,-54.02 130.28,-74.84 198.42,-50.34 68.14,24.5 118.15,92.8 120.93,165.16 35.42,-36.16 110.29,4.15 99.6,53.63 39.27,-21.61 95.85,2.51 107.45,45.8 -3.54,-68.89 51.46,-135.84 119.73,-145.75 68.27,-9.91 140.04,38.66 156.22,105.71 51.3,-19.9 113.34,37.68 97.32,90.32 44.04,-89.96 157.04,-139.59 253.07,-111.15 96.04,28.45 163.79,131.61 151.73,231.04 32.94,20.26 39.46,72.64 12.5,100.36 57.8,-31.13 134.79,-21.73 183.41,22.4 48.62,44.13 65.4,119.85 40,180.39 l -2529.36,12.75 z"
         style="fill:none;stroke:#100f0d;stroke-width:10;stroke-linecap:round;stroke-linejoin:round;stroke-miterlimit:10;stroke-dasharray:none;stroke-opacity:1"
         transform="matrix(0.13333333,0,0,-0.13333333,0,666.66667)" />
      <path
         id="path14"
         d="m 1915.88,4888.1 c -17.52,-65.21 -109.54,-95.61 -162.45,-53.67 11.95,-59.51 -12.67,-124.85 -60.91,-161.68 -48.24,-36.84 -117.76,-43.36 -172.01,-16.15 0.06,-65.95 -95.73,-106.84 -143.31,-61.17 -21.73,-80.62 -106.91,-138.87 -189.92,-129.89 -83.01,8.98 -153.76,84.1 -157.75,167.5 -18.2,-41.9 -88.971,-43.93 -109.542,-3.14 -27.55,-81.37 -127.265,-129.9 -208.3,-101.36 -81.032,28.53 -128.344,128.83 -98.829,209.51 -31.242,-39.94 -85.832,-60.1 -135.535,-50.06 -49.703,10.05 -92.179,49.82 -105.465,98.76 -10.328,-42.01 -74.535,-56.98 -102.379,-23.87 -9.937,-56.24 -55.839,-104.4 -111.535,-117.04 -55.691,-12.63 -117.8864,11.03 -151.10906,57.48 -40.29294,-76.21 -167.21094,-82.1 -206.47294,-4.09 -15.539,142.69 -31.082,285.39 -31.851,456.37 690.898,14.48 1381.798,28.96 2072.698,43.44"
         style="fill:#ffffff;fill-opacity:1;fill-rule:nonzero;stroke:#100f0d;stroke-width:10;stroke-linecap:round;stroke-linejoin:round;stroke-miterlimit:10;stroke-dasharray:none;stroke-opacity:1"
         transform="matrix(0.13333333,0,0,-0.13333333,0,666.66667)" />
      <path
         id="path15"
         d="m -98.0391,-155.668 -19.9999,1055.18 c 1898.209,236.328 3709.119,308.928 5309.999,60 l -20,-1115.18 H -98.0391"
         style="fill:#ffffff;fill-opacity:1;fill-rule:nonzero;stroke:none"
         transform="matrix(0.13333333,0,0,-0.13333333,0,666.66667)" />
      <path
         id="path16"
         d="m -98.0391,-155.668 -19.9999,1055.18 c 1898.209,236.328 3709.119,308.928 5309.999,60 l -20,-1115.18 z"
         style="fill:none;stroke:#100f0d;stroke-width:10;stroke-linecap:round;stroke-linejoin:round;stroke-miterlimit:10;stroke-dasharray:none;stroke-opacity:1"
         transform="matrix(0.13333333,0,0,-0.13333333,0,666.66667)" />
      <path
         id="path17"
         d="m 3949.96,645.969 c 0.83,9.269 3.04,18.41 6.87,28.242 2.34,6.008 5.93,11.469 10.65,15.871 l 15.39,14.289 c 11.76,10.918 32.69,13.129 45.9,4.008 13.27,-9.149 25.16,-21.93 36.09,-39.809 4.55,-6.98 7.48,-15 9.21,-24.871 -41.12,-5.98 -83.06,-6.328 -124.11,2.27"
         style="fill:#ffffff;fill-opacity:1;fill-rule:nonzero;stroke:none"
         transform="matrix(0.13333333,0,0,-0.13333333,0,666.66667)" />
      <path
         id="path18"
         d="m 3949.96,645.969 c 0.83,9.269 3.04,18.41 6.87,28.242 2.34,6.008 5.93,11.469 10.65,15.871 l 15.39,14.289 c 11.76,10.918 32.69,13.129 45.9,4.008 13.27,-9.149 25.16,-21.93 36.09,-39.809 4.55,-6.98 7.48,-15 9.21,-24.871 -41.12,-5.98 -83.06,-6.328 -124.11,2.27 z"
         style="fill:none;stroke:#100f0d;stroke-width:10;stroke-linecap:round;stroke-linejoin:round;stroke-miterlimit:10;stroke-dasharray:none;stroke-opacity:1"
         transform="matrix(0.13333333,0,0,-0.13333333,0,666.66667)" />
      <path
         id="path19"
         d="m 1686.42,370.281 c 0.82,9.27 3.04,18.41 6.86,28.231 2.34,6.008 5.93,11.476 10.65,15.879 l 15.39,14.289 c 11.77,10.922 32.69,13.129 45.91,4.011 13.27,-9.16 25.15,-21.929 36.09,-39.82 4.55,-6.973 7.48,-15 9.21,-24.859 -41.12,-5.992 -83.06,-6.34 -124.11,2.269"
         style="fill:#ffffff;fill-opacity:1;fill-rule:nonzero;stroke:none"
         transform="matrix(0.13333333,0,0,-0.13333333,0,666.66667)" />
      <path
         id="path20"
         d="m 1686.42,370.281 c 0.82,9.27 3.04,18.41 6.86,28.231 2.34,6.008 5.93,11.476 10.65,15.879 l 15.39,14.289 c 11.77,10.922 32.69,13.129 45.91,4.011 13.27,-9.16 25.15,-21.929 36.09,-39.82 4.55,-6.973 7.48,-15 9.21,-24.859 -41.12,-5.992 -83.06,-6.34 -124.11,2.269 z"
         style="fill:none;stroke:#100f0d;stroke-width:10;stroke-linecap:round;stroke-linejoin:round;stroke-miterlimit:10;stroke-dasharray:none;stroke-opacity:1"
         transform="matrix(0.13333333,0,0,-0.13333333,0,666.66667)" />
      <path
         id="path21"
         d="m 3030.72,256.172 c -9.78,32.16 -46.02,53.758 -78.96,47.078 -15.52,16.32 -30.22,30.691 -44.63,44.359 -17.03,16.153 -42.33,20.77 -63.58,10.801 -44.51,-20.879 -71.81,-59.379 -80.9,-105.91 84.13,-7.602 169.04,-6.629 268.07,3.672"
         style="fill:#ffffff;fill-opacity:1;fill-rule:nonzero;stroke:none"
         transform="matrix(0.13333333,0,0,-0.13333333,0,666.66667)" />
      <path
         id="path22"
         d="m 3030.72,256.172 c -9.78,32.16 -46.02,53.758 -78.96,47.078 -15.52,16.32 -30.22,30.691 -44.63,44.359 -17.03,16.153 -42.33,20.77 -63.58,10.801 -44.51,-20.879 -71.81,-59.379 -80.9,-105.91 84.13,-7.602 169.04,-6.629 268.07,3.672 z"
         style="fill:none;stroke:#100f0d;stroke-width:10;stroke-linecap:round;stroke-linejoin:round;stroke-miterlimit:10;stroke-dasharray:none;stroke-opacity:1"
         transform="matrix(0.13333333,0,0,-0.13333333,0,666.66667)" />
      <path
         id="path23"
         d="m 2823.13,318.629 c -12.6,-6.078 -20.47,-20.719 -18.59,-34.578"
         style="fill:none;stroke:#100f0d;stroke-width:10;stroke-linecap:round;stroke-linejoin:round;stroke-miterlimit:10;stroke-dasharray:none;stroke-opacity:1"
         transform="matrix(0.13333333,0,0,-0.13333333,0,666.66667)" />
      <path
         id="path24"
         d="m 759.98,686.48 c 3.731,22.122 14.774,42.942 32.215,60.579 16.243,7.011 35.672,6.152 53.293,0.531 7.246,16.051 17.594,30.68 31.828,44.16 8.829,8.371 21.707,11.582 33.282,7.852 0.441,-0.141 0.89,-0.293 1.34,-0.454 11.523,-3.957 20.097,-13.91 22.464,-25.867 5.059,-25.519 6.93,-52.711 5.661,-85.23 C 885.941,673.57 828.195,672.859 759.98,686.48"
         style="fill:#ffffff;fill-opacity:1;fill-rule:nonzero;stroke:#100f0d;stroke-width:10;stroke-linecap:round;stroke-linejoin:round;stroke-miterlimit:10;stroke-dasharray:none;stroke-opacity:1"
         transform="matrix(0.13333333,0,0,-0.13333333,0,666.66667)" />
      <path
         id="path25"
         d="m 908.027,755.582 c 3.879,-12.402 5.184,-25.594 3.801,-38.512"
         style="fill:none;stroke:#100f0d;stroke-width:10;stroke-linecap:round;stroke-linejoin:round;stroke-miterlimit:10;stroke-dasharray:none;stroke-opacity:1"
         transform="matrix(0.13333333,0,0,-0.13333333,0,666.66667)" />
      <path
         id="path26"
         d="m 2964.47,1769 c 29.84,-112.42 59.68,-224.84 91.32,-350.8 22.4,-89.17 54.67,-175.62 96.56,-257.47 69.04,-134.9 136.95,-289.148 199.61,-434.691 9.83,-22.848 30.54,-39.23 55.12,-43.098 161.26,-25.371 365.3,-22.043 535.8,16.188 19.67,4.41 31.69,24.582 25.82,43.871 -36.6,120.219 -139.12,286.37 -201.26,446.08 -8,20.58 -12.68,42.36 -13.88,64.41 -16.29,300.28 -32.59,571.1 -48.89,873.53"
         style="fill:#ffffff;fill-opacity:1;fill-rule:nonzero;stroke:#100f0d;stroke-width:10;stroke-linecap:round;stroke-linejoin:round;stroke-miterlimit:10;stroke-dasharray:none;stroke-opacity:1"
         transform="matrix(0.13333333,0,0,-0.13333333,0,666.66667)" />
      <path
         id="path27"
         d="m 3892.51,699.961 c 2.83,45.25 8.77,79.879 53.63,104.918 28.6,-13.969 54.79,-37.809 69.81,-67.129 7.4,-14.441 -0.91,-31.84 -16.85,-34.828 -29.99,-5.621 -71.23,-8.59 -106.59,-2.961"
         style="fill:#ffffff;fill-opacity:1;fill-rule:nonzero;stroke:none"
         transform="matrix(0.13333333,0,0,-0.13333333,0,666.66667)" />
      <path
         id="path28"
         d="m 3892.51,699.961 c 2.83,45.25 8.77,79.879 53.63,104.918 28.6,-13.969 54.79,-37.809 69.81,-67.129 7.4,-14.441 -0.91,-31.84 -16.85,-34.828 -29.99,-5.621 -71.23,-8.59 -106.59,-2.961 z"
         style="fill:none;stroke:#100f0d;stroke-width:10;stroke-linecap:round;stroke-linejoin:round;stroke-miterlimit:10;stroke-dasharray:none;stroke-opacity:1"
         transform="matrix(0.13333333,0,0,-0.13333333,0,666.66667)" />
      <path
         id="path29"
         d="m 3940.79,684.988 c 12.02,4.871 17.52,18.742 12.73,30.793 -8.66,21.801 -22.05,46.289 -36.35,61.059 -19.38,20.031 -48.38,33.129 -75.36,26.14 -23.56,-6.101 -41.37,-26.371 -50.76,-48.808 -9.4,-22.442 -11.68,-47.113 -10.6,-80.563 48.82,-8.418 100.86,-12.718 160.34,11.379"
         style="fill:#ffffff;fill-opacity:1;fill-rule:nonzero;stroke:none"
         transform="matrix(0.13333333,0,0,-0.13333333,0,666.66667)" />
      <path
         id="path30"
         d="m 3940.79,684.988 c 12.02,4.871 17.52,18.742 12.73,30.793 -8.66,21.801 -22.05,46.289 -36.35,61.059 -19.38,20.031 -48.38,33.129 -75.36,26.14 -23.56,-6.101 -41.37,-26.371 -50.76,-48.808 -9.4,-22.442 -11.68,-47.113 -10.6,-80.563 48.82,-8.418 100.86,-12.718 160.34,11.379 z"
         style="fill:none;stroke:#100f0d;stroke-width:10;stroke-linecap:round;stroke-linejoin:round;stroke-miterlimit:10;stroke-dasharray:none;stroke-opacity:1"
         transform="matrix(0.13333333,0,0,-0.13333333,0,666.66667)" />
      <path
         id="path31"
         d="m 3776.8,665.031 c 11.61,2.629 17.79,15.258 13.14,26.219 -4.9,11.551 -10.7,22.672 -18.28,32.641 -12.03,15.808 -29.16,28.597 -48.79,31.64 -23.09,3.571 -47.04,-7.121 -62.55,-24.582 -15.51,-17.469 -23.23,-40.879 -24.4,-64.527 45.88,-10.942 94.07,-11.981 140.88,-1.391"
         style="fill:#ffffff;fill-opacity:1;fill-rule:nonzero;stroke:none"
         transform="matrix(0.13333333,0,0,-0.13333333,0,666.66667)" />
      <path
         id="path32"
         d="m 3776.8,665.031 c 11.61,2.629 17.79,15.258 13.14,26.219 -4.9,11.551 -10.7,22.672 -18.28,32.641 -12.03,15.808 -29.16,28.597 -48.79,31.64 -23.09,3.571 -47.04,-7.121 -62.55,-24.582 -15.51,-17.469 -23.23,-40.879 -24.4,-64.527 45.88,-10.942 94.07,-11.981 140.88,-1.391 z"
         style="fill:none;stroke:#100f0d;stroke-width:10;stroke-linecap:round;stroke-linejoin:round;stroke-miterlimit:10;stroke-dasharray:none;stroke-opacity:1"
         transform="matrix(0.13333333,0,0,-0.13333333,0,666.66667)" />
      <path
         id="path33"
         d="m 1491.8,895.059 c 246.41,193.431 448.98,459.621 512.69,779.251 -154.68,30.13 -361.1,119.71 -507.78,192.19 -65.94,-0.04 -131.87,-8.06 -191.51,-17.06 -69.26,-244.09 -222.85,-508.16 -399.345,-710.65 -12.046,-13.82 -15.976,-32.57 -9.894,-49.6 49.09,-137.499 162.589,-257.35 295.669,-326.581"
         style="fill:#ffffff;fill-opacity:1;fill-rule:nonzero;stroke:#100f0d;stroke-width:10;stroke-linecap:round;stroke-linejoin:round;stroke-miterlimit:10;stroke-dasharray:none;stroke-opacity:1"
         transform="matrix(0.13333333,0,0,-0.13333333,0,666.66667)" />
      <path
         id="path34"
         d="m 3121.87,1701 c -168.12,-65.37 -343.64,-111.69 -522.12,-137.81 -345.55,-19.48 -667.37,20.26 -959.57,135.83 -243.85,127.37 -437.76,313.23 -554.43,539.77 -101.785,197.63 -144.23,425.15 -122.055,646.26 6.246,62.28 31.762,121.29 73.415,168.01 137.69,154.46 304.96,271.09 487.34,347.87 167.21,70.39 350.5,93.91 530.64,72.39 294.14,-35.13 590.96,-84.55 884.47,-196.17 301.61,-206.41 558.07,-457.97 859.68,-664.37"
         style="fill:#ffffff;fill-opacity:1;fill-rule:nonzero;stroke:#100f0d;stroke-width:10;stroke-linecap:round;stroke-linejoin:round;stroke-miterlimit:10;stroke-dasharray:none;stroke-opacity:1"
         transform="matrix(0.13333333,0,0,-0.13333333,0,666.66667)" />
      <path
         id="path35"
         d="m 553.785,2064.28 c -44.078,-36.29 -72.027,-90.11 -75.711,-145.8 -3.679,-55.68 16.961,-112.47 61.774,-153.87 -8.121,17.3 -10.047,37.23 -4.231,60.18 10.367,-44.48 38.184,-84.98 76.653,-111.62 38.464,-26.63 87.238,-39.16 137.668,-35.99 -34.293,27.67 -50.676,74.35 -41.032,124.7 4,-20.85 8.004,-41.71 12.004,-62.56 54.535,52.49 60.274,141.21 23.403,206.39 -36.872,65.19 -109.309,107.24 -190.528,118.57"
         style="fill:#ffffff;fill-opacity:1;fill-rule:nonzero;stroke:none"
         transform="matrix(0.13333333,0,0,-0.13333333,0,666.66667)" />
      <path
         id="path36"
         d="m 553.785,2064.28 c -44.078,-36.29 -72.027,-90.11 -75.711,-145.8 -3.679,-55.68 16.961,-112.47 61.774,-153.87 -8.121,17.3 -10.047,37.23 -4.231,60.18 10.367,-44.48 38.184,-84.98 76.653,-111.62 38.464,-26.63 87.238,-39.16 137.668,-35.99 -34.293,27.67 -50.676,74.35 -41.032,124.7 4,-20.85 8.004,-41.71 12.004,-62.56 54.535,52.49 60.274,141.21 23.403,206.39 -36.872,65.19 -109.309,107.24 -190.528,118.57 z"
         style="fill:none;stroke:#100f0d;stroke-width:10;stroke-linecap:round;stroke-linejoin:round;stroke-miterlimit:10;stroke-dasharray:none;stroke-opacity:1"
         transform="matrix(0.13333333,0,0,-0.13333333,0,666.66667)" />
      <path
         id="path37"
         d="m 1157.08,3154.17 c -118.37,-77.55 -212.494,-188.84 -267.31,-316.07 -29.04,-67.4 -47.805,-140 -90.989,-199.98 -41.183,-57.2 -101.664,-98.76 -148.949,-151.42 -68.594,-76.4 -107.621,-175.46 -116.211,-276.05 -8.586,-100.59 12.348,-202.5 62.871,-308.2 -14.644,84.41 -27.617,169.86 -21.887,255.26 5.735,85.39 31.524,171.63 87.2,238.38 72.144,86.49 188.043,133.85 251.672,226.32 30.257,43.96 46.597,95.37 73.234,141.45 26.639,46.08 68.559,89.26 122.909,96.24 1.27,96.93 16.33,193.69 47.46,294.07"
         style="fill:#ffffff;fill-opacity:1;fill-rule:nonzero;stroke:none"
         transform="matrix(0.13333333,0,0,-0.13333333,0,666.66667)" />
      <path
         id="path38"
         d="m 1157.08,3154.17 c -118.37,-77.55 -212.494,-188.84 -267.31,-316.07 -29.04,-67.4 -47.805,-140 -90.989,-199.98 -41.183,-57.2 -101.664,-98.76 -148.949,-151.42 -68.594,-76.4 -107.621,-175.46 -116.211,-276.05 -8.586,-100.59 12.348,-202.5 62.871,-308.2 -14.644,84.41 -27.617,169.86 -21.887,255.26 5.735,85.39 31.524,171.63 87.2,238.38 72.144,86.49 188.043,133.85 251.672,226.32 30.257,43.96 46.597,95.37 73.234,141.45 26.639,46.08 68.559,89.26 122.909,96.24 1.27,96.93 16.33,193.69 47.46,294.07 z"
         style="fill:none;stroke:#100f0d;stroke-width:10;stroke-linecap:round;stroke-linejoin:round;stroke-miterlimit:10;stroke-dasharray:none;stroke-opacity:1"
         transform="matrix(0.13333333,0,0,-0.13333333,0,666.66667)" />
      <path
         id="path39"
         d="m 2172.33,2186.04 c -27.69,-60.23 -55.38,-120.46 -84.79,-182.05 -38.8,-81.27 -55.7,-171.29 -48.89,-261.1 16.02,-211.16 32.24,-424.69 49.5,-651.33 5.51,-72.29 18.76,-143.939 41.52,-212.779 17.66,-53.449 32.87,-108.812 45.47,-167.801 7.5,-35.109 34.24,-63.242 69.33,-70.82 181.29,-39.148 413.32,-27.308 565,-3.922 30.89,4.762 52.25,32.852 49.11,63.942 -10.21,101.371 -48.02,213.82 -72.95,309.36 -14.13,142.93 -28.27,286.53 -20.59,429.95 7.68,143.42 38.13,287.82 108.19,413.2"
         style="fill:#ffffff;fill-opacity:1;fill-rule:nonzero;stroke:#100f0d;stroke-width:10;stroke-linecap:round;stroke-linejoin:round;stroke-miterlimit:10;stroke-dasharray:none;stroke-opacity:1"
         transform="matrix(0.13333333,0,0,-0.13333333,0,666.66667)" />
      <path
         id="path40"
         d="m 2750.45,627.52 c 3.76,33.812 8.98,61.562 30.8,82.96 14.49,14.219 37.43,15.012 53.04,2.032 17.3,-14.403 31.99,-32.66 41.3,-53.25 6.68,-14.762 -2.45,-31.711 -18.49,-33.922 -30.23,-4.168 -71.58,-5.16 -106.65,2.18"
         style="fill:#ffffff;fill-opacity:1;fill-rule:nonzero;stroke:none"
         transform="matrix(0.13333333,0,0,-0.13333333,0,666.66667)" />
      <path
         id="path41"
         d="m 2750.45,627.52 c 3.76,33.812 8.98,61.562 30.8,82.96 14.49,14.219 37.43,15.012 53.04,2.032 17.3,-14.403 31.99,-32.66 41.3,-53.25 6.68,-14.762 -2.45,-31.711 -18.49,-33.922 -30.23,-4.168 -71.58,-5.16 -106.65,2.18 z"
         style="fill:none;stroke:#100f0d;stroke-width:10;stroke-linecap:round;stroke-linejoin:round;stroke-miterlimit:10;stroke-dasharray:none;stroke-opacity:1"
         transform="matrix(0.13333333,0,0,-0.13333333,0,666.66667)" />
      <path
         id="path42"
         d="m 2772.37,612.961 c 12.24,4.289 18.4,17.871 14.2,30.141 -7.6,22.187 -19.79,47.296 -33.36,62.738 -18.4,20.941 -46.73,35.43 -74.02,29.75 -23.81,-4.961 -42.58,-24.34 -53.05,-46.301 -10.47,-21.957 -13.94,-46.488 -14.47,-79.949 48.35,-10.781 100.12,-17.578 160.7,3.621"
         style="fill:#ffffff;fill-opacity:1;fill-rule:nonzero;stroke:none"
         transform="matrix(0.13333333,0,0,-0.13333333,0,666.66667)" />
      <path
         id="path43"
         d="m 2772.37,612.961 c 12.24,4.289 18.4,17.871 14.2,30.141 -7.6,22.187 -19.79,47.296 -33.36,62.738 -18.4,20.941 -46.73,35.43 -74.02,29.75 -23.81,-4.961 -42.58,-24.34 -53.05,-46.301 -10.47,-21.957 -13.94,-46.488 -14.47,-79.949 48.35,-10.781 100.12,-17.578 160.7,3.621 z"
         style="fill:none;stroke:#100f0d;stroke-width:10;stroke-linecap:round;stroke-linejoin:round;stroke-miterlimit:10;stroke-dasharray:none;stroke-opacity:1"
         transform="matrix(0.13333333,0,0,-0.13333333,0,666.66667)" />
      <path
         id="path44"
         d="m 2606.29,602.301 c 11.77,1.758 18.87,13.898 15.05,25.168 -4.04,11.883 -9,23.402 -15.82,33.902 -10.82,16.66 -26.95,30.688 -46.31,35.168 -22.75,5.281 -47.43,-3.609 -64.19,-19.867 -16.77,-16.274 -26.2,-39.043 -29.12,-62.543 44.94,-14.309 92.92,-18.918 140.39,-11.828"
         style="fill:#ffffff;fill-opacity:1;fill-rule:nonzero;stroke:none"
         transform="matrix(0.13333333,0,0,-0.13333333,0,666.66667)" />
      <path
         id="path45"
         d="m 2606.29,602.301 c 11.77,1.758 18.87,13.898 15.05,25.168 -4.04,11.883 -9,23.402 -15.82,33.902 -10.82,16.66 -26.95,30.688 -46.31,35.168 -22.75,5.281 -47.43,-3.609 -64.19,-19.867 -16.77,-16.274 -26.2,-39.043 -29.12,-62.543 44.94,-14.309 92.92,-18.918 140.39,-11.828 z"
         style="fill:none;stroke:#100f0d;stroke-width:10;stroke-linecap:round;stroke-linejoin:round;stroke-miterlimit:10;stroke-dasharray:none;stroke-opacity:1"
         transform="matrix(0.13333333,0,0,-0.13333333,0,666.66667)" />
      <path
         id="path46"
         d="m 3002.46,1945.92 c -29.39,-56.57 -68.28,-108.2 -114.54,-152.07"
         style="fill:none;stroke:#100f0d;stroke-width:10;stroke-linecap:round;stroke-linejoin:round;stroke-miterlimit:10;stroke-dasharray:none;stroke-opacity:1"
         transform="matrix(0.13333333,0,0,-0.13333333,0,666.66667)" />
      <path
         id="path47"
         d="m 2945.92,1794.19 c -19.56,-31.66 -49.06,-57.08 -83.28,-71.74"
         style="fill:none;stroke:#100f0d;stroke-width:10;stroke-linecap:round;stroke-linejoin:round;stroke-miterlimit:10;stroke-dasharray:none;stroke-opacity:1"
         transform="matrix(0.13333333,0,0,-0.13333333,0,666.66667)" />
      <path
         id="path48"
         d="m 2120.38,2324.47 c -49.97,-96.62 -77.25,-204.88 -79.02,-313.64"
         style="fill:none;stroke:#100f0d;stroke-width:10;stroke-linecap:round;stroke-linejoin:round;stroke-miterlimit:10;stroke-dasharray:none;stroke-opacity:1"
         transform="matrix(0.13333333,0,0,-0.13333333,0,666.66667)" />
      <path
         id="path49"
         d="m 1248.86,3245.2 c -107.8,-75.77 -204.77,-167.09 -274.219,-272.85 -36.805,-56.05 -59.789,-120.02 -68.926,-186.45 -12.238,-88.96 -24.578,-178.37 -37.344,-269.72 -31.652,-226.49 -20.238,-456.6 29.766,-679.76 81.074,-361.81 110.653,-737 143.653,-1114.541 1.42,-16.258 13.46,-29.668 29.51,-32.637 198.1,-36.73 411.32,-56.972 616.49,-0.031 17.81,4.937 30.13,21.187 29.81,39.668 -1.17,67.383 -9.25,140.43 -22.13,201.601 -10.7,50.79 -14.33,102.77 -9.85,154.48 19.1,220.08 29.58,443.69 32.96,664.23 -1.27,246.8 -241.2,443.23 -245.49,690"
         style="fill:#ffffff;fill-opacity:1;fill-rule:nonzero;stroke:#100f0d;stroke-width:10;stroke-linecap:round;stroke-linejoin:round;stroke-miterlimit:10;stroke-dasharray:none;stroke-opacity:1"
         transform="matrix(0.13333333,0,0,-0.13333333,0,666.66667)" />
      <path
         id="path50"
         d="m 1598.63,668.73 c 3.95,33.79 9.33,61.508 31.25,82.79 14.58,14.14 37.52,14.812 53.06,1.73 17.22,-14.48 31.81,-32.828 41.01,-53.469 6.59,-14.793 -2.63,-31.691 -18.69,-33.82 -30.24,-4 -71.6,-4.762 -106.63,2.769"
         style="fill:#ffffff;fill-opacity:1;fill-rule:nonzero;stroke:none"
         transform="matrix(0.13333333,0,0,-0.13333333,0,666.66667)" />
      <path
         id="path51"
         d="m 1598.63,668.73 c 3.95,33.79 9.33,61.508 31.25,82.79 14.58,14.14 37.52,14.812 53.06,1.73 17.22,-14.48 31.81,-32.828 41.01,-53.469 6.59,-14.793 -2.63,-31.691 -18.69,-33.82 -30.24,-4 -71.6,-4.762 -106.63,2.769 z"
         style="fill:none;stroke:#100f0d;stroke-width:10;stroke-linecap:round;stroke-linejoin:round;stroke-miterlimit:10;stroke-dasharray:none;stroke-opacity:1"
         transform="matrix(0.13333333,0,0,-0.13333333,0,666.66667)" />
      <path
         id="path52"
         d="m 1588.15,657.422 c 12.75,4.258 19.14,17.828 14.74,30.109 -7.97,22.211 -20.74,47.34 -34.91,62.809 -19.22,20.98 -48.79,35.531 -77.23,29.91 -24.82,-4.91 -44.35,-24.25 -55.22,-46.191 -10.87,-21.95 -14.44,-46.477 -14.92,-79.938 50.43,-10.871 104.42,-17.789 167.54,3.301"
         style="fill:#ffffff;fill-opacity:1;fill-rule:nonzero;stroke:none"
         transform="matrix(0.13333333,0,0,-0.13333333,0,666.66667)" />
      <path
         id="path53"
         d="m 1588.15,657.422 c 12.75,4.258 19.14,17.828 14.74,30.109 -7.97,22.211 -20.74,47.34 -34.91,62.809 -19.22,20.98 -48.79,35.531 -77.23,29.91 -24.82,-4.91 -44.35,-24.25 -55.22,-46.191 -10.87,-21.95 -14.44,-46.477 -14.92,-79.938 50.43,-10.871 104.42,-17.789 167.54,3.301 z"
         style="fill:none;stroke:#100f0d;stroke-width:10;stroke-linecap:round;stroke-linejoin:round;stroke-miterlimit:10;stroke-dasharray:none;stroke-opacity:1"
         transform="matrix(0.13333333,0,0,-0.13333333,0,666.66667)" />
      <path
         id="path54"
         d="m 1406.73,647.082 c 11.77,1.758 18.88,13.898 15.05,25.168 -4.03,11.891 -8.99,23.41 -15.81,33.91 -10.83,16.66 -26.95,30.68 -46.31,35.172 -22.76,5.277 -47.43,-3.613 -64.2,-19.883 -16.77,-16.269 -26.19,-39.039 -29.11,-62.539 44.93,-14.308 92.92,-18.922 140.38,-11.828"
         style="fill:#ffffff;fill-opacity:1;fill-rule:nonzero;stroke:none"
         transform="matrix(0.13333333,0,0,-0.13333333,0,666.66667)" />
      <path
         id="path55"
         d="m 1406.73,647.082 c 11.77,1.758 18.88,13.898 15.05,25.168 -4.03,11.891 -8.99,23.41 -15.81,33.91 -10.83,16.66 -26.95,30.68 -46.31,35.172 -22.76,5.277 -47.43,-3.613 -64.2,-19.883 -16.77,-16.269 -26.19,-39.039 -29.11,-62.539 44.93,-14.308 92.92,-18.922 140.38,-11.828 z"
         style="fill:none;stroke:#100f0d;stroke-width:10;stroke-linecap:round;stroke-linejoin:round;stroke-miterlimit:10;stroke-dasharray:none;stroke-opacity:1"
         transform="matrix(0.13333333,0,0,-0.13333333,0,666.66667)" />
      <path
         id="path56"
         d="m 1591.58,2526.88 c -8.26,-120.62 6.36,-242.77 42.87,-358.03"
         style="fill:none;stroke:#100f0d;stroke-width:10;stroke-linecap:round;stroke-linejoin:round;stroke-miterlimit:10;stroke-dasharray:none;stroke-opacity:1"
         transform="matrix(0.13333333,0,0,-0.13333333,0,666.66667)" />
      <path
         id="path57"
         d="m 4133.83,1660.62 c -188.76,59.65 -350.38,476.84 -328.26,756.4 47.11,42.51 146.44,18.34 186.54,-49.26 -18.37,-232.13 22.81,-506.7 141.72,-707.14"
         style="fill:#ffffff;fill-opacity:1;fill-rule:nonzero;stroke:none"
         transform="matrix(0.13333333,0,0,-0.13333333,0,666.66667)" />
      <path
         id="path58"
         d="m 4133.83,1660.62 c -188.76,59.65 -350.38,476.84 -328.26,756.4 47.11,42.51 146.44,18.34 186.54,-49.26 -18.37,-232.13 22.81,-506.7 141.72,-707.14 z"
         style="fill:none;stroke:#100f0d;stroke-width:10;stroke-linecap:round;stroke-linejoin:round;stroke-miterlimit:10;stroke-dasharray:none;stroke-opacity:1"
         transform="matrix(0.13333333,0,0,-0.13333333,0,666.66667)" />
      <path
         id="path59"
         d="m 3693.92,3358.94 c 38.73,128.69 114.76,248.07 214.54,356.07 23.96,25.93 63.97,26.69 89.35,2.15 58.93,-57.01 96.38,-137.56 121.24,-218.01 31.21,-101 47.29,-207.16 88.55,-304.28 46.77,-110.08 123.57,-203.23 189.07,-302.73 65.5,-99.5 144.39,-309.5 140.87,-429.53 -126.37,24.04 -277.44,-219.45 -496.46,-219.45"
         style="fill:#ffffff;fill-opacity:1;fill-rule:nonzero;stroke:#100f0d;stroke-width:10;stroke-linecap:round;stroke-linejoin:round;stroke-miterlimit:10;stroke-dasharray:none;stroke-opacity:1"
         transform="matrix(0.13333333,0,0,-0.13333333,0,666.66667)" />
      <path
         id="path60"
         d="m 3283.75,3330.2 c 74.16,44.66 153.97,79.8 236.99,104.49 270.67,80.51 565.39,-12.55 731.08,-241.22 1.33,-1.83 2.64,-3.66 3.95,-5.5 61.13,-85.84 88.64,-190.84 82.3,-296.02 -14.03,-232.56 -84.86,-462.59 -221.26,-650.27 -76.77,-105.64 -171,-201.05 -222.66,-320.99 -47.59,-110.52 -47.98,-253.42 43.2,-348.42 15.75,-16.42 37.84,-25.23 60.58,-24.58 47.39,1.36 94.43,15.52 134.47,40.95 49.98,31.74 88.72,80.8 104.39,138.94 -27.06,17.92 -48.42,43.97 -61.57,75.15 -18.42,43.68 3.62,93.58 47.89,110.53 11.82,4.53 38.44,8.01 51.6,10.38 32.93,5.92 66.27,-8.6 84.45,-36.68 32.94,-50.88 59.7,-96.93 107.22,-136.77 16.97,-14.24 13.4,-41.37 -7.02,-49.96 -23.74,-9.98 -50.55,-14.96 -80.95,-12.72 -4.76,-33.16 -10.35,-66.2 -16.55,-98.65 -14.3,-74.89 -55.77,-142.1 -116.67,-187.96 -65.42,-49.28 -137.69,-89.87 -215.33,-119.87 -75.36,-29.12 -159,-27.98 -232.39,5.81 -112.43,51.75 -206.86,144.82 -268.33,253.49 -83.71,148 -112.03,321.92 -121.42,490.43 -111.79,132.56 -197.09,287.37 -249.41,452.69 l 125.44,846.75"
         style="fill:#ffffff;fill-opacity:1;fill-rule:nonzero;stroke:none"
         transform="matrix(0.13333333,0,0,-0.13333333,0,666.66667)" />
      <path
         id="path61"
         d="m 3283.75,3330.2 c 74.16,44.66 153.97,79.8 236.99,104.49 270.67,80.51 565.39,-12.55 731.08,-241.22 1.33,-1.83 2.64,-3.66 3.95,-5.5 61.13,-85.84 88.64,-190.84 82.3,-296.02 -14.03,-232.56 -84.86,-462.59 -221.26,-650.27 -76.77,-105.64 -171,-201.05 -222.66,-320.99 -47.59,-110.52 -47.98,-253.42 43.2,-348.42 15.75,-16.42 37.84,-25.23 60.58,-24.58 47.39,1.36 94.43,15.52 134.47,40.95 49.98,31.74 88.72,80.8 104.39,138.94 -27.06,17.92 -48.42,43.97 -61.57,75.15 -18.42,43.68 3.62,93.58 47.89,110.53 11.82,4.53 38.44,8.01 51.6,10.38 32.93,5.92 66.27,-8.6 84.45,-36.68 32.94,-50.88 59.7,-96.93 107.22,-136.77 16.97,-14.24 13.4,-41.37 -7.02,-49.96 -23.74,-9.98 -50.55,-14.96 -80.95,-12.72 -4.76,-33.16 -10.35,-66.2 -16.55,-98.65 -14.3,-74.89 -55.77,-142.1 -116.67,-187.96 -65.42,-49.28 -137.69,-89.87 -215.33,-119.87 -75.36,-29.12 -159,-27.98 -232.39,5.81 -112.43,51.75 -206.86,144.82 -268.33,253.49 -83.71,148 -112.03,321.92 -121.42,490.43 -111.79,132.56 -197.09,287.37 -249.41,452.69 z"
         style="fill:none;stroke:#100f0d;stroke-width:10;stroke-linecap:round;stroke-linejoin:round;stroke-miterlimit:10;stroke-dasharray:none;stroke-opacity:1"
         transform="matrix(0.13333333,0,0,-0.13333333,0,666.66667)" />
      <path
         id="path62"
         d="m 3400.46,3341.98 c -78.44,93.59 -180.41,167.05 -297.54,214.49 -85.28,34.54 -178.68,43.55 -269.57,29.28 -340.92,-53.5 -665.41,-209.26 -917.05,-454.44 -7.63,-7.44 -4.6,-20.45 5.55,-23.7 168.24,-53.9 305.67,-197.17 350.88,-368.19 10.26,-38.81 14.69,-84.35 -10.91,-115.28 -25.07,-30.3 -73.88,-39.29 -75.38,-87.48 -0.3,-9.74 1.88,-19.5 5.87,-28.39 13.92,-31.05 42.47,-48.75 70.81,-64.37 143.52,-79.12 310.96,-129.86 414.64,-256.79 40.19,-49.2 68.72,-107.88 114.22,-152.21 38.43,-37.44 95.84,-62.73 148.84,-49.63 17.02,4.2 32.3,13.4 45.24,25.23 83.24,76.04 188.22,257.24 252.77,397.02"
         style="fill:#ffffff;fill-opacity:1;fill-rule:nonzero;stroke:#100f0d;stroke-width:10;stroke-linecap:round;stroke-linejoin:round;stroke-miterlimit:10;stroke-dasharray:none;stroke-opacity:1"
         transform="matrix(0.13333333,0,0,-0.13333333,0,666.66667)" />
      <path
         id="path63"
         d="m 3668.97,1580.21 c -188.77,59.65 -338.21,488.54 -322.62,685.53 55.74,32.18 133.75,18.94 178.08,-9.44 -16.95,-214.09 25.63,-475.65 144.54,-676.09"
         style="fill:#ffffff;fill-opacity:1;fill-rule:nonzero;stroke:none"
         transform="matrix(0.13333333,0,0,-0.13333333,0,666.66667)" />
      <path
         id="path64"
         d="m 3668.97,1580.21 c -188.77,59.65 -338.21,488.54 -322.62,685.53 55.74,32.18 133.75,18.94 178.08,-9.44 -16.95,-214.09 25.63,-475.65 144.54,-676.09 z"
         style="fill:none;stroke:#100f0d;stroke-width:10;stroke-linecap:round;stroke-linejoin:round;stroke-miterlimit:10;stroke-dasharray:none;stroke-opacity:1"
         transform="matrix(0.13333333,0,0,-0.13333333,0,666.66667)" />
      <path
         id="path65"
         d="m 3725.32,2156.62 c 91.06,-36.11 189.59,-53.25 287.5,-50.01"
         style="fill:none;stroke:#100f0d;stroke-width:10;stroke-linecap:round;stroke-linejoin:round;stroke-miterlimit:10;stroke-dasharray:none;stroke-opacity:1"
         transform="matrix(0.13333333,0,0,-0.13333333,0,666.66667)" />
      <path
         id="path66"
         d="m 3884.99,1897.23 c -63.64,3.55 -127.5,3.06 -191.07,-1.47"
         style="fill:none;stroke:#100f0d;stroke-width:10;stroke-linecap:round;stroke-linejoin:round;stroke-miterlimit:10;stroke-dasharray:none;stroke-opacity:1"
         transform="matrix(0.13333333,0,0,-0.13333333,0,666.66667)" />
      <path
         id="path67"
         d="m 3864.43,1721.27 c -53.88,-0.79 -107.44,-17.29 -152.42,-46.96"
         style="fill:none;stroke:#100f0d;stroke-width:10;stroke-linecap:round;stroke-linejoin:round;stroke-miterlimit:10;stroke-dasharray:none;stroke-opacity:1"
         transform="matrix(0.13333333,0,0,-0.13333333,0,666.66667)" />
      <path
         id="path68"
         d="m 3798.79,1489.31 c 25.2,48.77 78.56,81.65 133.45,82.22"
         style="fill:none;stroke:#100f0d;stroke-width:10;stroke-linecap:round;stroke-linejoin:round;stroke-miterlimit:10;stroke-dasharray:none;stroke-opacity:1"
         transform="matrix(0.13333333,0,0,-0.13333333,0,666.66667)" />
      <path
         id="path69"
         d="m 3994.06,1547.41 c -20.6,-12.52 -36.69,-32.3 -44.74,-55.03 -8.05,-22.72 -8.01,-48.22 0.12,-70.91"
         style="fill:none;stroke:#100f0d;stroke-width:10;stroke-linecap:round;stroke-linejoin:round;stroke-miterlimit:10;stroke-dasharray:none;stroke-opacity:1"
         transform="matrix(0.13333333,0,0,-0.13333333,0,666.66667)" />
      <path
         id="path70"
         d="m 4088.87,1566.5 c -6.6,-26.26 0.6,-55.58 18.62,-75.79"
         style="fill:none;stroke:#100f0d;stroke-width:10;stroke-linecap:round;stroke-linejoin:round;stroke-miterlimit:10;stroke-dasharray:none;stroke-opacity:1"
         transform="matrix(0.13333333,0,0,-0.13333333,0,666.66667)" />
      <path
         id="path71"
         d="m 3430.45,2535.98 c 0,40.53 32.85,73.38 73.37,73.38 40.53,0 73.38,-32.85 73.38,-73.38 0,-40.52 -32.85,-73.37 -73.38,-73.37 -40.52,0 -73.37,32.85 -73.37,73.37"
         style="fill:#100f0d;fill-opacity:1;fill-rule:nonzero;stroke:none"
         transform="matrix(0.13333333,0,0,-0.13333333,0,666.66667)" />
      <path
         id="path72"
         d="m 3458.67,2550.09 c 0,15.59 12.63,28.22 28.22,28.22 15.59,0 28.22,-12.63 28.22,-28.22 0,-15.58 -12.63,-28.22 -28.22,-28.22 -15.59,0 -28.22,12.64 -28.22,28.22"
         style="fill:#ffffff;fill-opacity:1;fill-rule:nonzero;stroke:none"
         transform="matrix(0.13333333,0,0,-0.13333333,0,666.66667)" />
      <path
         id="path73"
         d="m 4610.08,81.4609 c -85.06,205.2891 -64.75,438.5271 -20.83,656.3711 43.93,217.84 110.25,433.528 113.16,655.728 242.16,-406.83 199.66,-963.79 -92.33,-1312.0991"
         style="fill:#ffffff;fill-opacity:1;fill-rule:nonzero;stroke:none"
         transform="matrix(0.13333333,0,0,-0.13333333,0,666.66667)" />
      <path
         id="path74"
         d="m 4610.08,81.4609 c -85.06,205.2891 -64.75,438.5271 -20.83,656.3711 43.93,217.84 110.25,433.528 113.16,655.728 242.16,-406.83 199.66,-963.79 -92.33,-1312.0991 z"
         style="fill:none;stroke:#100f0d;stroke-width:10;stroke-linecap:round;stroke-linejoin:round;stroke-miterlimit:10;stroke-dasharray:none;stroke-opacity:1"
         transform="matrix(0.13333333,0,0,-0.13333333,0,666.66667)" />
      <path
         id="path75"
         d="m 4732.12,963.57 c 24.05,-195.648 -33.14,-382.109 -74.44,-574.859 -41.3,-192.762 -66.9,-403.8399 -20.31,-595.391"
         style="fill:none;stroke:#100f0d;stroke-width:10;stroke-linecap:round;stroke-linejoin:round;stroke-miterlimit:10;stroke-dasharray:none;stroke-opacity:1"
         transform="matrix(0.13333333,0,0,-0.13333333,0,666.66667)" />
      <path
         id="path76"
         d="M 4497.31,85.6602 C 4378.74,254.93 4258.04,428.672 4206.32,626.781 c -53.71,205.688 -36.97,443.339 -181.69,603.019 216.49,-61.86 371.01,-255.831 437.65,-463.96 66.64,-208.129 59.14,-430.879 35.03,-680.1798"
         style="fill:#ffffff;fill-opacity:1;fill-rule:nonzero;stroke:none"
         transform="matrix(0.13333333,0,0,-0.13333333,0,666.66667)" />
      <path
         id="path77"
         d="M 4497.31,85.6602 C 4378.74,254.93 4258.04,428.672 4206.32,626.781 c -53.71,205.688 -36.97,443.339 -181.69,603.019 216.49,-61.86 371.01,-255.831 437.65,-463.96 66.64,-208.129 59.14,-430.879 35.03,-680.1798 z"
         style="fill:none;stroke:#100f0d;stroke-width:10;stroke-linecap:round;stroke-linejoin:round;stroke-miterlimit:10;stroke-dasharray:none;stroke-opacity:1"
         transform="matrix(0.13333333,0,0,-0.13333333,0,666.66667)" />
      <path
         id="path78"
         d="m 4279.05,892.469 c 29.86,-64.75 56.1,-131.18 81.47,-203.137 21.73,-61.66 36.58,-125.57 44.55,-190.461 31.28,-254.73 109.2,-503.69913 229.01,-730.672"
         style="fill:none;stroke:#100f0d;stroke-width:10;stroke-linecap:round;stroke-linejoin:round;stroke-miterlimit:10;stroke-dasharray:none;stroke-opacity:1"
         transform="matrix(0.13333333,0,0,-0.13333333,0,666.66667)" />
      <path
         id="path79"
         d="M 4423.8,81.4609 C 4346.86,267.41 4169.12,405.98 3970.64,475.531 3772.16,545.09 3554.41,551.91 3343.8,531.148 3671.06,366.191 4022.18,243.352 4423.8,81.4609"
         style="fill:#ffffff;fill-opacity:1;fill-rule:nonzero;stroke:#100f0d;stroke-width:10;stroke-linecap:round;stroke-linejoin:round;stroke-miterlimit:10;stroke-dasharray:none;stroke-opacity:1"
         transform="matrix(0.13333333,0,0,-0.13333333,0,666.66667)" />
      <path
         id="path80"
         d="m 3800.34,423.84 c 335.34,-84.918 639,-284.52 819.14,-595.75"
         style="fill:none;stroke:#100f0d;stroke-width:10;stroke-linecap:round;stroke-linejoin:round;stroke-miterlimit:10;stroke-dasharray:none;stroke-opacity:1"
         transform="matrix(0.13333333,0,0,-0.13333333,0,666.66667)" />
      <path
         id="path81"
         d="m 4669.64,-33.8281 c 5.81,142.6371 86.95,280.0661 209.05,354.0471 -72.3,-82.668 -123.11,-183.981 -146.13,-291.3596 21.59,67.6406 70.97,125.9606 134.13,158.4026 63.16,32.437 139.32,38.609 206.88,16.75 -83.79,-22.903 -158.82,-76.492 -207.66,-148.3206 68.49,54.1176 171.95,58.6996 244.95,10.8203 -66.98,-15.8828 -122.57,-72.36326 -137.39,-139.582 -97.51,9.9687 -195.02,19.9414 -303.83,39.2422"
         style="fill:#ffffff;fill-opacity:1;fill-rule:nonzero;stroke:none"
         transform="matrix(0.13333333,0,0,-0.13333333,0,666.66667)" />
      <path
         id="path82"
         d="m 4669.64,-33.8281 c 5.81,142.6371 86.95,280.0661 209.05,354.0471 -72.3,-82.668 -123.11,-183.981 -146.13,-291.3596 21.59,67.6406 70.97,125.9606 134.13,158.4026 63.16,32.437 139.32,38.609 206.88,16.75 -83.79,-22.903 -158.82,-76.492 -207.66,-148.3206 68.49,54.1176 171.95,58.6996 244.95,10.8203 -66.98,-15.8828 -122.57,-72.36326 -137.39,-139.582 -97.51,9.9687 -195.02,19.9414 -303.83,39.2422 z"
         style="fill:none;stroke:#100f0d;stroke-width:10;stroke-linecap:round;stroke-linejoin:round;stroke-miterlimit:10;stroke-dasharray:none;stroke-opacity:1"
         transform="matrix(0.13333333,0,0,-0.13333333,0,666.66667)" />
      <path
         id="path83"
         d="M 4443.03,-29.5508 C 4310.83,55.8398 4175.61,139.32 4027.13,191.5 c -148.48,52.18 -312.84,71.371 -463.61,26.238 279.38,-35.84 554.03,-108.437 879.51,-247.2888"
         style="fill:#ffffff;fill-opacity:1;fill-rule:nonzero;stroke:none"
         transform="matrix(0.13333333,0,0,-0.13333333,0,666.66667)" />
      <path
         id="path84"
         d="M 4443.03,-29.5508 C 4310.83,55.8398 4175.61,139.32 4027.13,191.5 c -148.48,52.18 -312.84,71.371 -463.61,26.238 279.38,-35.84 554.03,-108.437 879.51,-247.2888 z"
         style="fill:none;stroke:#100f0d;stroke-width:10;stroke-linecap:round;stroke-linejoin:round;stroke-miterlimit:10;stroke-dasharray:none;stroke-opacity:1"
         transform="matrix(0.13333333,0,0,-0.13333333,0,666.66667)" />
      <path
         id="path85"
         d="M 4436.28,-54.2695 C 4165.5,118.102 3815.92,160.59 3511.73,58.1094 c 305.01,5.2226 610.72,-32.168 924.55,-112.3789"
         style="fill:#ffffff;fill-opacity:1;fill-rule:nonzero;stroke:none"
         transform="matrix(0.13333333,0,0,-0.13333333,0,666.66667)" />
      <path
         id="path86"
         d="M 4436.28,-54.2695 C 4165.5,118.102 3815.92,160.59 3511.73,58.1094 c 305.01,5.2226 610.72,-32.168 924.55,-112.3789 z"
         style="fill:none;stroke:#100f0d;stroke-width:10;stroke-linecap:round;stroke-linejoin:round;stroke-miterlimit:10;stroke-dasharray:none;stroke-opacity:1"
         transform="matrix(0.13333333,0,0,-0.13333333,0,666.66667)" />
      <path
         id="path87"
         d="M -144.133,-265.688 C -112.27,70.1289 -143.77,411.852 -236.488,736.18 -18.1797,441.07 8.125,16.4219 -144.133,-265.688"
         style="fill:#ffffff;fill-opacity:1;fill-rule:nonzero;stroke:#100f0d;stroke-width:10;stroke-linecap:round;stroke-linejoin:round;stroke-miterlimit:10;stroke-dasharray:none;stroke-opacity:1"
         transform="matrix(0.13333333,0,0,-0.13333333,0,666.66667)" />
      <path
         id="path88"
         d="M -129.555,-295.199 C 4.55859,137.781 59.1055,599.32 30.0039,1054.8 187.297,640.531 135.832,141.469 -129.555,-295.199"
         style="fill:#ffffff;fill-opacity:1;fill-rule:nonzero;stroke:#100f0d;stroke-width:10;stroke-linecap:round;stroke-linejoin:round;stroke-miterlimit:10;stroke-dasharray:none;stroke-opacity:1"
         transform="matrix(0.13333333,0,0,-0.13333333,0,666.66667)" />
      <path
         id="path89"
         d="M -98.3281,-346.422 C -24.707,-151.609 50.168,45.582 170.477,215.559 290.785,385.539 463.598,528.121 668.055,567.68 350.145,273.719 71.9727,-63.1797 -98.3281,-346.422"
         style="fill:#ffffff;fill-opacity:1;fill-rule:nonzero;stroke:#100f0d;stroke-width:10;stroke-linecap:round;stroke-linejoin:round;stroke-miterlimit:10;stroke-dasharray:none;stroke-opacity:1"
         transform="matrix(0.13333333,0,0,-0.13333333,0,666.66667)" />
      <path
         id="path90"
         d="M 179.66,-227.891 C 307.5,-37.4883 533.359,87.6602 771.547,100.07 1009.73,112.48 1254.66,11.8594 1413.41,-163.609 1009.9,13.0391 512.691,-40.918 179.66,-227.891"
         style="fill:#ffffff;fill-opacity:1;fill-rule:nonzero;stroke:#100f0d;stroke-width:10;stroke-linecap:round;stroke-linejoin:round;stroke-miterlimit:10;stroke-dasharray:none;stroke-opacity:1"
         transform="matrix(0.13333333,0,0,-0.13333333,0,666.66667)" />
      <path
         id="path91"
         d="M 1025.25,5.41016 C 669.133,59.2188 289.441,-86.2188 60.4023,-364.18"
         style="fill:none;stroke:#100f0d;stroke-width:10;stroke-linecap:round;stroke-linejoin:round;stroke-miterlimit:10;stroke-dasharray:none;stroke-opacity:1"
         transform="matrix(0.13333333,0,0,-0.13333333,0,666.66667)" />
      <path
         id="path92"
         d="M 234.664,12.4297 C 457.102,402.309 867.688,634.832 1267.95,597.602 987.449,326.469 654.254,129.941 234.664,12.4297"
         style="fill:#ffffff;fill-opacity:1;fill-rule:nonzero;stroke:#100f0d;stroke-width:10;stroke-linecap:round;stroke-linejoin:round;stroke-miterlimit:10;stroke-dasharray:none;stroke-opacity:1"
         transform="matrix(0.13333333,0,0,-0.13333333,0,666.66667)" />
      <path
         id="path93"
         d="M 882.34,435.129 C 504.746,311.699 184.242,23.5391 21.4922,-338.84"
         style="fill:none;stroke:#100f0d;stroke-width:10;stroke-linecap:round;stroke-linejoin:round;stroke-miterlimit:10;stroke-dasharray:none;stroke-opacity:1"
         transform="matrix(0.13333333,0,0,-0.13333333,0,666.66667)" />
      <path
         id="path94"
         d="M 145.172,276.641 C 130.207,716.879 412.961,1152.47 824.605,1323.34 737.602,1268.09 681.863,1175.5 644.031,1080.5 606.199,985.512 583.164,885.199 543.813,790.809 452.527,571.852 279.68,397.57 145.172,276.641"
         style="fill:#ffffff;fill-opacity:1;fill-rule:nonzero;stroke:#100f0d;stroke-width:10;stroke-linecap:round;stroke-linejoin:round;stroke-miterlimit:10;stroke-dasharray:none;stroke-opacity:1"
         transform="matrix(0.13333333,0,0,-0.13333333,0,666.66667)" />
      <path
         id="path95"
         d="M 435.621,878.961 C 203.031,498.941 40.5547,76.1719 -41.2266,-361.809"
         style="fill:none;stroke:#100f0d;stroke-width:10;stroke-linecap:round;stroke-linejoin:round;stroke-miterlimit:10;stroke-dasharray:none;stroke-opacity:1"
         transform="matrix(0.13333333,0,0,-0.13333333,0,666.66667)" />
    </g>
  </g>
</svg>
