<?xml version="1.0" encoding="UTF-8" standalone="no"?>
<!-- Created with Inkscape (http://www.inkscape.org/) -->

<svg
   version="1.1"
   id="svg1"
   width="666.66669"
   height="666.66669"
   viewBox="0 0 666.66669 666.66669"
   sodipodi:docname="7855447.eps"
   xmlns:inkscape="http://www.inkscape.org/namespaces/inkscape"
   xmlns:sodipodi="http://sodipodi.sourceforge.net/DTD/sodipodi-0.dtd"
   xmlns="http://www.w3.org/2000/svg"
   xmlns:svg="http://www.w3.org/2000/svg">
  <defs
     id="defs1" />
  <sodipodi:namedview
     id="namedview1"
     pagecolor="#ffffff"
     bordercolor="#000000"
     borderopacity="0.25"
     inkscape:showpageshadow="2"
     inkscape:pageopacity="0.0"
     inkscape:pagecheckerboard="0"
     inkscape:deskcolor="#d1d1d1">
    <inkscape:page
       x="0"
       y="0"
       inkscape:label="1"
       id="page1"
       width="666.66669"
       height="666.66669"
       margin="0"
       bleed="0" />
  </sodipodi:namedview>
  <g
     id="g1"
     inkscape:groupmode="layer"
     inkscape:label="1">
    <g
       id="group-R5">
      <path
         id="path2"
         d="M 5000,0 H 0.00390625 V 5000 H 5000 V 0"
         style="fill:#ffffff;fill-opacity:1;fill-rule:nonzero;stroke:none"
         transform="matrix(0.13333333,0,0,-0.13333333,0,666.66667)" />
      <path
         id="path3"
         d="m 3806.49,3251.66 c 0,-354.76 -287.59,-642.35 -642.35,-642.35 -354.75,0 -642.34,287.59 -642.34,642.35 0,354.75 287.59,642.34 642.34,642.34 354.76,0 642.35,-287.59 642.35,-642.34 z"
         style="fill:none;stroke:#040606;stroke-width:20;stroke-linecap:round;stroke-linejoin:round;stroke-miterlimit:10;stroke-dasharray:none;stroke-opacity:1"
         transform="matrix(0.13333333,0,0,-0.13333333,0,666.66667)" />
      <path
         id="path4"
         d="m 3725.84,3251.66 c 0,-310.22 -251.48,-561.7 -561.7,-561.7 -310.21,0 -561.7,251.48 -561.7,561.7 0,310.21 251.49,561.69 561.7,561.69 310.22,0 561.7,-251.48 561.7,-561.69 z"
         style="fill:none;stroke:#040606;stroke-width:20;stroke-linecap:round;stroke-linejoin:round;stroke-miterlimit:10;stroke-dasharray:none;stroke-opacity:1"
         transform="matrix(0.13333333,0,0,-0.13333333,0,666.66667)" />
      <path
         id="path5"
         d="m 2837.4,3804.38 c -84.92,193.98 -95.65,419.38 -29.55,620.55 66.1,201.18 208.42,376.28 391.85,482.09 155.45,-128.15 284.6,-300.75 334.34,-495.97 49.75,-195.23 35.71,-406.17 -39.46,-593.08"
         style="fill:none;stroke:#040606;stroke-width:20;stroke-linecap:round;stroke-linejoin:round;stroke-miterlimit:10;stroke-dasharray:none;stroke-opacity:1"
         transform="matrix(0.13333333,0,0,-0.13333333,0,666.66667)" />
      <path
         id="path6"
         d="m 3071.55,4328.17 c 39.54,-142.34 79.16,-284.66 118.89,-426.95 31.61,182.54 63.23,365.08 94.84,547.62"
         style="fill:none;stroke:#040606;stroke-width:20;stroke-linecap:round;stroke-linejoin:round;stroke-miterlimit:10;stroke-dasharray:none;stroke-opacity:1"
         transform="matrix(0.13333333,0,0,-0.13333333,0,666.66667)" />
      <path
         id="path7"
         d="m 2837.4,2698.93 c -84.92,-193.98 -95.65,-419.38 -29.55,-620.55 66.1,-201.18 208.42,-376.28 391.85,-482.09 155.45,128.16 284.6,300.74 334.34,495.97 49.75,195.23 35.71,406.16 -39.46,593.08"
         style="fill:none;stroke:#040606;stroke-width:20;stroke-linecap:round;stroke-linejoin:round;stroke-miterlimit:10;stroke-dasharray:none;stroke-opacity:1"
         transform="matrix(0.13333333,0,0,-0.13333333,0,666.66667)" />
      <path
         id="path8"
         d="m 3071.55,2175.14 c 39.54,142.34 79.16,284.66 118.89,426.95 31.61,-182.54 63.23,-365.08 94.84,-547.62"
         style="fill:none;stroke:#040606;stroke-width:20;stroke-linecap:round;stroke-linejoin:round;stroke-miterlimit:10;stroke-dasharray:none;stroke-opacity:1"
         transform="matrix(0.13333333,0,0,-0.13333333,0,666.66667)" />
      <path
         id="path9"
         d="m 3716.87,3578.4 c 193.98,84.92 419.38,95.65 620.55,29.55 201.18,-66.1 376.28,-208.43 482.09,-391.85 -128.16,-155.45 -300.75,-284.6 -495.97,-334.35 -195.23,-49.74 -406.17,-35.7 -593.08,39.47"
         style="fill:none;stroke:#040606;stroke-width:20;stroke-linecap:round;stroke-linejoin:round;stroke-miterlimit:10;stroke-dasharray:none;stroke-opacity:1"
         transform="matrix(0.13333333,0,0,-0.13333333,0,666.66667)" />
      <path
         id="path10"
         d="m 4240.66,3344.25 c -142.35,-39.54 -284.66,-79.17 -426.95,-118.9 182.54,-31.61 365.08,-63.22 547.62,-94.83"
         style="fill:none;stroke:#040606;stroke-width:20;stroke-linecap:round;stroke-linejoin:round;stroke-miterlimit:10;stroke-dasharray:none;stroke-opacity:1"
         transform="matrix(0.13333333,0,0,-0.13333333,0,666.66667)" />
      <path
         id="path11"
         d="m 2611.42,3578.4 c -193.99,84.92 -419.38,95.65 -620.55,29.55 -201.18,-66.1 -376.28,-208.43 -482.09,-391.85 128.15,-155.45 300.74,-284.6 495.97,-334.35 195.23,-49.74 406.17,-35.7 593.08,39.47"
         style="fill:none;stroke:#040606;stroke-width:20;stroke-linecap:round;stroke-linejoin:round;stroke-miterlimit:10;stroke-dasharray:none;stroke-opacity:1"
         transform="matrix(0.13333333,0,0,-0.13333333,0,666.66667)" />
      <path
         id="path12"
         d="m 2087.63,3344.25 c 142.34,-39.54 284.66,-79.17 426.95,-118.9 -182.54,-31.61 -365.09,-63.22 -547.62,-94.83"
         style="fill:none;stroke:#040606;stroke-width:20;stroke-linecap:round;stroke-linejoin:round;stroke-miterlimit:10;stroke-dasharray:none;stroke-opacity:1"
         transform="matrix(0.13333333,0,0,-0.13333333,0,666.66667)" />
      <path
         id="path13"
         d="m 3563.65,4229.47 c 58.44,53.74 104.05,81.2 174.92,117.02 189,95.51 413.45,118.69 617.97,63.81 19.3,-200.54 -11.41,-413.91 -114.29,-587.13 -34.64,-58.33 -75.65,-112.8 -121.89,-162.42"
         style="fill:none;stroke:#040606;stroke-width:20;stroke-linecap:round;stroke-linejoin:round;stroke-miterlimit:10;stroke-dasharray:none;stroke-opacity:1"
         transform="matrix(0.13333333,0,0,-0.13333333,0,666.66667)" />
      <path
         id="path14"
         d="m 3856.62,4091.61 c -72.7,-128.61 -145.31,-257.27 -217.83,-385.98 151.43,106.73 302.86,213.45 454.29,320.17"
         style="fill:none;stroke:#040606;stroke-width:20;stroke-linecap:round;stroke-linejoin:round;stroke-miterlimit:10;stroke-dasharray:none;stroke-opacity:1"
         transform="matrix(0.13333333,0,0,-0.13333333,0,666.66667)" />
      <path
         id="path15"
         d="m 2210.21,2846.84 c -53.74,-58.43 -85.09,-108.74 -120.9,-179.62 -95.51,-188.99 -118.69,-413.44 -63.81,-617.96 200.54,-19.31 413.91,11.41 587.13,114.28 53.92,32.03 104.55,69.5 151.1,111.52"
         style="fill:none;stroke:#040606;stroke-width:20;stroke-linecap:round;stroke-linejoin:round;stroke-miterlimit:10;stroke-dasharray:none;stroke-opacity:1"
         transform="matrix(0.13333333,0,0,-0.13333333,0,666.66667)" />
      <path
         id="path16"
         d="m 2344.19,2549.18 c 128.61,72.7 257.27,145.31 385.98,217.83 -106.73,-151.43 -213.45,-302.86 -320.18,-454.29"
         style="fill:none;stroke:#040606;stroke-width:20;stroke-linecap:round;stroke-linejoin:round;stroke-miterlimit:10;stroke-dasharray:none;stroke-opacity:1"
         transform="matrix(0.13333333,0,0,-0.13333333,0,666.66667)" />
      <path
         id="path17"
         d="m 3563.65,2273.84 c 58.44,-53.74 104.05,-81.21 174.92,-117.02 189,-95.51 413.45,-118.69 617.97,-63.81 19.3,200.54 -11.41,413.91 -114.29,587.13 -34.64,58.32 -75.65,112.8 -121.89,162.42"
         style="fill:none;stroke:#040606;stroke-width:20;stroke-linecap:round;stroke-linejoin:round;stroke-miterlimit:10;stroke-dasharray:none;stroke-opacity:1"
         transform="matrix(0.13333333,0,0,-0.13333333,0,666.66667)" />
      <path
         id="path18"
         d="m 3856.62,2411.71 c -72.7,128.6 -145.31,257.26 -217.83,385.97 151.43,-106.73 302.86,-213.45 454.29,-320.17"
         style="fill:none;stroke:#040606;stroke-width:20;stroke-linecap:round;stroke-linejoin:round;stroke-miterlimit:10;stroke-dasharray:none;stroke-opacity:1"
         transform="matrix(0.13333333,0,0,-0.13333333,0,666.66667)" />
      <path
         id="path19"
         d="m 2210.21,3656.47 c -53.74,58.43 -85.09,108.74 -120.9,179.62 -95.51,188.98 -118.69,413.45 -63.81,617.96 200.54,19.31 413.91,-11.41 587.13,-114.29 53.92,-32.02 104.55,-69.49 151.1,-111.51"
         style="fill:none;stroke:#040606;stroke-width:20;stroke-linecap:round;stroke-linejoin:round;stroke-miterlimit:10;stroke-dasharray:none;stroke-opacity:1"
         transform="matrix(0.13333333,0,0,-0.13333333,0,666.66667)" />
      <path
         id="path20"
         d="m 2344.19,3954.13 c 128.61,-72.7 257.27,-145.31 385.98,-217.83 -106.73,151.43 -213.45,302.86 -320.18,454.29"
         style="fill:none;stroke:#040606;stroke-width:20;stroke-linecap:round;stroke-linejoin:round;stroke-miterlimit:10;stroke-dasharray:none;stroke-opacity:1"
         transform="matrix(0.13333333,0,0,-0.13333333,0,666.66667)" />
      <path
         id="path21"
         d="m 3335.03,3296.53 c 1.71,-60.77 52.35,-108.66 113.13,-106.95 60.77,1.71 108.65,52.35 106.95,113.13 -1.7,60.77 -52.35,108.65 -113.13,106.95 -60.77,-1.71 -108.65,-52.36 -106.95,-113.13"
         style="fill:#040606;fill-opacity:1;fill-rule:nonzero;stroke:none"
         transform="matrix(0.13333333,0,0,-0.13333333,0,666.66667)" />
      <path
         id="path22"
         d="m 3335.03,3296.53 c 1.71,-60.77 52.35,-108.66 113.13,-106.95 60.77,1.71 108.65,52.35 106.95,113.13 -1.7,60.77 -52.35,108.65 -113.13,106.95 -60.77,-1.71 -108.65,-52.36 -106.95,-113.13 z"
         style="fill:none;stroke:#040606;stroke-width:20;stroke-linecap:round;stroke-linejoin:round;stroke-miterlimit:10;stroke-dasharray:none;stroke-opacity:1"
         transform="matrix(0.13333333,0,0,-0.13333333,0,666.66667)" />
      <path
         id="path23"
         d="m 3416.39,3342.38 c 0.67,-24.04 20.71,-42.99 44.75,-42.31 24.04,0.67 42.99,20.71 42.31,44.76 -0.67,24.03 -20.71,42.98 -44.75,42.31 -24.04,-0.68 -42.99,-20.72 -42.31,-44.76"
         style="fill:#ffffff;fill-opacity:1;fill-rule:nonzero;stroke:none"
         transform="matrix(0.13333333,0,0,-0.13333333,0,666.66667)" />
      <path
         id="path24"
         d="m 3416.39,3342.38 c 0.67,-24.04 20.71,-42.99 44.75,-42.31 24.04,0.67 42.99,20.71 42.31,44.76 -0.67,24.03 -20.71,42.98 -44.75,42.31 -24.04,-0.68 -42.99,-20.72 -42.31,-44.76 z"
         style="fill:none;stroke:#040606;stroke-width:20;stroke-linecap:round;stroke-linejoin:round;stroke-miterlimit:10;stroke-dasharray:none;stroke-opacity:1"
         transform="matrix(0.13333333,0,0,-0.13333333,0,666.66667)" />
      <path
         id="path25"
         d="m 3383.82,3274.96 c 0.39,-13.93 11.99,-24.9 25.92,-24.51 13.93,0.39 24.91,11.99 24.51,25.92 -0.39,13.93 -12,24.91 -25.92,24.52 -13.93,-0.39 -24.91,-12.01 -24.51,-25.93"
         style="fill:#ffffff;fill-opacity:1;fill-rule:nonzero;stroke:none"
         transform="matrix(0.13333333,0,0,-0.13333333,0,666.66667)" />
      <path
         id="path26"
         d="m 3383.82,3274.96 c 0.39,-13.93 11.99,-24.9 25.92,-24.51 13.93,0.39 24.91,11.99 24.51,25.92 -0.39,13.93 -12,24.91 -25.92,24.52 -13.93,-0.39 -24.91,-12.01 -24.51,-25.93 z"
         style="fill:none;stroke:#040606;stroke-width:20;stroke-linecap:round;stroke-linejoin:round;stroke-miterlimit:10;stroke-dasharray:none;stroke-opacity:1"
         transform="matrix(0.13333333,0,0,-0.13333333,0,666.66667)" />
      <path
         id="path27"
         d="m 2811.33,3393.3 c 1.7,-60.77 52.35,-108.65 113.12,-106.95 60.78,1.7 108.66,52.35 106.95,113.12 -1.7,60.78 -52.35,108.66 -113.12,106.96 -60.78,-1.71 -108.66,-52.36 -106.95,-113.13"
         style="fill:#040606;fill-opacity:1;fill-rule:nonzero;stroke:none"
         transform="matrix(0.13333333,0,0,-0.13333333,0,666.66667)" />
      <path
         id="path28"
         d="m 2811.33,3393.3 c 1.7,-60.77 52.35,-108.65 113.12,-106.95 60.78,1.7 108.66,52.35 106.95,113.12 -1.7,60.78 -52.35,108.66 -113.12,106.96 -60.78,-1.71 -108.66,-52.36 -106.95,-113.13 z"
         style="fill:none;stroke:#040606;stroke-width:20;stroke-linecap:round;stroke-linejoin:round;stroke-miterlimit:10;stroke-dasharray:none;stroke-opacity:1"
         transform="matrix(0.13333333,0,0,-0.13333333,0,666.66667)" />
      <path
         id="path29"
         d="m 2892.68,3439.15 c 0.68,-24.04 20.71,-42.99 44.75,-42.31 24.05,0.68 42.99,20.71 42.32,44.75 -0.68,24.05 -20.71,42.99 -44.76,42.32 -24.04,-0.68 -42.99,-20.71 -42.31,-44.76"
         style="fill:#ffffff;fill-opacity:1;fill-rule:nonzero;stroke:none"
         transform="matrix(0.13333333,0,0,-0.13333333,0,666.66667)" />
      <path
         id="path30"
         d="m 2892.68,3439.15 c 0.68,-24.04 20.71,-42.99 44.75,-42.31 24.05,0.68 42.99,20.71 42.32,44.75 -0.68,24.05 -20.71,42.99 -44.76,42.32 -24.04,-0.68 -42.99,-20.71 -42.31,-44.76 z"
         style="fill:none;stroke:#040606;stroke-width:20;stroke-linecap:round;stroke-linejoin:round;stroke-miterlimit:10;stroke-dasharray:none;stroke-opacity:1"
         transform="matrix(0.13333333,0,0,-0.13333333,0,666.66667)" />
      <path
         id="path31"
         d="m 2860.11,3371.73 c 0.39,-13.93 12,-24.9 25.93,-24.51 13.92,0.39 24.9,12 24.51,25.92 -0.39,13.93 -12,24.91 -25.93,24.52 -13.93,-0.4 -24.9,-12 -24.51,-25.93"
         style="fill:#ffffff;fill-opacity:1;fill-rule:nonzero;stroke:none"
         transform="matrix(0.13333333,0,0,-0.13333333,0,666.66667)" />
      <path
         id="path32"
         d="m 2860.11,3371.73 c 0.39,-13.93 12,-24.9 25.93,-24.51 13.92,0.39 24.9,12 24.51,25.92 -0.39,13.93 -12,24.91 -25.93,24.52 -13.93,-0.4 -24.9,-12 -24.51,-25.93 z"
         style="fill:none;stroke:#040606;stroke-width:20;stroke-linecap:round;stroke-linejoin:round;stroke-miterlimit:10;stroke-dasharray:none;stroke-opacity:1"
         transform="matrix(0.13333333,0,0,-0.13333333,0,666.66667)" />
      <path
         id="path33"
         d="m 3257.27,3269.37 c 0,0 -51.43,-65.43 -102.14,-57.12 -50.71,8.3 -59.54,87.39 -59.54,87.39"
         style="fill:none;stroke:#040606;stroke-width:20;stroke-linecap:round;stroke-linejoin:round;stroke-miterlimit:10;stroke-dasharray:none;stroke-opacity:1"
         transform="matrix(0.13333333,0,0,-0.13333333,0,666.66667)" />
      <path
         id="path34"
         d="M 3002.27,1747.73 C 2923.02,1268.3 2806.85,794.98 2655.12,333.352"
         style="fill:none;stroke:#040606;stroke-width:20;stroke-linecap:round;stroke-linejoin:round;stroke-miterlimit:10;stroke-dasharray:none;stroke-opacity:1"
         transform="matrix(0.13333333,0,0,-0.13333333,0,666.66667)" />
      <path
         id="path35"
         d="M 3040.28,1718.49 C 2961.04,1239.06 2865.31,789.141 2713.58,327.512"
         style="fill:none;stroke:#040606;stroke-width:20;stroke-linecap:round;stroke-linejoin:round;stroke-miterlimit:10;stroke-dasharray:none;stroke-opacity:1"
         transform="matrix(0.13333333,0,0,-0.13333333,0,666.66667)" />
      <path
         id="path36"
         d="m 2757.82,667.242 c -182.54,89.477 -311.63,269.488 -365.16,465.608 -53.53,196.13 -36.98,406.57 18.79,602.06 50.36,-26.7 87.4,-62.19 123.92,-105.98 106.94,-128.22 172.02,-288.04 202.29,-452.24 30.26,-164.21 39.22,-343.569 20.16,-509.448 z"
         style="fill:none;stroke:#040606;stroke-width:20;stroke-linecap:round;stroke-linejoin:round;stroke-miterlimit:10;stroke-dasharray:none;stroke-opacity:1"
         transform="matrix(0.13333333,0,0,-0.13333333,0,666.66667)" />
      <path
         id="path37"
         d="m 2475.11,1418.83 c 62.1,-253.44 153.31,-499.728 271.25,-732.478"
         style="fill:none;stroke:#040606;stroke-width:20;stroke-linecap:round;stroke-linejoin:round;stroke-miterlimit:10;stroke-dasharray:none;stroke-opacity:1"
         transform="matrix(0.13333333,0,0,-0.13333333,0,666.66667)" />
      <path
         id="path38"
         d="m 2820.34,650.23 c 53.89,196.02 206.68,356.4 389.39,445.55 182.71,89.15 392.54,112.12 595.01,93.77 -16.85,-54.46 -44.82,-97.46 -81.03,-141.5 C 3617.67,919.07 3472.79,825.34 3317.1,765 3161.41,704.66 2986.87,662.422 2820.34,650.23 Z"
         style="fill:none;stroke:#040606;stroke-width:20;stroke-linecap:round;stroke-linejoin:round;stroke-miterlimit:10;stroke-dasharray:none;stroke-opacity:1"
         transform="matrix(0.13333333,0,0,-0.13333333,0,666.66667)" />
      <path
         id="path39"
         d="M 3506.06,1068.09 C 3268.64,959.84 3043.66,824.32 2836.98,665.051"
         style="fill:none;stroke:#040606;stroke-width:20;stroke-linecap:round;stroke-linejoin:round;stroke-miterlimit:10;stroke-dasharray:none;stroke-opacity:1"
         transform="matrix(0.13333333,0,0,-0.13333333,0,666.66667)" />
      <path
         id="path40"
         d="m 4622.13,3019.29 c 40.59,-166.44 62.11,-340.35 62.11,-519.29 C 4684.24,1293.68 3706.32,315.762 2500,315.762 1293.68,315.762 315.766,1293.68 315.766,2500 c 0,1206.32 977.914,2184.23 2184.234,2184.23 143.04,0 280.55,-12.48 415.92,-38.73"
         style="fill:none;stroke:#040606;stroke-width:20;stroke-linecap:round;stroke-linejoin:round;stroke-miterlimit:10;stroke-dasharray:none;stroke-opacity:1"
         transform="matrix(0.13333333,0,0,-0.13333333,0,666.66667)" />
      <path
         id="path41"
         d="m 4249.55,3811.12 c 56.4,-74.15 98.17,-142.02 144.88,-223.16"
         style="fill:none;stroke:#040606;stroke-width:20;stroke-linecap:round;stroke-linejoin:round;stroke-miterlimit:10;stroke-dasharray:none;stroke-opacity:1"
         transform="matrix(0.13333333,0,0,-0.13333333,0,666.66667)" />
      <path
         id="path42"
         d="m 3530.69,4426.25 c 58.82,-31.54 109.14,-60.16 164.58,-96.78"
         style="fill:none;stroke:#040606;stroke-width:20;stroke-linecap:round;stroke-linejoin:round;stroke-miterlimit:10;stroke-dasharray:none;stroke-opacity:1"
         transform="matrix(0.13333333,0,0,-0.13333333,0,666.66667)" />
      <path
         id="path43"
         d="m 436.801,1792.05 c 46.586,13.61 96.211,12.84 144.418,7.28 163.758,-18.92 316.582,-91.15 459.161,-173.89 142.58,-82.73 278.81,-177.18 428.06,-247.17 149.25,-70 315.8,-115.03 478.87,-90.91 79.16,11.7 154.99,39.25 230.18,66.64 56.18,20.47 112.36,40.92 168.54,61.38"
         style="fill:none;stroke:#040606;stroke-width:20;stroke-linecap:round;stroke-linejoin:round;stroke-miterlimit:10;stroke-dasharray:none;stroke-opacity:1"
         transform="matrix(0.13333333,0,0,-0.13333333,0,666.66667)" />
      <path
         id="path44"
         d="m 2626.58,1509.1 c 109.37,42.81 224.46,71 341.23,83.61"
         style="fill:none;stroke:#040606;stroke-width:20;stroke-linecap:round;stroke-linejoin:round;stroke-miterlimit:10;stroke-dasharray:none;stroke-opacity:1"
         transform="matrix(0.13333333,0,0,-0.13333333,0,666.66667)" />
      <path
         id="path45"
         d="m 3028.28,1592.39 c 181.16,-27.74 340.02,-147.04 522.36,-165.54 169.85,-17.24 334.61,55.04 489.85,126.09 155.25,71.06 309.35,144.23 479.39,128.9"
         style="fill:none;stroke:#040606;stroke-width:20;stroke-linecap:round;stroke-linejoin:round;stroke-miterlimit:10;stroke-dasharray:none;stroke-opacity:1"
         transform="matrix(0.13333333,0,0,-0.13333333,0,666.66667)" />
      <path
         id="path46"
         d="m 1031.92,894.891 c 9.34,141.429 0.61,284.039 -25.94,423.259 101.54,-97.13 119.02,-250.54 179.98,-377.13 6.85,101.13 23.28,201.61 48.98,299.66 29.13,-104.24 56.43,-209 81.88,-314.2 24.73,86.03 57.65,169.7 98.17,249.53 -8.75,-138.3 2.28,-277.838 32.66,-413.049 16.22,81.18 54.23,161.09 108.08,223.969 -26.33,-117.211 -25.24,-240.481 3.13,-357.211 26.98,80.07 66.11,156.023 115.64,224.48 -29.74,-123.789 -30.02,-254.551 -0.82,-378.469"
         style="fill:none;stroke:#040606;stroke-width:20;stroke-linecap:round;stroke-linejoin:round;stroke-miterlimit:10;stroke-dasharray:none;stroke-opacity:1"
         transform="matrix(0.13333333,0,0,-0.13333333,0,666.66667)" />
      <path
         id="path47"
         d="m 2111.42,356 c -4.32,92.18 -19.6,183.84 -45.39,272.441 49.15,-53.16 93.23,-111.019 131.43,-172.519 -0.59,119.418 -9.59,238.808 -26.9,356.969 75.62,-116.219 138.33,-240.84 186.61,-370.821 18.35,64.981 36.71,129.95 55.07,194.93 14.73,-69.121 29.47,-138.238 44.21,-207.359 20.38,48.828 40.76,97.66 61.15,146.48 -5.65,-84.641 -0.24,-170.012 16.04,-253.262"
         style="fill:none;stroke:#040606;stroke-width:20;stroke-linecap:round;stroke-linejoin:round;stroke-miterlimit:10;stroke-dasharray:none;stroke-opacity:1"
         transform="matrix(0.13333333,0,0,-0.13333333,0,666.66667)" />
      <path
         id="path48"
         d="m 4020.29,943.461 c -16.87,115.319 -44.42,229.069 -82.19,339.339 45.21,-39.18 86.46,-82.94 122.89,-130.41 0.75,96.12 4.3,192.2 10.63,288.11 33.87,-74.58 67.73,-149.15 101.6,-223.73 -0.29,96.02 9.91,192.06 30.37,285.88 13.28,-92.78 38.9,-183.78 75.99,-269.85"
         style="fill:none;stroke:#040606;stroke-width:20;stroke-linecap:round;stroke-linejoin:round;stroke-miterlimit:10;stroke-dasharray:none;stroke-opacity:1"
         transform="matrix(0.13333333,0,0,-0.13333333,0,666.66667)" />
      <path
         id="path49"
         d="m 692.664,1591.06 c 19.535,-55.5 39.07,-111 58.609,-166.5 5.625,64.12 11.243,128.24 16.868,192.35 25.699,-73.01 51.402,-146.02 77.101,-219.02 8.5,54.77 15.297,109.81 20.375,165 21.196,-53.71 38.422,-108.98 51.485,-165.22"
         style="fill:none;stroke:#040606;stroke-width:20;stroke-linecap:round;stroke-linejoin:round;stroke-miterlimit:10;stroke-dasharray:none;stroke-opacity:1"
         transform="matrix(0.13333333,0,0,-0.13333333,0,666.66667)" />
      <path
         id="path50"
         d="m 1853.54,910.941 c 7.39,56.028 11.56,112.499 12.5,169.009 18.31,-68.47 39.04,-136.309 62.11,-203.321 2.68,82.543 10.26,164.931 22.7,246.591 13.82,-82.21 36.61,-162.911 67.85,-240.189 6.57,75.688 13.15,151.379 19.73,227.069 27.28,-64.91 54.57,-129.819 81.85,-194.748"
         style="fill:none;stroke:#040606;stroke-width:20;stroke-linecap:round;stroke-linejoin:round;stroke-miterlimit:10;stroke-dasharray:none;stroke-opacity:1"
         transform="matrix(0.13333333,0,0,-0.13333333,0,666.66667)" />
      <path
         id="path51"
         d="m 3140.81,1216.59 c 2.73,41.02 8.46,81.83 17.14,122.01 24.37,-38.81 23.06,-90.36 50.35,-127.16 15.49,57.27 27.37,115.52 35.55,174.28 15.58,-54.03 26.67,-109.35 33.14,-165.2"
         style="fill:none;stroke:#040606;stroke-width:20;stroke-linecap:round;stroke-linejoin:round;stroke-miterlimit:10;stroke-dasharray:none;stroke-opacity:1"
         transform="matrix(0.13333333,0,0,-0.13333333,0,666.66667)" />
      <path
         id="path52"
         d="m 3705.11,1864.27 c 38.26,26.78 89.08,34.7 133.67,20.83 44.59,-13.88 81.95,-49.23 98.26,-92.99 9.12,49.54 47.28,92.61 95.35,107.62 48.08,15.01 103.96,1.31 139.65,-34.24"
         style="fill:none;stroke:#040606;stroke-width:20;stroke-linecap:round;stroke-linejoin:round;stroke-miterlimit:10;stroke-dasharray:none;stroke-opacity:1"
         transform="matrix(0.13333333,0,0,-0.13333333,0,666.66667)" />
      <path
         id="path53"
         d="m 329.848,2760.54 c 127.781,67.85 293.738,26.1 401.316,-70.64 107.578,-96.74 165.324,-237.63 197.914,-378.59 30.016,69.87 117.982,101.84 192.212,85.32 74.22,-16.51 134.68,-71.45 178.25,-133.77 26.36,75.81 99.95,135.98 177.69,155.96 77.74,19.98 164.88,-1.42 224.53,-55.13 24.69,63.69 76.72,120.93 138.18,150.75 61.47,29.81 134.28,35.43 199.59,15.39"
         style="fill:none;stroke:#040606;stroke-width:20;stroke-linecap:round;stroke-linejoin:round;stroke-miterlimit:10;stroke-dasharray:none;stroke-opacity:1"
         transform="matrix(0.13333333,0,0,-0.13333333,0,666.66667)" />
      <path
         id="path54"
         d="m 4259.68,2645.94 c 53.31,10.76 110.38,1.77 157.81,-24.84 47.43,-26.62 84.84,-70.64 103.43,-121.75 25.59,64.84 86.74,114.31 155.48,125.78"
         style="fill:none;stroke:#040606;stroke-width:20;stroke-linecap:round;stroke-linejoin:round;stroke-miterlimit:10;stroke-dasharray:none;stroke-opacity:1"
         transform="matrix(0.13333333,0,0,-0.13333333,0,666.66667)" />
      <path
         id="path55"
         d="m 680.441,2067.38 c 37.192,51.8 107.414,77.36 169.2,61.61 61.789,-15.77 111.175,-71.84 119.011,-135.13 16.871,51.92 66.588,91.5 120.968,96.3 54.38,4.79 110.26,-25.47 135.95,-73.63"
         style="fill:none;stroke:#040606;stroke-width:20;stroke-linecap:round;stroke-linejoin:round;stroke-miterlimit:10;stroke-dasharray:none;stroke-opacity:1"
         transform="matrix(0.13333333,0,0,-0.13333333,0,666.66667)" />
      <path
         id="path56"
         d="m 1571.04,1647.79 c 31.46,50.45 85.18,89.67 144.59,92.02 59.42,2.34 120.94,-39.33 130.38,-98.04 -0.66,61.78 40.11,121.92 97.73,144.21 57.63,22.27 128.25,5.2 169.32,-40.95"
         style="fill:none;stroke:#040606;stroke-width:20;stroke-linecap:round;stroke-linejoin:round;stroke-miterlimit:10;stroke-dasharray:none;stroke-opacity:1"
         transform="matrix(0.13333333,0,0,-0.13333333,0,666.66667)" />
      <path
         id="path57"
         d="m 1717.8,2640.44 h -595.95 c 2.53,39.2 15.25,79.91 45.68,104.77 30.43,24.85 80.15,27.9 107.07,-0.72 -3.32,80.23 71.98,154.72 152.17,150.53 51.58,-2.7 98.52,-33.14 132.41,-72.11 33.88,-38.97 56.67,-86.13 79.04,-132.67 15.48,10.13 37.86,7.41 53.39,-2.65 15.54,-10.04 18.55,-30.31 26.19,-47.15 z"
         style="fill:none;stroke:#040606;stroke-width:20;stroke-linecap:round;stroke-linejoin:round;stroke-miterlimit:10;stroke-dasharray:none;stroke-opacity:1"
         transform="matrix(0.13333333,0,0,-0.13333333,0,666.66667)" />
      <path
         id="path58"
         d="m 2030.87,3995.92 h -355.08 c -7.1,35.72 15.84,75.62 45.27,97.07 29.43,21.46 71.44,24.04 103.27,6.35 3.54,-1.97 7.49,-4.25 11.39,-3.13 4.47,1.27 6.53,6.29 7.99,10.71 11.69,35.38 24.07,71.99 49.58,99.16 25.5,27.17 68.12,42.08 101.01,24.56"
         style="fill:none;stroke:#040606;stroke-width:20;stroke-linecap:round;stroke-linejoin:round;stroke-miterlimit:10;stroke-dasharray:none;stroke-opacity:1"
         transform="matrix(0.13333333,0,0,-0.13333333,0,666.66667)" />
      <path
         id="path59"
         d="m 1081.94,4157.2 c 243.76,-114.86 348.24,-405.58 233.38,-649.33 -114.86,-243.75 -405.578,-348.24 -649.328,-233.38 -60.941,28.72 -113.172,68.42 -155.453,115.64"
         style="fill:none;stroke:#040606;stroke-width:20;stroke-linecap:round;stroke-linejoin:round;stroke-miterlimit:10;stroke-dasharray:none;stroke-opacity:1"
         transform="matrix(0.13333333,0,0,-0.13333333,0,666.66667)" />
      <path
         id="path60"
         d="m 1081.94,4157.2 c 0,0 202.72,132.65 236.54,98.1 33.83,-34.55 -77.61,-209.08 -77.61,-209.08 0,0 246.17,28.92 267.5,-23.28 21.33,-52.21 -162.51,-181.06 -162.51,-181.06 0,0 250.72,-87.47 243.38,-135.27 -7.35,-47.78 -231.9,-85.78 -231.9,-85.78 0,0 182.31,-165.58 171.41,-191.54 -10.9,-25.95 -252.92,9.54 -252.92,9.54 0,0 92.7,-209.37 66.45,-241.59 -26.25,-32.22 -239.57,77.7 -239.57,77.7 0,0 1.71,-232.21 -43.44,-248.86 -45.15,-16.66 -173.579,192.44 -173.579,192.44 0,0 -114.722,-188.4 -156.586,-191.17 -41.871,-2.78 -63.113,247.14 -63.113,247.14 0,0 -172.48,-166.03 -199.472,-139.43 -26.989,26.59 44.019,255.07 44.019,255.07"
         style="fill:none;stroke:#040606;stroke-width:20;stroke-linecap:round;stroke-linejoin:round;stroke-miterlimit:10;stroke-dasharray:none;stroke-opacity:1"
         transform="matrix(0.13333333,0,0,-0.13333333,0,666.66667)" />
    </g>
  </g>
</svg>
