<svg xmlns="http://www.w3.org/2000/svg" width="800" height="800" viewBox="0 0 800 800">
<rect width="100%" height="100%" fill="white"/>
<g stroke="black" stroke-width="8" fill="none" stroke-linecap="round" stroke-linejoin="round">
  <circle cx="400" cy="380" r="140"/>
  <line x1="400" y1="120" x2="400" y2="40"/>
  <line x1="400" y1="640" x2="400" y2="720"/>
  <line x1="160" y1="380" x2="80" y2="380"/>
  <line x1="640" y1="380" x2="720" y2="380"/>
  <line x1="230" y1="210" x2="170" y2="150"/>
  <line x1="570" y1="210" x2="630" y2="150"/>
  <line x1="230" y1="550" x2="170" y2="610"/>
  <line x1="570" y1="550" x2="630" y2="610"/>
  <line x1="290" y1="150" x2="250" y2="80"/>
  <line x1="510" y1="150" x2="550" y2="80"/>
  <line x1="290" y1="610" x2="250" y2="680"/>
  <line x1="510" y1="610" x2="550" y2="680"/>
  <circle cx="345" cy="345" r="14"/>
  <circle cx="455" cy="345" r="14"/>
  <path d="M330 430 Q400 490 470 430"/>
</g>
</svg>