<svg xmlns="http://www.w3.org/2000/svg" width="220" height="220" viewBox="0 0 220 220" role="img" aria-labelledby="title desc">
  <title id="title">Code Blocks Playground Logo</title>
  <desc id="desc">A smiling puzzle mascot made of colorful code blocks</desc>
  <defs>
    <linearGradient id="bg" x1="0" y1="0" x2="1" y2="1">
      <stop offset="0%" stop-color="#2ec8ff"/>
      <stop offset="100%" stop-color="#6a57ff"/>
    </linearGradient>
    <linearGradient id="panel" x1="0" y1="0" x2="0" y2="1">
      <stop offset="0%" stop-color="#ffffff" stop-opacity="0.94"/>
      <stop offset="100%" stop-color="#eef5ff" stop-opacity="0.9"/>
    </linearGradient>
  </defs>

  <rect x="10" y="10" width="200" height="200" rx="46" fill="url(#bg)"/>
  <rect x="26" y="26" width="168" height="168" rx="36" fill="url(#panel)"/>

  <g transform="translate(110 112)">
    <rect x="-56" y="-52" width="42" height="42" rx="10" fill="#ff9b3f" stroke="#24365f" stroke-width="4"/>
    <rect x="-10" y="-52" width="42" height="42" rx="10" fill="#57d66c" stroke="#24365f" stroke-width="4"/>
    <rect x="36" y="-52" width="20" height="42" rx="8" fill="#ffd95a" stroke="#24365f" stroke-width="4"/>

    <rect x="-56" y="-6" width="42" height="42" rx="10" fill="#ff70a9" stroke="#24365f" stroke-width="4"/>
    <rect x="-10" y="-6" width="42" height="42" rx="10" fill="#4bc7ff" stroke="#24365f" stroke-width="4"/>
    <rect x="36" y="-6" width="20" height="42" rx="8" fill="#9a75ff" stroke="#24365f" stroke-width="4"/>

    <rect x="-56" y="40" width="42" height="30" rx="10" fill="#7fdfff" stroke="#24365f" stroke-width="4"/>
    <rect x="-10" y="40" width="66" height="30" rx="10" fill="#ffe37a" stroke="#24365f" stroke-width="4"/>

    <circle cx="-18" cy="6" r="4.5" fill="#24365f"/>
    <circle cx="18" cy="6" r="4.5" fill="#24365f"/>
    <path d="M-20 18 Q0 34 20 18" fill="none" stroke="#24365f" stroke-width="4" stroke-linecap="round"/>
  </g>

  <g fill="#fff176" opacity="0.9">
    <path d="M34 56 l5 10 10 5-10 5-5 10-5-10-10-5 10-5z"/>
    <path d="M184 64 l4 8 8 4-8 4-4 8-4-8-8-4 8-4z"/>
    <path d="M170 166 l4 8 8 4-8 4-4 8-4-8-8-4 8-4z"/>
  </g>
</svg>
